<?xml version="1.0" standalone="no"?>
<!DOCTYPE svg PUBLIC "-//W3C//DTD SVG 20010904//EN"
 "http://www.w3.org/TR/2001/REC-SVG-20010904/DTD/svg10.dtd">
<svg version="1.0" xmlns="http://www.w3.org/2000/svg"
 width="700.000000pt" height="700.000000pt" viewBox="0 0 700.000000 700.000000"
 preserveAspectRatio="xMidYMid meet">
<metadata>
Created by potrace 1.14, written by Peter Selinger 2001-2017
</metadata>
<g transform="translate(0.000000,700.000000) scale(0.100000,-0.100000)"
fill="#000000" stroke="none">
<path d="M455 6863 c19 -50 545 -1634 615 -1853 45 -140 86 -264 90 -275 5
-11 12 -31 15 -45 4 -14 33 -108 66 -210 33 -102 73 -225 88 -275 16 -49 68
-209 114 -355 47 -146 106 -330 132 -410 25 -80 50 -149 55 -154 5 -5 44 11
92 37 46 24 142 75 213 112 72 37 195 102 275 145 80 42 213 112 295 155 147
76 306 163 313 169 2 2 -35 118 -81 257 -47 140 -133 403 -192 584 -58 182
-110 341 -115 355 -10 27 -165 510 -201 625 -12 39 -40 129 -63 200 l-41 130
-515 257 c-840 419 -1144 569 -1154 568 -4 0 -5 -8 -1 -17z"/>
<path d="M6034 6799 c-191 -97 -338 -175 -457 -240 -48 -27 -89 -49 -91 -49
-2 0 -70 -38 -151 -85 -82 -47 -149 -85 -151 -85 -3 0 -169 -94 -194 -110 -8
-5 -67 -38 -130 -75 -106 -60 -197 -113 -227 -133 -7 -4 -26 -52 -42 -107 -70
-232 -193 -651 -197 -665 -2 -8 -10 -37 -18 -65 -8 -27 -28 -95 -45 -150 -16
-55 -55 -185 -86 -290 -59 -199 -66 -225 -60 -225 2 0 47 25 100 55 54 30 99
55 101 55 1 0 29 15 61 33 32 19 94 53 138 77 44 24 98 54 120 66 22 13 70 39
108 59 37 19 106 58 154 85 47 28 88 50 90 50 2 0 38 20 81 44 42 23 115 64
162 89 47 25 119 64 160 86 41 23 127 69 192 103 l116 63 52 170 c29 93 56
184 60 200 4 17 36 122 70 235 34 113 65 219 70 235 15 60 178 621 185 638 4
9 3 17 -2 17 -5 0 -81 -36 -169 -81z"/>
<path d="M5715 5169 c-22 -11 -58 -31 -80 -44 -50 -28 -127 -70 -230 -125 -44
-24 -94 -51 -112 -61 -30 -17 -65 -36 -223 -122 -30 -16 -73 -40 -95 -52 -22
-13 -74 -41 -115 -62 -41 -22 -95 -51 -120 -65 -25 -14 -85 -46 -135 -73 -49
-26 -112 -60 -140 -75 -27 -15 -90 -49 -140 -75 -49 -27 -117 -63 -149 -81
-66 -35 -63 -31 -111 -184 -19 -58 -54 -168 -79 -245 -24 -77 -89 -282 -144
-455 -55 -173 -148 -466 -207 -650 -59 -184 -115 -362 -125 -395 -55 -181
-108 -328 -113 -315 -5 12 -119 402 -132 450 -35 131 -329 1147 -334 1152 -4
4 -54 -16 -111 -46 -361 -183 -797 -405 -911 -464 -74 -38 -153 -79 -175 -90
l-42 -21 19 -53 c10 -29 52 -161 94 -293 42 -132 80 -251 85 -265 5 -14 43
-133 85 -265 42 -132 80 -251 85 -265 5 -14 31 -95 58 -180 28 -85 68 -211 90
-280 22 -69 81 -253 132 -410 50 -157 128 -397 172 -535 44 -137 83 -259 88
-270 4 -11 16 -47 27 -80 l18 -60 550 1 c550 2 972 8 980 15 3 4 144 445 271
849 31 96 59 186 64 200 10 28 82 260 86 275 1 6 50 163 109 350 59 187 135
432 170 545 35 113 85 270 110 350 25 80 48 153 50 162 2 9 26 88 53 175 58
182 62 196 61 203 0 3 6 23 15 45 8 22 63 195 121 385 59 190 122 395 142 455
19 61 37 117 38 125 2 8 29 96 60 195 75 239 102 325 169 544 32 102 59 188
62 193 7 12 3 10 -41 -13z"/>
</g>
</svg>
