<svg xmlns="http://www.w3.org/2000/svg" viewBox="0 0 11.807 11.802">
  <g id="linkedin">
    <path d="M0,1.373A1.316,1.316,0,0,1,.4.39,1.416,1.416,0,0,1,1.435,0,1.34,1.34,0,0,1,2.848,1.408a1.287,1.287,0,0,1-.386.955,1.429,1.429,0,0,1-1.048.393H1.4A1.334,1.334,0,0,1,0,1.373ZM.149,11.8V3.84H2.676V11.8Zm3.927,0H6.6V7.36a1.831,1.831,0,0,1,.1-.648,1.737,1.737,0,0,1,.484-.685A1.2,1.2,0,0,1,8,5.743q1.275,0,1.274,1.8V11.8H11.8V7.237A3.963,3.963,0,0,0,11,4.562a2.657,2.657,0,0,0-2.1-.913A2.561,2.561,0,0,0,6.606,4.972V5h0l.011-.024V3.84H4.076q.023.387.022,2.371T4.076,11.8Z" />
  </g>
</svg>
