<svg xmlns="http://www.w3.org/2000/svg" xmlns:xlink="http://www.w3.org/1999/xlink" viewBox="0 0 242.62 39.39">
  <defs>
    <clipPath id="a">
      <rect x="66.98" width="34.49" height="39.39" fill="none"/>
    </clipPath>
    <clipPath id="b">
      <rect x="229.15" y="0.46" width="13.47" height="14.56" fill="none"/>
    </clipPath>
  </defs>
  <g>
    <path d="M54.85.64H49.1V17.4H28.31V.64h-5.7V38.75h5.7V21.34H49.1V38.75h5.75Z"/>
    <path d="M0,38.75H5.7V.64H0Z"/>
    <g>
      <g clip-path="url(#a)">
        <path d="M95.71,20.41V35.18a13.615,13.615,0,0,1-7.37,1.96c-8.92,0-15.02-7.89-15.02-17.85,0-9.38,5.35-17.1,14.28-17.1,6.16,0,9.67,2.88,12.26,6.1h.29V1.67A53.392,53.392,0,0,0,87.83,0C74.87,0,66.98,9.45,66.98,19.81c0,11.34,8.53,19.58,20.96,19.58,6.16,0,10.94-2.36,13.53-3.11V20.41Z" fill-rule="evenodd"/>
      </g>
      <path d="M105.19,1.03a2.256,2.256,0,0,1,2.29,2.28,2.285,2.285,0,1,1-2.29-2.28Zm0,.37a1.825,1.825,0,0,0-1.87,1.92,1.875,1.875,0,1,0,3.75-.01A1.82,1.82,0,0,0,105.19,1.4Zm-.78.76h.8c.52,0,.86.21.86.68v.01a.61.61,0,0,1-.46.61l.59.95h-.51l-.55-.87h-.23v.87h-.5Zm.78,1.04c.26,0,.4-.12.4-.33V2.86c0-.24-.15-.32-.4-.32h-.28V3.2Z" fill-rule="evenodd"/>
      <path d="M122.02.67h1.85V7.09h10.89V.67h1.85V14.88h-1.85V8.58H123.87v6.3h-1.85Z"/>
      <path d="M140.55,7.87V7.71c0-4.04,3.67-7.22,9.34-7.22s9.34,3.18,9.34,7.18v.16c0,4.01-3.68,7.23-9.28,7.23C144.22,15.06,140.55,11.84,140.55,7.87Zm16.75-.06V7.65c0-3.16-2.72-5.75-7.41-5.75-4.73,0-7.42,2.43-7.42,5.79v.16c0,3.41,3.06,5.76,7.48,5.76C154.48,13.61,157.3,11.22,157.3,7.81Z" fill-rule="evenodd"/>
      <path d="M166.62,2.1h-5.84V.67h13.53V2.1h-5.84V14.88h-1.85Z"/>
      <path d="M177.81.67h11.96V2.1H179.66V6.89h8.52V8.32h-8.52v5.13h10.59v1.43H177.81Z"/>
      <path d="M193.91.67h1.84V13.45h9.17v1.43H193.91Z"/>
      <path d="M207.16,10.55h1.81c.3,1.75,1.63,3.1,5.43,3.1,3.04,0,4.75-1.03,4.75-2.76,0-1.67-1.26-2.21-5.15-2.67-3.92-.45-6.1-1.39-6.1-3.93,0-2.19,2.28-3.8,6.02-3.8,3.69,0,6.06,1.31,6.44,3.92h-1.69c-.44-1.85-1.99-2.51-4.75-2.51-3,0-4.29.92-4.29,2.35,0,1.27.93,2.01,4.9,2.46,4.18.48,6.4,1.32,6.4,4.12,0,2.46-2.42,4.23-6.53,4.23C209.63,15.06,207.52,13.05,207.16,10.55Z" fill-rule="evenodd"/>
      <path d="M122.02,24.51h6.76c3.16,0,5.82,1.17,5.82,4.17v.08c0,2.46-2.08,3.7-4.07,4.05l5.21,5.91h-2.23l-5.09-5.77h-4.55v5.77h-1.85Zm6.88,7.05c2.37,0,3.86-.97,3.86-2.78V28.7c0-2.03-1.61-2.78-3.86-2.78h-5.03v5.64Z" fill-rule="evenodd"/>
      <path d="M139.79,24.51h11.96v1.43H141.64v4.79h8.52v1.43h-8.52v5.13h10.59v1.43H139.79Z"/>
      <path d="M155.37,34.38h1.81c.3,1.75,1.63,3.1,5.43,3.1,3.04,0,4.75-1.03,4.75-2.76,0-1.67-1.26-2.2-5.15-2.66-3.92-.46-6.1-1.39-6.1-3.94,0-2.18,2.28-3.79,6.02-3.79,3.69,0,6.06,1.31,6.44,3.91h-1.69c-.44-1.85-1.99-2.5-4.75-2.5-3,0-4.29.91-4.29,2.34,0,1.28.93,2.01,4.9,2.47,4.18.48,6.4,1.31,6.4,4.11,0,2.47-2.42,4.24-6.53,4.24C157.84,38.9,155.73,36.89,155.37,34.38Z" fill-rule="evenodd"/>
      <path d="M172.72,31.7v-.16c0-4.03,3.68-7.21,9.34-7.21s9.34,3.18,9.34,7.17v.16c0,4.02-3.67,7.24-9.28,7.24C176.4,38.9,172.72,35.68,172.72,31.7Zm16.75-.06v-.16c0-3.16-2.72-5.74-7.41-5.74-4.73,0-7.41,2.42-7.41,5.78v.16c0,3.42,3.06,5.76,7.47,5.76C186.65,37.44,189.47,35.06,189.47,31.64Z" fill-rule="evenodd"/>
      <path d="M196.01,24.51h6.76c3.16,0,5.82,1.17,5.82,4.17v.08c0,2.46-2.08,3.7-4.07,4.05l5.2,5.91H207.5l-5.09-5.77h-4.55v5.77h-1.85Zm6.88,7.05c2.36,0,3.85-.97,3.85-2.78V28.7c0-2.03-1.61-2.78-3.85-2.78h-5.03v5.64Z" fill-rule="evenodd"/>
      <path d="M217.83,25.94h-5.84V24.51h13.53v1.43h-5.84V38.72h-1.85Z"/>
      <path d="M228.11,34.38h1.81c.29,1.75,1.63,3.1,5.42,3.1,3.04,0,4.75-1.03,4.75-2.76,0-1.67-1.25-2.2-5.15-2.66s-6.1-1.39-6.1-3.94c0-2.18,2.29-3.79,6.02-3.79,3.7,0,6.07,1.31,6.44,3.91h-1.69c-.43-1.85-1.98-2.5-4.75-2.5-3,0-4.29.91-4.29,2.34,0,1.28.94,2.01,4.91,2.47,4.17.48,6.4,1.31,6.4,4.11,0,2.47-2.42,4.24-6.54,4.24C230.57,38.9,228.47,36.89,228.11,34.38Z" fill-rule="evenodd"/>
      <g clip-path="url(#b)">
        <path d="M238.63,12.93a6.033,6.033,0,0,1-4.64,2.09c-2.92,0-4.84-1.41-4.84-3.8,0-2.27,1.75-3.5,3.56-4.18a4.1,4.1,0,0,1-1.57-3.16c0-2.19,1.79-3.42,3.8-3.42a3.306,3.306,0,0,1,3.6,3.3c0,1.41-1.11,2.79-3.28,3.64l3.45,3.5,2.24-3.36h1.53l-2.85,4.3,2.99,3.04h-2.1Zm-.84-.85-4.1-4.2c-1.68.62-2.91,1.55-2.91,3.24,0,1.55,1.14,2.53,3.24,2.53A5,5,0,0,0,237.79,12.08Zm-.73-8.36a1.944,1.944,0,0,0-2.15-1.95,2.058,2.058,0,0,0-2.27,2.13,3.617,3.617,0,0,0,1.68,2.69C236.32,5.73,237.06,4.86,237.06,3.72Z" fill-rule="evenodd"/>
      </g>
    </g>
  </g>
</svg>
