<svg xmlns="http://www.w3.org/2000/svg" viewBox="0 0 385.499 72.276">
  <g>
    <g>
      <path d="M350.057,64.568h0l2,6.579h13.424l.081-.235.988-2.809q-8.448-3.5-17.373-6.462h0Zm0,0v0" transform="translate(0)"/>
      <path d="M313.48,54.873l.01,0h0l5.794,16.27H332.6l3.078-10.393.873-2.937Q324.867,54.581,312.57,52.3h0Z" transform="translate(0)"/>
      <path d="M255.882,47.252V47.3h0A24.441,24.441,0,0,0,280.214,71.85h0a24.014,24.014,0,0,0,23.458-19.92h0c.064-.36.1-.726.148-1.092h0v-.02q-5.358-.828-10.8-1.466h0c0,.027,0,.058-.006.088h0a13.167,13.167,0,0,1-12.9,11.445h0a13.463,13.463,0,0,1-13.3-13.455h0c-3.458-.107-6.919-.181-10.383-.181h0l-.548,0" transform="translate(0)"/>
      <path d="M229.383,48.438V70.589h11.253V47.669c-3.76.2-7.513.447-11.253.769" transform="translate(0)"/>
      <path d="M181.435,56.228V70.589h11.254V53.721c-3.784.766-7.527,1.616-11.254,2.507" transform="translate(0)"/>
      <path d="M211.355,50.522V70.589h11.253V49.1c-3.766.407-7.516.894-11.253,1.425" transform="translate(0)"/>
      <path d="M166.236,62.427a4.411,4.411,0,0,1-3.387-1.132h0c-3.763,1.159-7.392,2.614-11.075,3.908h0c2.033,5.027,6.892,7.073,13.344,7.073h0c4.405,0,8.437-1.219,12.567-2.624h0l-3.1-9.1a25.7,25.7,0,0,1-8.35,1.875" transform="translate(0)"/>
      <path d="M56.705,47.232c0,14.537,9.57,24.389,24.012,24.389h0a41.476,41.476,0,0,0,16.136-3.475h0l-3.562-8.719a31.884,31.884,0,0,1-11.918,2.436h0c-6.936,0-11.819-3.377-12.568-10.595H99.1a45.58,45.58,0,0,0,.662-6.2h0c0-13.037-7.785-22.416-21.294-22.416h0c-14.355,0-21.764,10.975-21.764,24.577M78.56,31.943c6.287,0,9.476,4.6,9.57,10.5H68.805c.282-5.632,3.753-10.5,9.755-10.5" transform="translate(0)"/>
      <path d="M302.466,23.814l7.8,21.993q6.8.978,13.461,2.252h0l-8.108-24.245H302.466Z" transform="translate(0)"/>
      <path d="M369.927,23.814,359.449,56.349,347.685,23.814H337.006L327.947,48.9q5.328,1.1,10.541,2.4h0l3.733-12.6,4.47,14.761q11.5,3.227,22.409,7.393h0l13.062-37.034Z" transform="translate(0)"/>
      <path d="M256.332,42.6c2.544-.057,5.084-.1,7.605-.1h0c1.25,0,2.506.027,3.76.041h0a13.5,13.5,0,0,1,12.322-8.636h0a13.4,13.4,0,0,1,12.571,9.862h0q5.715.493,11.338,1.186h0a24.237,24.237,0,0,0-24.006-22.114h0A24.066,24.066,0,0,0,256.333,42.6" transform="translate(0)"/>
      <path d="M228.536,27.813a56.164,56.164,0,0,1,.847,7.036h0v9.356c3.737-.367,7.49-.689,11.253-.931h0V34.567c0-.282-.1-.937-.1-.937h0a28.772,28.772,0,0,1,8.448-1.22h0a23.955,23.955,0,0,1,6.189.937h0l3.378-9.66a36.151,36.151,0,0,0-8.63-1.032h0c-7.412,0-14.634,2.345-21.388,5.158" transform="translate(0)"/>
      <path d="M181.435,4.4V52.572c3.723-.945,7.47-1.849,11.254-2.662h0V35.878c3.094-1.875,7.13-3.468,10.786-3.468h0c4.691,0,7.88,3.374,7.88,8.535h0v5.534q5.6-.867,11.253-1.539h0V39.258c0-10.413-5.531-16.6-16.035-16.6h0a35.275,35.275,0,0,0-13.884,3.091h0V0L181.435,4.4Z" transform="translate(0)"/>
      <path d="M161.915,8.673l-11.247,4.4v10.8l-5.346.286v8.908l5.346.282V59.238a17.469,17.469,0,0,0,.229,2.836h0c3.636-1.35,7.308-2.654,11.028-3.867h0V33.442h13.132V23.687H161.925V8.673Z" transform="translate(0)"/>
      <path d="M105.684,26.687l3.844,8.539a34.977,34.977,0,0,1,13.038-2.816h0c2.813,0,7.88.376,7.88,4.315h0c0,8.162-29.08,1.69-29.08,20.638h0c0,10.972,12.007,14.258,21.016,14.258h0a41.864,41.864,0,0,0,6.928-.494h0q6.09-2.863,12.373-5.46h0c0-.182.02-1.761.02-3.616h0V37.944c0-10.88-7.5-15.289-17.54-15.289h0a46.489,46.489,0,0,0-18.479,4.032m8.068,29.83c0-5.249,12.85-3.441,16.694-7.1h0v9.724c0,.656.041,1.932.041,1.932h0a25.925,25.925,0,0,1-8.011,1.163h0c-4.036,0-8.724-.843-8.724-5.722" transform="translate(0)"/>
      <path d="M0,8.985v61.6H11.724V42.074H39.961V70.589H51.685V4.426L39.961,9.009V32.316H11.724V4.395L0,8.985Z" transform="translate(0)"/>
    </g>
    <line x1="385.499" y1="13.839" y2="13.839"/>
  </g>
</svg>
