<?xml version="1.0" encoding="utf-8"?>
<!-- Generator: Adobe Illustrator 23.1.1, SVG Export Plug-In . SVG Version: 6.00 Build 0)  -->
<svg version="1.0" id="Layer_1" xmlns="http://www.w3.org/2000/svg" xmlns:xlink="http://www.w3.org/1999/xlink" x="0px" y="0px"
	 viewBox="0 0 584 187" style="enable-background:new 0 0 584 187;" xml:space="preserve">
<style type="text/css">
	.st0{fill:#FFFFFF;}
</style>
<g>
	<path class="st0" d="M375.4,158.9h-3.8v27.9h17.7v-3.5h-13.9V158.9z M323.2,172.9c0-5.7,0.2-7.3,1.8-8.9c1.1-1.1,2.7-1.7,4.3-1.7
		s3.2,0.6,4.3,1.7c1.6,1.6,1.8,3.2,1.8,8.9c0,5.7-0.2,7.3-1.8,8.9c-1.1,1.1-2.7,1.7-4.3,1.7c-1.6,0-3.2-0.6-4.3-1.7
		C323.4,180.2,323.2,178.6,323.2,172.9 M322,161.7c-2.7,2.7-2.7,5.3-2.7,11.2c0,5.9,0,8.5,2.7,11.2c1.9,1.9,4.5,3,7.2,3s5.3-1,7.2-3
		c2.7-2.7,2.7-5.3,2.7-11.2c0-5.9,0-8.5-2.7-11.2c-1.9-1.9-4.5-2.9-7.2-2.9S323.9,159.8,322,161.7 M305.8,162.4
		c2.4,0,5.2,0.8,5.2,4.9c0,4-2.8,4.9-5.2,4.9h-6.5v-9.8H305.8z M306,158.9h-10.5v27.9h3.8v-11.1h6.7c5.3,0,8.8-3.4,8.8-8.4
		C314.9,162.3,311.3,158.9,306,158.9 M280.3,162.4c1.8,0,4.8,0.6,4.8,4.4c0,3.8-3,4.4-4.8,4.4h-6.8v-8.8H280.3z M280.6,158.9h-10.9
		v27.9h3.8v-12h5.7l6.2,12h4.4l-6.5-12.3c3.5-1,5.6-3.8,5.6-7.6C289,162,285.7,158.9,280.6,158.9 M263.8,158.9h-17.7v27.9h17.7v-3.5
		h-13.9v-8.8h11.8V171h-11.8v-8.6h13.9V158.9z M224.8,158.9h-4l9.2,27.9h3l9.2-27.9h-4l-6.7,20.5L224.8,158.9z M46.2,28.2
		c0,5.6-4,9.1-10.4,9.1H22.1V19.1h13.7C42.2,19.1,46.2,22.6,46.2,28.2 M68.3,28.2C68.3,11.9,55,0,36.7,0H12.8L0,30.2v57.6h22.1V56.5
		h14.6C55,56.5,68.3,44.6,68.3,28.2 M106.5,54.9H91.3l7.7-21L106.5,54.9z M118,87.8h23.2L107.1,0H90.2L56.3,87.8h23.2l5.3-14.7h28
		L118,87.8z M147.2,87.8H206V68.8h-36.7V0h-22.1V87.8z M190.4,186.8h17.7v-3.5h-13.9v-24.4h-3.8V186.8z M216.9,158.9h-3.8v27.9h3.8
		V158.9z M263.9,87.8l8.9-19.1h-35.5V0h-22.1v87.8H263.9z M336.6,129.4h22.1V41.6h-20.9l-21.5,42.1l-21.6-42.1H293l-19.2,46.7v41.1
		h22.1V88.1l13.1,24.4h14.6l13-24.3V129.4z M360.9,172.9c0,5.7-0.2,7.3-1.8,8.9c-1.1,1.1-2.7,1.7-4.3,1.7c-1.6,0-3.2-0.6-4.3-1.7
		c-1.6-1.6-1.8-3.2-1.8-8.9c0-5.7,0.2-7.3,1.8-8.9c1.1-1.1,2.7-1.7,4.3-1.7c1.6,0,3.2,0.6,4.3,1.7
		C360.7,165.5,360.9,167.1,360.9,172.9 M362,184.1c2.7-2.7,2.7-5.3,2.7-11.2c0-5.9,0-8.5-2.7-11.2c-1.9-1.9-4.5-2.9-7.2-2.9
		c-2.7,0-5.3,1-7.2,2.9c-2.7,2.7-2.7,5.3-2.7,11.2c0,5.9,0,8.5,2.7,11.2c1.9,1.9,4.5,3,7.2,3C357.6,187,360.1,186,362,184.1
		 M415.7,96.4h-15.2l7.7-21L415.7,96.4z M427.1,129.4h23.2l-34-87.8h-16.9l-33.9,87.8h23.2l5.3-14.7h28L427.1,129.4z M457.7,129.4
		h58.8v-19.1h-36.7V41.6h-22.1V129.4z M584,110.3h-36.2V41.6h-22.1v87.8h50.5L584,110.3z"/>
</g>
</svg>
