<svg xmlns="http://www.w3.org/2000/svg" viewBox="0 0 600 144.4">
  <path d="M0,1.5V78H37.7V67.8H11.1V1.6H0ZM57.8,78V1.5H99.1V11.7H69V34.2H99.1V44.4H69V67.6H99.1V78Zm96.3,1.4c-21.2,0-39.2-18.2-39.2-38.9C114.9,17,132.9,0,154.4,0c22.7,0,40.1,17.9,40.1,39.2,0,23.2-17.9,40.2-40.4,40.2M183.4,40c0-15.8-12-29.7-28.1-29.7-20.7,0-29.2,17.8-29.2,29.2,0,15.4,11.2,29.8,28.6,29.8,18.1-.1,28.7-15.4,28.7-29.3m77.1,38L222.7,18.9h-.2V78H211.4V1.5h12.2l37.2,58.2h.2V1.5h11.1V78Zm84.2,0-8.5-22.5H308.7L300.2,78H288.4l29-76.5h10l29,76.5ZM322.6,16h-.2l-9.8,29.2h19.7Zm86.7,62L384.1,42.5h-.2V78H372.7V1.5h24.5c18.4,0,26.6,9.7,26.6,25.4,0,14.6-11.2,22.2-21.9,22.5l21.4,28.5h-14ZM392.1,41c13,0,20.6-5.1,20.6-15,0-8.8-7-14.3-17-14.3H383.9V41Zm51.3,37V1.5H470c23.1,0,37.3,18.3,37.3,38.2,0,23.4-14.8,38.2-39,38.2C468.3,78,443.4,78,443.4,78Zm24.5-10.2c17.7,0,28.2-10.3,28.2-27.8,0-17.2-12.1-28.2-27.7-28.2H454.6v56Zm91.7,11.6c-21.2,0-39.2-18.2-39.2-38.9C520.4,17,538.4,0,559.9,0,582.6,0,600,17.9,600,39.2c0,23.2-17.9,40.2-40.4,40.2M588.8,40c0-15.8-12-29.7-28.1-29.7-20.7,0-29.1,17.8-29.1,29.1,0,15.4,11.2,29.8,28.6,29.8,18.1,0,28.6-15.3,28.6-29.2M217.2,109v15H202.8V109h-5.1v34.7h5.1V128.6h14.3v15.1h5.1V109Zm35.6,35.4A18.153,18.153,0,0,1,235,126.7c0-10.7,8.2-18.4,17.9-18.4a17.929,17.929,0,0,1,18.2,17.8c.1,10.6-8.1,18.3-18.3,18.3m13.3-17.9c0-7.2-5.4-13.5-12.8-13.5-9.4,0-13.2,8.1-13.2,13.2,0,7,5.1,13.5,13,13.5,8.2.1,13-6.9,13-13.2M282.9,109v4.6h6.7v30.1h5.1V113.6h6.7V109Zm32.2,0v34.7h18.7v-4.6H320.1V128.5h13.7v-4.6H320.1V113.7h13.7V109Zm35.4,0v34.7h17.1v-4.6H355.5V109Zm43.9,9a4.646,4.646,0,0,0-4.9-5,4.811,4.811,0,0,0-4.6,4.7c0,2.4,1.6,3.8,5,4.9,7.5,2.4,10.3,5.2,10.3,11.2,0,6.3-4.5,10.5-10.7,10.5s-10.6-4.4-10.7-10.9h5.1c0,3.8,2.3,6.3,5.6,6.3,3.4,0,5.6-2.4,5.6-5.9,0-2.5-1.1-4.1-4.8-5.4-8.6-2.9-10.5-5.7-10.5-10.7a9.6,9.6,0,0,1,9.7-9.5c5.7,0,9.9,3.6,10,9.7l-5.1.1Z"/>
</svg>
