<svg xmlns="http://www.w3.org/2000/svg" viewBox="0 0 499.99 117.28">
  <g>
    <path d="M17.27.21c4.29,4.01,8.32,8.29,12.53,12.4q-.03,38.76-.01,77.52c-.02,7.01-1.15,14.49-5.61,20.15a19.921,19.921,0,0,1-11.83,7Q6.245,111.43,0,105.72c4.61-.27,9.99.54,13.7-2.84,3.55-3.56,3.38-9.04,3.6-13.71C17.31,59.52,17.37,29.87,17.27.21Z" fill="#003e24"/>
    <path d="M250.75,0c3.16,3.32,6.4,6.57,9.61,9.83.8.9,1.9,1.82,1.7,3.18.04,21.6,0,43.2.02,64.8,8.34-.05,16.67.03,25.01-.05q5.49,5.85,11.07,11.64c-15.78-.17-31.56-.03-47.34-.08C250.78,59.55,250.91,29.77,250.75,0Z" fill="#003e24"/>
    <path d="M444.49,6.74c4.79-1.69,9.65,3.61,8.22,8.31-.86,4.43-6.83,6.96-10.31,3.75C438.12,15.68,439.39,8.21,444.49,6.74Z" fill="#003e24"/>
    <path d="M109.23,6.97h11.6c-.07,11.13.13,22.26-.11,33.38,3.87-4.39,9.27-7.7,15.23-7.95,5.97-.42,12.28,2.01,15.76,7.01,3.5,4.8,4.33,10.92,4.35,16.71q.015,16.6,0,33.19c-3.89.02-7.78.02-11.66.02q-.03-17.1,0-34.19c0-3.81-.81-7.92-3.6-10.72-2.74-2.78-7.13-3.28-10.7-2.02-3.78,1.27-6.57,4.28-9.26,7.08-.04,13.28-.01,26.56-.01,39.84-3.87.01-7.73.01-11.6.01Q109.215,48.14,109.23,6.97Z" fill="#003e24"/>
    <path d="M62.21,33.35c10.31-2.2,22.02.44,29.43,8.21,11.4,11.65,9.73,33.16-3.35,42.9-11.33,8.32-28.65,8.13-39.23-1.4-10.23-9.2-12.31-26.01-4.76-37.49A28.78,28.78,0,0,1,62.21,33.35m2.17,10.34a16.55,16.55,0,0,0-7.55,4.26c-6.57,6.47-6.69,17.66-1.7,25.08,6.83,10.01,24.36,8.95,29.9-1.83,3.37-6.7,3.25-15.51-1.55-21.51C79.07,44.08,71.17,41.99,64.38,43.69Z" fill="#003e24"/>
    <path d="M169.51,33.48c3.88.1,7.77.09,11.65.07-.01,2.3-.04,4.59-.05,6.89,2.86-3.01,6.21-5.68,10.24-6.9,6.68-2.18,14.76-.59,19.52,4.76,4.07,4.56,5.41,10.88,5.43,16.84q-.015,17.085-.01,34.19-5.835-.015-11.65,0c-.03-11.41,0-22.82-.01-34.23-.01-3.61-.75-7.49-3.3-10.2-2.53-2.78-6.72-3.52-10.24-2.49-4.1,1.09-7.14,4.25-9.95,7.23.03,13.23.01,26.45.01,39.68-3.89,0-7.77,0-11.66.02C169.48,70.72,169.44,52.1,169.51,33.48Z" fill="#003e24"/>
    <path d="M294.19,49.26a24.464,24.464,0,0,1,16.85-15.74c7.53-1.92,16.32-1.02,22.33,4.27,7.37,6.59,8.96,17.13,9.07,26.51q-19.335-.015-38.66,0c1.12,4.78,3.24,9.73,7.65,12.34,6.89,4.06,15.63,3.04,22.67-.11,2.37,2.4,4.81,4.74,7.29,7.03a36.259,36.259,0,0,1-28.24,6.23,25.179,25.179,0,0,1-16.22-11.65,34.517,34.517,0,0,1-2.74-28.88m14.74-3.25c-2.68,2.18-3.92,5.51-4.91,8.71q13.47-.015,26.96-.01c-.48-2.7-1.07-5.52-2.91-7.65C323.52,41.4,314.25,41.5,308.93,46.01Z" fill="#003e24"/>
    <path d="M344.54,33.43c4.15.11,8.3.1,12.46.05,4.68,11.17,9.73,22.18,14.18,33.44,4.86-11.04,9.21-22.3,13.9-33.42q4.29.015,8.6-.03c3.76,8.92,7.41,17.89,11.12,26.84.9,2.08,1.47,4.38,2.99,6.14,4.55-11.07,9.33-22.05,14.06-33.05,4.11.12,8.23.09,12.34.06-8.41,18.96-16.55,38.03-24.9,57.01l-3.4-.04c-5.6-13.23-10.86-26.61-16.65-39.76-5.14,13.35-10.83,26.48-16.21,39.74l-3.38.08C361.22,71.5,352.95,52.43,344.54,33.43Z" fill="#003e24"/>
    <path d="M440.77,33.44c3.87.07,7.75.07,11.62-.04.09,18.64.01,37.28.04,55.93q-5.835-.015-11.66-.01Q440.77,61.375,440.77,33.44Z" fill="#003e24"/>
    <path d="M468.07,36.24c8.75-6.02,20.57-3.84,29.34,1.07-.03,3.9-.03,7.8.02,11.69-5.69-3.66-12.4-7.15-19.38-5.99-2.96.45-4.87,4.29-2.7,6.66,4.31,4.66,10.5,6.87,15.65,10.41,4.49,2.82,8.61,7.1,8.99,12.67v2.42a15.99,15.99,0,0,1-11.01,14.06c-8.93,2.87-18.64.34-26.64-4.03.02-4.21.02-8.43-.04-12.64,6.32,4.15,13.64,8.65,21.53,7.26,3.87-.51,5.83-5.63,2.85-8.38-6.39-6.09-15.87-8.33-21.24-15.66C460.93,49.98,462.12,40.61,468.07,36.24Z" fill="#003e24"/>
  </g>
</svg>
