<svg xmlns="http://www.w3.org/2000/svg" viewBox="0 0 216.331 66.627">
  <g>
    <g>
      <path d="M212.187,57.135h2.484V45.043H212.1v7.83l-5.6-7.831H203.85V57.134h2.567V49.013ZM196.668,51.1a3.68,3.68,0,0,1-3.38,3.958c-.1.008-.2.011-.3.011a3.665,3.665,0,0,1-3.675-3.657,2.537,2.537,0,0,1,.013-.312,3.657,3.657,0,0,1,3.328-3.958c.111-.01.223-.015.334-.014a3.67,3.67,0,0,1,3.692,3.65,2.888,2.888,0,0,1-.012.322m-9.99,0a6.07,6.07,0,0,0,5.88,6.254h.43a6.075,6.075,0,0,0,6.325-5.814q.011-.219,0-.438a6.077,6.077,0,0,0-5.889-6.259h-.439a6.072,6.072,0,0,0-6.308,5.828q-.009.215,0,.429m-13.846,4.332a6.968,6.968,0,0,0,5.131,1.921c3.262,0,4.841-1.666,4.841-3.879,0-2.683-2.538-3.28-4.532-3.736-1.4-.326-2.412-.579-2.412-1.4,0-.725.615-1.232,1.777-1.232A5.158,5.158,0,0,1,181.1,48.43l1.433-1.885a6.724,6.724,0,0,0-4.713-1.686c-2.846,0-4.588,1.63-4.588,3.643,0,2.7,2.539,3.246,4.514,3.7,1.4.325,2.448.633,2.448,1.541,0,.689-.689,1.359-2.1,1.359a5.312,5.312,0,0,1-3.845-1.632Zm-11.369,1.7h7.689V54.865h-5.12V45.04h-2.573ZM154.284,51.1a3.68,3.68,0,0,1-3.382,3.958c-.1.008-.2.011-.3.011a3.668,3.668,0,0,1-3.674-3.658,2.513,2.513,0,0,1,.013-.311,3.657,3.657,0,0,1,3.328-3.958c.111-.01.222-.015.333-.014a3.672,3.672,0,0,1,3.694,3.65,2.888,2.888,0,0,1-.012.322m-9.99,0a6.07,6.07,0,0,0,5.88,6.254h.428a6.074,6.074,0,0,0,6.325-5.812c.007-.146.007-.293,0-.44a6.075,6.075,0,0,0-5.887-6.259H150.6a6.072,6.072,0,0,0-6.306,5.828q-.009.215,0,.429m-7.108,6.035h2.593V45.04h-2.6v4.749h-5.711V45.04H128.9V57.132h2.574V52.056h5.711Zm-17.7.217a5.614,5.614,0,0,0,5.149-2.972l-2.211-1.071a3.279,3.279,0,0,1-2.938,1.759,3.747,3.747,0,0,1-3.709-3.792q0-.09.006-.18a3.749,3.749,0,0,1,3.517-3.966q.091,0,.183-.006a3.312,3.312,0,0,1,2.938,1.758l2.211-1.085a5.58,5.58,0,0,0-5.149-2.957,6.121,6.121,0,0,0-6.343,5.892c0,.122-.006.243,0,.365a6.121,6.121,0,0,0,5.982,6.255h.364m-13.459-.217h2.575V45.04h-2.575Zm-7.6,0h2.484V45.04H98.343v7.833l-5.6-7.831H90.1V57.134H92.67V49.013Z" fill="#fff"/>
      <path d="M204.009,37.449h4.022V14.128h8.3V10.583h-20.66v3.545h8.338Zm-34.078-3.786c2.3,2.536,5.8,4.269,10.592,4.269,7.25,0,10.15-3.907,10.15-8.1,0-5.72-5.117-7.09-9.5-8.258-3.344-.845-6.244-1.611-6.244-4.028,0-2.254,2.055-3.785,5.035-3.785a10.474,10.474,0,0,1,7.774,3.142l2.337-2.98a13.173,13.173,0,0,0-9.788-3.75c-5.6,0-9.507,3.223-9.507,7.653,0,5.477,5,6.727,9.306,7.855,3.423.885,6.484,1.691,6.484,4.511,0,1.932-1.531,4.149-5.882,4.149a11.328,11.328,0,0,1-8.457-3.786Zm-23.845,3.786h18.045V33.9H150.118V25.527h13.734V21.982H150.118V14.129h14.013V10.584H146.09ZM134.571,18.84a4.646,4.646,0,0,1-4.565,4.725q-.215,0-.429-.012h-6.766V14.128h6.766a4.646,4.646,0,0,1,4.982,4.284c.01.143.014.285.012.428m-.321,18.609h4.668L132.031,26.7a7.5,7.5,0,0,0,6.687-7.855c0-4.953-3.5-8.257-8.619-8.257H118.783V37.449h4.028V27.1h5.035Zm-32.181.483a12.2,12.2,0,0,0,10.674-5.68l-3.424-1.813a8.516,8.516,0,0,1-7.25,3.909c-5.438,0-9.626-4.31-9.626-10.311,0-6.042,4.188-10.311,9.626-10.311a8.517,8.517,0,0,1,7.25,3.907l3.424-1.812a12.151,12.151,0,0,0-10.674-5.68A13.453,13.453,0,0,0,88.29,23.258q-.009.391,0,.783a13.451,13.451,0,0,0,12.992,13.9q.392.014.783,0" fill="#fff"/>
    </g>
    <g>
      <path d="M18.243,56.709l-1.394,2.1c-.162.24-.183.38.047.532l.16.106-.153.232c-.225-.162-.454-.317-.689-.472s-.46-.3-.7-.455l.153-.23.163.109c.225.15.353.085.514-.155l1.133-1.7a3.52,3.52,0,0,1-.788-.016l.261-.392a5.841,5.841,0,0,0,.826.034Z" fill="#c59d58"/>
      <path d="M24.536,60.842c-.137.452,0,.752.346.857s.674-.083.808-.529-.016-.793-.374-.9-.641.093-.78.57m-.828,1.111.348.1c-.108.413,0,.627.359.738.545.16.849-.116,1.1-.885a.877.877,0,0,1-.889.134,1,1,0,0,1-.718-1.368,1.085,1.085,0,0,1,1.3-.82,1.071,1.071,0,0,1,.2.068c.842.248,1.074.88.754,1.965s-.93,1.49-1.8,1.232a3.61,3.61,0,0,1-.867-.434Z" fill="#c59d58"/>
      <path d="M40.415,62.473c.119.468.413.674.777.578s.509-.411.39-.872c-.126-.477-.393-.677-.754-.581a.636.636,0,0,0-.413.875m1.353-1.691-.364.1c-.116-.433-.322-.56-.731-.454-.488.127-.615.529-.472,1.288a.966.966,0,0,1,.7-.552,1,1,0,0,1,1.261.641,1.019,1.019,0,0,1,.039.172,1.1,1.1,0,0,1-.717,1.381,1.052,1.052,0,0,1-.183.041c-.819.214-1.363-.2-1.637-1.234-.291-1.126.01-1.812.888-2.042a3.2,3.2,0,0,1,1.022-.073Z" fill="#c59d58"/>
      <path d="M48.531,59.3a.1.1,0,0,0,.02.029.5.5,0,0,0,.785.217.575.575,0,0,0,.287-.762.5.5,0,0,0-.039-.072c-.219-.349-.543-.382-1.012-.1l-.217-.351.016-.01c.423-.264.548-.552.362-.849a.53.53,0,0,0-.787-.1.471.471,0,0,0-.257.613.48.48,0,0,0,.092.143c.014.02.027.041.039.062l-.32.194-.432-.7a3,3,0,0,1,.739-.622c.664-.413,1.169-.367,1.472.122a.655.655,0,0,1-.153.907.773.773,0,0,1,1,.354c.338.545.154,1.035-.545,1.466a3.758,3.758,0,0,1-.9.4l-.467-.751Z" fill="#c59d58"/>
      <path d="M21.881,39.826c.269.008.434.016.338.189s-.491.065-.633.369.3.237.273.449-.281.574-.091.7a.54.54,0,0,0,.624.057c.308-.122.269.18.581.2s.31-.269.32-.384-.016-.312.162-.32.222.2.238.286.118.672.475.556.294-.8.294-.8-.171-.811.034-.878.335.411.335.411.1.375.369.229.173-.588.173-.588a6.024,6.024,0,0,1-.282-1.162c.051-.149.175-.354.364-.108s.212.318.4.214.155-.672.155-.672-.18-1.382,0-1.6.336-.261.508-.14a.768.768,0,0,1,.268.788c-.074.392-.4,1.374-.153,1.653s.45-.018.532-.181.214-.122.255-.024.114.173-.165.589-.377,1.015-.18,1.123a.354.354,0,0,0,.479-.146.4.4,0,0,0,.035-.1c.09-.271.149-.532.362-.4s.015.671.015.671-.457.934-.008,1.121.53-.335.53-.335a2.178,2.178,0,0,0,.052-.377c0-.147.024-.369.162-.336s.179.189.155.336,0,.671.313.63.367-.237.529-.294.2.09.336.106.322.057.442-.065a.433.433,0,0,0,.1-.524c-.093-.286-.042-.336.1-.442s.24-.2.124-.418a.538.538,0,0,0-.539-.253c-.175.024-.2.024-.214-.116s.269-.211.418-.22.318.065.434-.353-.842-.31-.951-.441-.152-.237,0-.344.313.041.54-.057.281-.246.238-.41a.528.528,0,0,0-.581-.442c-.418.026-.728.255-.8.034s.294-.336.318-.336a.2.2,0,0,0,.166-.086A.2.2,0,0,0,29.853,37c-.065-.253-.4-.3-.483-.32a1.724,1.724,0,0,0-.729.108,1.585,1.585,0,0,1-1.391-.108,2.517,2.517,0,0,1-.392-.387,5.676,5.676,0,0,0,1.229-.418,1.187,1.187,0,0,0,1.232.442.6.6,0,0,0,.336-.4,2.7,2.7,0,0,1-1.1-1.645.592.592,0,0,0-.481.148.951.951,0,0,0-.184,1.085,5.088,5.088,0,0,1-1.164.388,1.188,1.188,0,0,1,.044-.7,3.377,3.377,0,0,1,1.058-.95s.7-.459.6-.86-.326-.23-.459-.131-.277.181-.369.049.2-.426.2-.426.294-.237.754-.573.335-.687.284-.752a.417.417,0,0,0-.589.027l-.025.03c-.292.287-.5.147-.557.047s0-.294.23-.473.6-.442.458-.868a.3.3,0,0,0-.481-.18L27.7,30.4c-.056.09-.211.057-.269-.033a.5.5,0,0,1-.008-.442c.083-.149.17-.379-.031-.483s-.207.023-.3.016-.186.016-.222-.3a.413.413,0,0,0-.362-.349.342.342,0,0,0-.385.263s.011.333-.145.323-.2-.106-.261-.139a.2.2,0,0,0-.269.049.463.463,0,0,0,.008.452c.072.186.222.5.072.571s-.377-.139-.465-.214a.377.377,0,0,0-.455,0,.407.407,0,0,0-.073.568.413.413,0,0,0,.094.088c.263.206.645.434.491.671s-.336.067-.475-.041a.46.46,0,0,0-.581.034.512.512,0,0,0-.009.725.444.444,0,0,0,.056.05,8.768,8.768,0,0,0,1.048.7s.273.147.142.369-.486.024-.486.024-.268-.212-.439.024.157.614.157.614a4.587,4.587,0,0,0,.961.712,1.029,1.029,0,0,1,.494,1.2s-.013.018-.026.041a5.206,5.206,0,0,1-1.172-.39.943.943,0,0,0-.183-1.084.594.594,0,0,0-.48-.149,2.728,2.728,0,0,1-1.1,1.647.589.589,0,0,0,.335.4,1.181,1.181,0,0,0,1.232-.444,5.159,5.159,0,0,0,.994.361,2.277,2.277,0,0,1-.463.225,10.205,10.205,0,0,1-1.6.382c-.33.067-.9.214-.86.55s.5.206.5.206.181-.083.181.114-.312.2-.312.2a1.541,1.541,0,0,1-.352-.043c-.181-.051-.653-.09-.818.18s-.181.557.122.565.942.018.9.312-.486.163-.486.163-.849-.245-1,.222.222.508.49.514" fill="#c59d58"/>
      <path d="M29.942,35.6a2.251,2.251,0,0,0,1.027-.994,1.075,1.075,0,0,0,.069-.558.166.166,0,0,0,.028-.225.18.18,0,0,0-.217-.062,1.081,1.081,0,0,0-.535-.168,2.3,2.3,0,0,0-1.346.558,2.29,2.29,0,0,0,.976,1.449" fill="#c59d58"/>
      <path d="M21.731,34.614a2.215,2.215,0,0,0,1.028.994,2.3,2.3,0,0,0,.978-1.449,2.3,2.3,0,0,0-1.35-.556,1.115,1.115,0,0,0-.537.168.177.177,0,0,0-.214.064.159.159,0,0,0,.029.224,1.1,1.1,0,0,0,.065.557" fill="#c59d58"/>
      <path d="M43.881,40.541a1.2,1.2,0,1,1,0-2.395h0a1.2,1.2,0,0,1,1.2,1.188v.012a1.193,1.193,0,0,1-1.191,1.2h-.009m.668-3.659V29.211H43.168v.88h-.015l-.735.008v.674h-.737V30.1L40.2,30.093v.68h.741v.679H40.2v.679h.741v.679H40.2v.681l1.479-.008v-.672h.734v.672l.735.008.015.011v3.4a2.554,2.554,0,0,0,.712,5.009h0a2.559,2.559,0,0,0,2.561-2.557h0a2.553,2.553,0,0,0-1.893-2.464" fill="#c59d58"/>
      <path d="M36.867,32.966a1.2,1.2,0,1,1,0-2.395h0a1.2,1.2,0,0,1,1.2,1.2h0a1.2,1.2,0,0,1-1.2,1.2m2.2,5.34h-.736V37.64l-.738-.007-.011-.011v-3.4a2.555,2.555,0,0,0-.714-5.01h0a2.555,2.555,0,0,0-.664,5.025V41.9h1.379v-.88h.011l.738-.008v-.671h.733v.671l1.479.008v-.679h-.751v-.681h.744v-.679h-.744V38.3h.744v-.677l-1.479.007Z" fill="#c59d58"/>
      <path d="M39.649,58.479c-.188.018-.377.036-.578.036a4.9,4.9,0,0,1-2.881-.793,5.634,5.634,0,0,0-5.761,0,4.871,4.871,0,0,1-2.877.793c-.139,0-.354-.015-.537-.034a22.635,22.635,0,0,1-3.808-5.03,3.882,3.882,0,0,1,1.462.63,5.626,5.626,0,0,0,5.759,0,5.63,5.63,0,0,1,5.761,0,5.633,5.633,0,0,0,5.763,0,3.942,3.942,0,0,1,1.5-.638,22.37,22.37,0,0,1-3.8,5.037M33.336,62.8a21.908,21.908,0,0,1-2.789-1.515A5.7,5.7,0,0,1,36.1,61.3a22.072,22.072,0,0,1-2.768,1.5m-13.8-23.445V28.491H32.919V42.406a4.638,4.638,0,0,0-2.491.782,5.632,5.632,0,0,1-5.76,0,4.9,4.9,0,0,0-2.881-.8,6.165,6.165,0,0,0-1.622.209s-.189.064-.393.142a26.125,26.125,0,0,1-.237-3.235Zm25.3,10.289a4.9,4.9,0,0,0-2.881.793,5.651,5.651,0,0,1-5.765,0,5.63,5.63,0,0,0-5.761,0,5.631,5.631,0,0,1-5.759,0,4.887,4.887,0,0,0-2.877-.793c-.114,0-.225.008-.333.015A30.044,30.044,0,0,1,20.4,46.173a6.069,6.069,0,0,1,1.389-.163,4.887,4.887,0,0,1,2.877.793,5.626,5.626,0,0,0,5.759,0,5.63,5.63,0,0,1,5.761,0,5.633,5.633,0,0,0,5.763,0,4.9,4.9,0,0,1,2.881-.793,6.172,6.172,0,0,1,1.4.165,29.367,29.367,0,0,1-1.049,3.486c-.116,0-.228-.015-.353-.015m2.254-10.119a26.443,26.443,0,0,1-.227,3.218c-.209-.078-.4-.144-.4-.144a6.228,6.228,0,0,0-1.624-.209,4.887,4.887,0,0,0-2.881.8,5.638,5.638,0,0,1-5.763,0A4.616,4.616,0,0,0,33.7,42.41V28.491h13.38V39.522m.785-.194V27.7H18.749v11.64c0,.163-.357,17.721,14.424,24.257l.16.07.16-.07C48.276,57.062,47.88,39.5,47.873,39.328" fill="#c59d58"/>
      <path d="M14.558,27.216a3.445,3.445,0,0,0,.3,1.355c-1.3-.594-.811-3.049-1.947-3.049a.9.9,0,0,0-.824.715c-.07-.32-.085-1.089.5-1.089a1.681,1.681,0,0,1,.674.224,3.147,3.147,0,0,1-.524-2.548,4.19,4.19,0,0,0,.787,1.387,1.26,1.26,0,0,0,.459-.78c-.008.966.811,1.415.839,2.306a1.679,1.679,0,0,0,.535-1.426c0-.8-.4-1.484.142-2.683v-.01a3.391,3.391,0,0,1,.357,1.8c1.082-.4,1.118-2.435,1.118-2.435a.617.617,0,0,1,.41-.149c.69,0,.69,1.861-.888,2.544a.528.528,0,0,0,.393.163,4.085,4.085,0,0,0,1.6-.444c-.392,1.346-2.1,1.315-2.7,2.494a10.7,10.7,0,0,1,2.246-.18,1.2,1.2,0,0,1-.827.429,2.235,2.235,0,0,1,.943.277,2.269,2.269,0,0,1,.672.836c-.685.274-1.586-.77-1.586-.77a1.377,1.377,0,0,1-.369.814c-.07-.4-.3-.965-.921-.965-.336,0-1.4.139-1.4,1.187M14.9,39.778a.941.941,0,0,0,.984-.274,1.755,1.755,0,0,0,.4-.953,2.53,2.53,0,0,1,.509,1.441c0,.893-1.063,1.219-1.107,1.222-.308,1-.1,4.191.96,4.191a.8.8,0,0,0,.85-.584,1.369,1.369,0,0,1-.981,1.565,6.43,6.43,0,0,1,1.162,2.26.924.924,0,0,1-.483.919c1.3,1.706,1.126,2.494,1.116,2.912-1.028-.37-1.231-1.864-1.183-2.331-.015,0-1.955.276-2.391-.983a2.963,2.963,0,0,0,2.043.3s-.65-.323-.65-.831a.789.789,0,0,1,.514-.713,9.1,9.1,0,0,0-.676-1.529,3.9,3.9,0,0,1-.651-1.7l-.189-2.478a2.5,2.5,0,0,0-.987-1.883,2.875,2.875,0,0,1-1.147-2.786c.379.841.85,2.089,1.9,2.234m10.8-14.1-.077-.3a4.371,4.371,0,0,1-3.354,1.8,1.835,1.835,0,0,1-2.012-1.482,1.608,1.608,0,0,1-.994-1.258,2.027,2.027,0,0,0,.457-.08.96.96,0,0,0,.767-.738,1.459,1.459,0,0,0-.465-1.3c1.436.45.876,1.684.806,2.073a1.233,1.233,0,0,1,1.214-.435,1.014,1.014,0,0,1,.633.488l.013.023a1.451,1.451,0,0,0-1.165.186c-.032.027-.063.055-.093.085l-.031.042a.606.606,0,0,0-.108.2.208.208,0,0,0-.024.047v.016a1.118,1.118,0,0,0-.028.264c0,.831.9,1.229,1.83,1.229A3.663,3.663,0,0,0,25.5,24.912l-.008-.041-.48-1.914a16,16,0,0,1-2.393,3.153c-.258.039-1.035-.214-1.035-.813a.618.618,0,0,1,.587-.646h.051a2.25,2.25,0,0,1,1.139.527,1.654,1.654,0,0,0-2.1-1.557,1.553,1.553,0,0,0-2.1-1.578,1.579,1.579,0,0,1,1.009,1.345c0,.3-.276.65-.86.65a3.582,3.582,0,0,1-.661-.077c.121.219.184.308.323.527a1.912,1.912,0,0,0,1,1.518,2.9,2.9,0,0,0,.831,1.208,3.263,3.263,0,0,1-1.33.669l-.552.137a6.017,6.017,0,0,1-1.136.111c-1.2,0-1.882-.53-1.882-.95,0-.375.184-.449.335-.449.462,0,.3.552.313.831a1.062,1.062,0,0,0,.827-.778,2.483,2.483,0,0,0,2.433.31c-.26-.131-.508-.271-.757-.4a2.493,2.493,0,0,0-.9-.907,1.274,1.274,0,0,0,.79-.769,9.513,9.513,0,0,0-2.31.129,4.2,4.2,0,0,0,2.437-2.443,1.021,1.021,0,0,0-.728.02,2.681,2.681,0,0,0,.539-1.629c0-.937-1.123-1.67-1.6-1.852-.091-.343.059-.429.059-.842,0-.6-.906-1.451-1.294-1.892,0,0-.029.633-.029,1a2.174,2.174,0,0,0-.232.89s-.266.144-.687-.467c-.367-.526-.529-.521-.689-.542,0,.344-.135.792-.135,1.066,0,1.348.873,1.038.873,1.683,0,.279-.468.455-.738.566a.908.908,0,0,0,.561.184c.331,0,.5-.176.987-.176a.635.635,0,0,1,.674.548,2.047,2.047,0,0,1-.517,1.488,6.792,6.792,0,0,0-.589-1.838,4.778,4.778,0,0,0-.617,1.923c0,.71.148.823.148,1.608a1.109,1.109,0,0,1-.111.61c-.124-.411-.65-.623-.65-1.709a1.775,1.775,0,0,0-.674-1.453,2.9,2.9,0,0,1-.111,1.766c-.6-.751-.612-1.609-.989-1.786.1.862-.184.987-.184,1.673a4.419,4.419,0,0,0,.274,1.258c-.157,0-.9-.06-.9,1.111a2.265,2.265,0,0,0,.432,1.324c.046-.25.217-1.425.829-1.425.65,0,.193,1.616,1.273,2.7a2.114,2.114,0,0,0,1.02.586c-.446.349-1.808.637-1.888,1.954a1.967,1.967,0,0,1,1.918.072,1.472,1.472,0,0,1-1.35.557,1.044,1.044,0,0,1-.973-1.1,1.375,1.375,0,0,1,.268-.816,2.243,2.243,0,0,0-1.753.878,1.924,1.924,0,0,0-2.876,1.606c.38-.269,1.916-.472,1.916.749,0,.4-.61.747-1,.925v.021c.911.039.787.4,1.4.4A5.852,5.852,0,0,0,13.4,33.2c-.222,1.3-1.583,1.585-2.107,2.109a3.483,3.483,0,0,0-.758,1.867,4.465,4.465,0,0,1,2.084-.519,5.694,5.694,0,0,0-.134,1.2c0,3.119,2.393,2.708,2.321,4.875a7.532,7.532,0,0,0,1.333,5,.943.943,0,0,0-.594,1.159l-.023.02a3.52,3.52,0,0,1-1.593-.588c.552.744.467,1.327.906,1.766a2.365,2.365,0,0,0,1.906.529s.059,1.954,1.786,2.164a5.64,5.64,0,0,0,.067-1.022,3.45,3.45,0,0,0-.935-2.12,1.114,1.114,0,0,0,.428-.757,3.479,3.479,0,0,0-.907-2.306,1.892,1.892,0,0,0,.769-1.665,1.714,1.714,0,0,0-.57-1.5s-.15.777-.769.777c-.432,0-.749-1.053-.744-1.8a2.111,2.111,0,0,1,.157-.867,1.52,1.52,0,0,0,1.19-1.48,2.552,2.552,0,0,0-1.33-2.322c.054.181.431,1.3-.628,1.3-.725,0-.935-1.02-1.007-1.528a1.546,1.546,0,0,1,1.077.258,4.449,4.449,0,0,1-.8-1.846,1.672,1.672,0,0,1,.5-1.206c.134.769.2,2.04.829,2.515a1.372,1.372,0,0,0,.129-.581,2.109,2.109,0,0,0,2.4,1.007c-.281-.516-.836-.947-.708-1.653a1.89,1.89,0,0,0,1.242-.592v-.352c-.519-.02-1.683-.168-1.683-1.146a3.005,3.005,0,0,1,1.683-2.424v-.261a2.576,2.576,0,0,0-.225-.374,2.238,2.238,0,0,1-1.077,1.217A2.234,2.234,0,0,1,18.39,30.3l-.01-.01a1.545,1.545,0,0,1-2.127.08.938.938,0,0,1,1.31-.2l.036.028c-.08-.38-.348-.958.06-1.268a2.85,2.85,0,0,0,1.253.454l.375-1.244,2.014.016,2.345-.284a18.642,18.642,0,0,0,2.063-2.105Z" fill="#c59d58"/>
      <path d="M50.67,26.031c-.625,0-.85.565-.919.963a1.346,1.346,0,0,1-.369-.813s-.9,1.045-1.588.769a2.3,2.3,0,0,1,.671-.834,2.256,2.256,0,0,1,.948-.277,1.211,1.211,0,0,1-.832-.429,10.719,10.719,0,0,1,2.247.18c-.6-1.178-2.3-1.147-2.693-2.494a4.052,4.052,0,0,0,1.6.444.518.518,0,0,0,.39-.165c-1.577-.682-1.577-2.544-.885-2.544a.616.616,0,0,1,.408.15s.031,2.035,1.115,2.433a3.4,3.4,0,0,1,.361-1.8v.011c.539,1.2.142,1.885.142,2.683a1.677,1.677,0,0,0,.537,1.426c.025-.893.847-1.342.837-2.306a1.252,1.252,0,0,0,.46.779,4.267,4.267,0,0,0,.787-1.386,3.15,3.15,0,0,1-.527,2.546,1.705,1.705,0,0,1,.676-.224c.586,0,.571.772.5,1.089a.9.9,0,0,0-.824-.713c-1.134,0-.648,2.455-1.945,3.049a3.445,3.445,0,0,0,.3-1.355c0-1.048-1.056-1.187-1.394-1.187m2.952,11.511a2.866,2.866,0,0,1-1.151,2.784,2.507,2.507,0,0,0-.982,1.883L51.3,44.683a3.931,3.931,0,0,1-.651,1.7,9.227,9.227,0,0,0-.681,1.531.779.779,0,0,1,.517.713c0,.508-.648.832-.648.832a2.974,2.974,0,0,0,2.043-.3c-.433,1.257-2.379.984-2.391.981.046.468-.153,1.962-1.185,2.332-.008-.418-.18-1.206,1.118-2.912a.924.924,0,0,1-.485-.919,6.515,6.515,0,0,1,1.162-2.26,1.369,1.369,0,0,1-.979-1.565.8.8,0,0,0,.847.584c1.064,0,1.267-3.194.963-4.191-.046,0-1.1-.33-1.1-1.222a2.526,2.526,0,0,1,.5-1.441,1.821,1.821,0,0,0,.4.955.95.95,0,0,0,.987.273c1.049-.145,1.523-1.394,1.9-2.234M40.886,25.784a18.687,18.687,0,0,0,2.066,2.107l2.345.284,2.014-.018.375,1.245a2.875,2.875,0,0,0,1.252-.454c.41.31.14.888.059,1.268a.936.936,0,0,1,1.316.131l.03.039a1.542,1.542,0,0,1-2.123-.08l-.01.01a2.239,2.239,0,0,1,.775,1.756,2.241,2.241,0,0,1-1.077-1.217,2.97,2.97,0,0,0-.222.372v.261a3.013,3.013,0,0,1,1.681,2.425c0,.976-1.162,1.126-1.681,1.146v.353a1.884,1.884,0,0,0,1.24.591c.129.708-.429,1.138-.707,1.655,1.869.219,2.353-.947,2.391-1.007a1.447,1.447,0,0,0,.13.579c.635-.475.7-1.745.827-2.515a1.665,1.665,0,0,1,.506,1.206,4.446,4.446,0,0,1-.793,1.847,1.54,1.54,0,0,1,1.077-.259c-.07.508-.284,1.529-1.007,1.529-1.059,0-.681-1.121-.63-1.3a2.548,2.548,0,0,0-1.328,2.322,1.519,1.519,0,0,0,1.19,1.48,2.093,2.093,0,0,1,.155.867c0,.744-.312,1.8-.743,1.8-.614,0-.772-.779-.772-.779a1.725,1.725,0,0,0-.566,1.5,1.9,1.9,0,0,0,.769,1.665,3.485,3.485,0,0,0-.907,2.3,1.1,1.1,0,0,0,.429.759,3.44,3.44,0,0,0-.94,2.118,5.154,5.154,0,0,0,.072,1.023c1.727-.211,1.784-2.164,1.784-2.164a2.365,2.365,0,0,0,1.908-.529c.439-.441.351-1.023.906-1.768a3.536,3.536,0,0,1-1.6.589l-.021-.02a.942.942,0,0,0-.594-1.159,7.557,7.557,0,0,0,1.335-5c-.075-2.169,2.318-1.758,2.318-4.875a5.816,5.816,0,0,0-.132-1.206,4.479,4.479,0,0,1,2.084.521,3.491,3.491,0,0,0-.754-1.87c-.524-.525-1.885-.813-2.105-2.109a5.839,5.839,0,0,0,2.466,1.147c.612,0,.486-.362,1.4-.4v-.021c-.387-.18-1-.526-1-.925,0-1.221,1.539-1.018,1.919-.751a1.925,1.925,0,0,0-2.874-1.606,2.252,2.252,0,0,0-1.756-.878,1.375,1.375,0,0,1,.268.816,1.044,1.044,0,0,1-.973,1.1,1.483,1.483,0,0,1-1.351-.555,1.962,1.962,0,0,1,1.919-.07c-.082-1.32-1.441-1.606-1.892-1.955a2.127,2.127,0,0,0,1.023-.586c1.079-1.08.623-2.695,1.273-2.695.61,0,.779,1.173.829,1.423a2.249,2.249,0,0,0,.429-1.322c0-1.172-.741-1.111-.9-1.111a4.45,4.45,0,0,0,.277-1.258c0-.687-.291-.811-.189-1.674-.375.178-.387,1.038-.984,1.787a2.847,2.847,0,0,1-.111-1.768,1.782,1.782,0,0,0-.676,1.454c0,1.085-.524,1.3-.653,1.709a1.1,1.1,0,0,1-.108-.61c0-.785.147-.9.147-1.608a4.778,4.778,0,0,0-.617-1.923,6.849,6.849,0,0,0-.589,1.836,2.064,2.064,0,0,1-.516-1.487.635.635,0,0,1,.676-.55c.488,0,.654.176.984.176a.928.928,0,0,0,.565-.184c-.269-.111-.738-.287-.738-.565,0-.645.875-.336.875-1.683,0-.274-.137-.723-.137-1.066-.162.02-.323.016-.689.54-.424.612-.689.468-.689.468a2.187,2.187,0,0,0-.23-.889c0-.364-.028-1-.028-1-.39.441-1.3,1.3-1.3,1.893,0,.413.153.5.06.841-.481.183-1.6.917-1.6,1.854a2.692,2.692,0,0,0,.535,1.629,1.029,1.029,0,0,0-.729-.021,4.217,4.217,0,0,0,2.44,2.445,9.3,9.3,0,0,0-2.308-.129,1.283,1.283,0,0,0,.788.769,2.493,2.493,0,0,0-.9.907c-.247.129-.5.269-.759.4a2.475,2.475,0,0,0,2.433-.31,1.064,1.064,0,0,0,.831.777c.011-.277-.148-.831.31-.831.15,0,.339.077.339.45,0,.419-.689.948-1.887.948a5.965,5.965,0,0,1-1.131-.111l-.555-.137a3.217,3.217,0,0,1-1.327-.667,2.986,2.986,0,0,0,.827-1.209,1.915,1.915,0,0,0,1-1.516c.139-.22.2-.308.325-.527a3.656,3.656,0,0,1-.659.075c-.588,0-.86-.348-.86-.648a1.577,1.577,0,0,1,1.007-1.345,1.553,1.553,0,0,0-2.1,1.578,1.653,1.653,0,0,0-2.106,1.555,2.257,2.257,0,0,1,1.141-.527.618.618,0,0,1,.637.6.384.384,0,0,1,0,.048c0,.6-.775.85-1.035.811a15.817,15.817,0,0,1-2.389-3.148l-.481,1.914-.011.042a3.674,3.674,0,0,0,2.445,1.619c.932,0,1.831-.4,1.831-1.226a1.033,1.033,0,0,0-.029-.266v-.023a.417.417,0,0,0-.026-.046.591.591,0,0,0-.109-.2.207.207,0,0,0-.034-.044.564.564,0,0,0-.093-.083,1.432,1.432,0,0,0-1.16-.188c0-.007.01-.013.01-.021a1,1,0,0,1,.636-.486,1.223,1.223,0,0,1,1.209.437c-.069-.388-.63-1.624.811-2.074a1.452,1.452,0,0,0-.47,1.3.954.954,0,0,0,.769.736,1.932,1.932,0,0,0,.459.082,1.615,1.615,0,0,1-1,1.258,1.828,1.828,0,0,1-2.012,1.48,4.37,4.37,0,0,1-3.354-1.8l-.072.3Z" fill="#c59d58"/>
      <path d="M30.053,20.765c-.328.031-.653.07-.978.108-.178.021-.349.044-.521.067-.379.051-.754.106-1.129.17l.2,1.2c.357-.06.718-.114,1.079-.163.171-.024.346-.047.519-.067.31-.036.623-.073.935-.1Z" fill="#c59d58"/>
      <path d="M33.553,20.616h-.222c-.1,0-.2.007-.3.007-.367,0-.731.015-1.1.028l.059,1.211c.344-.015.69-.023,1.036-.028.1,0,.2-.007.3-.007h.222c.361,0,.721.015,1.082.028l.056-1.209c-.38-.015-.757-.028-1.139-.029" fill="#c59d58"/>
      <path d="M33.031,22.352c-.34,0-.679.013-1.017.025-.173.008-.349.01-.522.02-.111,0-.222.02-.333.026-.318.02-.635.042-.945.072s-.614.064-.922.1l.126.942c.29-.036.588-.07.885-.1s.609-.052.919-.072c.1-.007.212-.018.315-.024.173-.008.349-.011.522-.02.323-.011.648-.021.973-.023Z" fill="#c59d58"/>
      <path d="M33.031,25.3c-.3,0-.586.011-.878.021-.176.008-.351.011-.524.02l-.282.023c-.287.018-.574.041-.863.065-.271.024-.542.057-.814.09l.121.942c.261-.033.522-.062.785-.086s.555-.046.834-.064c.086,0,.178-.016.264-.021.173-.008.349-.01.524-.02.279-.01.555-.018.836-.02Z" fill="#c59d58"/>
      <path d="M29.154,25.584c-.317.042-.632.091-.943.145-.1.015-.189.034-.284.049-.17.033-.344.059-.514.1l-.057.008c-.173.034-.341.072-.512.108l-.09.021.214.925a.5.5,0,0,0,.067-.016c.173-.039.344-.073.514-.108l.039-.006c.171-.034.341-.062.514-.093.09-.016.178-.033.266-.047.3-.051.6-.1.906-.137Z" fill="#c59d58"/>
      <path d="M28.776,22.663q-.535.07-1.059.16l-.333.062c-.173.029-.346.057-.519.09-.036.008-.073.013-.109.021-.171.034-.343.072-.511.109-.049.011-.1.023-.152.033l.214.927c.043-.01.083-.023.129-.031.17-.036.343-.075.513-.108l.1-.016c.17-.034.343-.06.514-.093l.317-.059c.338-.055.681-.108,1.02-.153Z" fill="#c59d58"/>
      <path d="M34.54,23.851c-.328-.013-.651-.026-.983-.028h-.226c-.1,0-.2.007-.3.007-.317,0-.633.013-.948.026-.173.007-.352.008-.524.02l.046.947c.173-.008.348-.011.521-.02.3-.01.6-.02.906-.023.1,0,.2-.007.3-.007h.225c.317,0,.628.013.937.025.179,0,.352.008.524.016l.047-.947c-.176-.01-.351-.013-.525-.016" fill="#c59d58"/>
      <path d="M27.14,24.423l-.083.015c-.173.036-.343.074-.513.111-.041.008-.082.018-.119.024-.17.039-.341.078-.509.119-.039.01-.077.02-.117.028l-.126-.508c.042-.011.085-.021.126-.029l-.211-.925c-.051.01-.1.021-.145.033l-.127-.509.155-.036c.168-.039.34-.08.508-.118l.16-.036c.171-.037.341-.075.512-.109L26.4,21.3c-.17.033-.344.07-.511.106-.06.016-.119.031-.181.042l-.511.119c-.06.013-.121.026-.176.041-.173.041-.344.075-.514.118l.3,1.18.126.508.228.922.132.508.228.924.124.506.23.924c.17-.044.343-.08.511-.121l.068-.016-.21-.924-.085.018-.129-.508c.029-.008.067-.016.1-.023.168-.041.336-.08.512-.118.031-.006.064-.015.1-.024.17-.036.339-.073.509-.108l.065-.01Z" fill="#c59d58"/>
      <path d="M31.011,23.913c-.22.016-.442.029-.661.051-.289.026-.578.06-.863.1-.178.02-.349.042-.521.064-.338.047-.671.1-1,.155l-.307.055.175.93.291-.051q.482-.081.966-.149c.171-.023.346-.046.519-.065.279-.033.553-.065.832-.09.214-.021.426-.034.641-.051Z" fill="#c59d58"/>
      <path d="M36.531,20.765c.328.031.654.07.981.108.173.021.344.044.519.067.377.051.754.106,1.129.17l-.2,1.2c-.361-.06-.72-.114-1.084-.163-.173-.024-.344-.047-.519-.067-.31-.036-.622-.073-.937-.1Z" fill="#c59d58"/>
      <path d="M33.549,22.352c.341,0,.679.013,1.014.025.178.008.352.01.527.02.109,0,.219.02.33.026.317.02.635.042.95.072s.609.064.917.1l-.122.942c-.294-.036-.589-.07-.885-.1s-.614-.052-.92-.072c-.106-.007-.211-.018-.317-.024-.175-.008-.346-.011-.522-.02-.323-.011-.645-.021-.971-.023Z" fill="#c59d58"/>
      <path d="M33.545,25.3c.3,0,.588.011.88.021.173.008.351.011.522.02l.282.023c.289.018.576.041.863.065s.54.057.813.09l-.117.942c-.261-.033-.524-.062-.785-.086s-.558-.046-.836-.064c-.086,0-.176-.016-.264-.021-.173-.008-.351-.01-.522-.02-.277-.01-.558-.018-.837-.02Z" fill="#c59d58"/>
      <path d="M37.431,25.584q.475.064.945.145c.093.015.188.034.281.049.173.033.344.059.516.1l.057.008c.171.034.343.072.512.108l.088.021-.21.925a.43.43,0,0,1-.069-.016c-.173-.039-.341-.073-.517-.108L39,26.81c-.171-.034-.344-.062-.514-.093-.088-.016-.178-.033-.268-.047-.3-.051-.6-.1-.906-.137Z" fill="#c59d58"/>
      <path d="M37.8,22.663q.535.07,1.062.16l.333.062c.171.029.346.057.517.09.034.008.073.013.109.021.173.034.341.072.514.109l.147.033-.211.927c-.046-.01-.086-.023-.132-.031-.168-.036-.34-.075-.509-.108-.031-.007-.064-.011-.095-.016-.171-.034-.344-.06-.517-.093l-.318-.059c-.339-.055-.682-.108-1.023-.153Z" fill="#c59d58"/>
      <path d="M28.455,27.178c.294-.049.589-.094.886-.137.173-.023.346-.046.519-.064.253-.031.509-.06.766-.083s.545-.047.822-.064c.085-.007.168-.015.251-.02.175-.01.348-.015.524-.021q.407-.015.813-.02h.51c.269,0,.542.01.813.02.173.007.349.011.521.021.085,0,.168.013.256.02.273.016.548.036.824.064.253.023.509.052.762.083.171.018.344.041.516.064.3.042.6.088.89.137Z" fill="#c59d58"/>
      <path d="M41.56,21.6c-.06-.013-.121-.026-.178-.042l-.512-.116c-.06-.013-.118-.028-.181-.044-.17-.036-.338-.072-.511-.106l-.247,1.188.511.109.157.036c.171.038.339.078.509.118l.155.036-.129.509c-.044-.011-.095-.021-.142-.033l-.211.925a1.048,1.048,0,0,1,.126.029l-.126.508c-.041-.008-.082-.018-.116-.028l-.513-.119c-.039-.007-.078-.016-.117-.024-.171-.038-.341-.075-.514-.111a.577.577,0,0,1-.083-.015l-.174.935.065.01c.17.034.341.072.512.109.034.008.065.016.1.023.171.038.339.078.509.118l.1.023-.124.508-.088-.018-.212.925a.393.393,0,0,1,.068.015c.17.041.341.077.511.121l.23-.924.127-.506.229-.924.129-.508.23-.922.124-.508.3-1.18c-.168-.042-.34-.077-.511-.118" fill="#c59d58"/>
      <path d="M35.57,23.913c.217.016.439.029.658.051.29.026.581.06.87.1.172.02.346.042.517.064.338.047.669.1,1,.155l.307.055-.173.93c-.1-.016-.193-.034-.294-.051-.32-.054-.64-.1-.965-.149-.171-.023-.344-.046-.521-.065-.274-.033-.55-.065-.831-.09-.212-.021-.424-.034-.637-.051Z" fill="#c59d58"/>
      <path d="M29.656,10.943a.321.321,0,0,1-.3-.134c.46-.056.653-.41,1.007-.622-.047.344-.17.756-.7.756m13.269,7.2c-.129.033-.3.095-.382-.044-.437-.6-.534-.415-.757-.637a.356.356,0,0,1-.01-.441c-.338-.175-.774.1-1.01.1-.617,0-.88-1.575-.888-1.612,1.064-.243,2.735-.824,2.735-2.014a1.6,1.6,0,0,0-.406-1.154c0-.291.281-.415.454-.566a.906.906,0,0,0-1.25.282.917.917,0,0,0-.087.178,2.591,2.591,0,0,0-1.108-.129.325.325,0,0,1,.077-.437.637.637,0,0,0-.974.488l-.49.072c-.209-.224-.082-.354-.018-.506-.516-.248-.989.333-1.044.674-.016.013-.2.046-.291.078-.176-.109-.052-.333.073-.441a.91.91,0,0,0-1.085.666,3.618,3.618,0,0,1-.773.121c-.224,0-.415-.242-.539-.46-.269-.45.4-1.462.937-1.462.56,0,.818.522,1.591.522a1.309,1.309,0,0,0,.829-.248A2.785,2.785,0,0,0,38.3,10.9c.307-.152.914.258,1.24.258a2.447,2.447,0,0,0,1.146-.227,1.433,1.433,0,0,0-.24-.258c.486-.129,1.17-.287,1.443-.73-.674.062-.868-.175-1.441-.175a5.211,5.211,0,0,1-.9.052,1.146,1.146,0,0,0,.238-.674,3.24,3.24,0,0,1-.979.186c-.3,0-.553-.075-.77-.075a2.957,2.957,0,0,0-2.324,1.063,2.236,2.236,0,0,0-1.358,2.171,1.238,1.238,0,0,0,1.209,1.183c.852,0,4.42-.872,5.054-.872s1.067.294,1.067.6c0,1.071-1.511,1.143-3.388,1.143-1.337,0-2.776.029-3.041.033-.61.008-3.365-.147-3.365-.147l-.016-.4a.741.741,0,0,0,.589-.488.778.778,0,0,1-.38-.615c0-.393.118-.5.118-.919,0-.4-.419-.483-.419-.62,0-.088.14-.225.14-.431,0-.157-.046-.224-.046-.32,0-.178.145-.191.145-.384,0-.264-.124-.375-.248-.6a.769.769,0,0,0,.207-.832.63.63,0,0,1-.565.22.874.874,0,0,0-.109-.6c-.713.832-2.417.943-2.593,1.387-.139.352-1,.653-1,.79,0,.2.139.3.181.465a1.291,1.291,0,0,1,1.085.619l.006.011a2.065,2.065,0,0,1,.157.274l.1.194-.2.09a.882.882,0,0,1-.893-.175l-.232-.131H27.85c-.114.119-.4.1-.4.251,0,.3.383.228.475.318s0,.093,0,.2.194.124.194.222c0,.194-.085.4-.429.4-.021-.042-1.87-2.215-1.9-2.251-.186-.291-.049-.8,0-1.131-.075-.328-.344-.852-.632-.852a.494.494,0,0,0-.313.077.651.651,0,0,1,.129.281,1.68,1.68,0,0,0-.468.715,1.327,1.327,0,0,0-.437-.155.79.79,0,0,0-.5.2c-.433-.055-.64.411-.637.669a.544.544,0,0,1,.542.091c.148.15.06.269.222.356a.931.931,0,0,0-.622.973,1.152,1.152,0,0,0,.155.5c.357-.075.411-.287.607-.287.077,0,.106.025.217.025.179,0,.356-.08.583-.08.191,0,.242.113.242.225,0,.193-.268.073-.268.646,0,.2.15.328.055.568.362.073.637-.23.829-.452.114.348-.232.663-.1.989.184.051.5-.194.686-.1.057.26-.111.491-.029.749.142-.062.183.033.331.033a.51.51,0,0,0,.375-.193c.155.4-.176.651-.286.891a.572.572,0,0,0,.411.2c.2,0,.23-.144.361-.155.163.166-.075.33-.082.5a.977.977,0,0,0,.948-.064.635.635,0,0,1-.379.816.526.526,0,0,1-.109.033c-.2.263.263.266.227.526-.06.108-1.421,2.657-1.492,2.778a.567.567,0,0,1-.282.072c-.264,0-.279-.245-.811-.245-.47,0-1.054.421-1.054.865a.841.841,0,0,0,.167.575A.6.6,0,0,1,24.8,21.2c.075.148.008.38.17.478l.1-.029c.029-.1.139-.248.23-.248.114,0,.15.049.15.129l.987-.016c0-.049.1-.214.224-.214.362,0,.524.263.832.139l.5-.317a.444.444,0,0,0,.122-.339c0-.2-.155-.294.052-.574a1.541,1.541,0,0,1,.5.464.756.756,0,0,0,.217-.53c0-.214-.209-.356-.179-.548.188.108.468.034.64.168a.4.4,0,0,0,.233-.331c0-.193-.251-.264-.188-.516a1.188,1.188,0,0,1,.769.059c.261-.184.054-.53.031-.69a.713.713,0,0,0,.939-.365.73.73,0,0,0,.048-.159c-.108-.039-.322-.162-.322-.325a5.284,5.284,0,0,0,2.992-.586,6.954,6.954,0,0,0-.124.943c0,.909,1.128,1.325,1.768,1.257l-1.954,1.263a.614.614,0,0,0-.116.571l1.624-.067a.946.946,0,0,0,1.093-.08c-.109-.067-.279-.1-.279-.251s.119-.217.175-.289c.091.14.189.346.367.346.227,0,.506-.059.591-.3-.3-.224,0-.421-.171-.765.207-.144.4.2.666.2a.532.532,0,0,0,.589-.447c-.078-.039-.318-.007-.318-.145,0-.279-.108-.206-.108-.343,0-.186.135-.085.135-.353,0-.3-.94-.351-1.062-.568-.06-.1.052-.245.117-.336-.043-.209-.467-.421-.059-.708a2.055,2.055,0,0,0,.525.942c.8.8,2.778.126,2.778,1.2,0,.759-.286,1.288-1.139,1.288-1.1,0-1.348.565-1.466.935l1.577.429c.333-.415.986-.157,1.126-.259.023.209-.14.583.06.7l.917-.163c.184-.263-.049-.539-.091-.8.145-.212.292-.052.491-.052.32,0,.661-.424.687-.8a.587.587,0,0,1-.388.145.8.8,0,0,1-.555-.419c0-.131-.011-.287.271-.287.2,0,.242.054.463.054a.821.821,0,0,0,.756-.5.865.865,0,0,1-.674-.4c.038-.033.9-.375.808-.632" fill="#c59d58"/>
      <path d="M27.957,11.748c.322.116.6.5.994.323a1.156,1.156,0,0,0-1.131-.79,1.517,1.517,0,0,1-.925-.525c-.14.8.663,1.028,1.063.992" fill="#c59d58"/>
      <path d="M5.146,43.873l.162.375-.042.018c-.379.163-.468.413-.3.818.25.583.813.744,1.565.421s1.033-.867.787-1.436c-.176-.419-.431-.5-.868-.317l-.16-.369.827-.356A3.748,3.748,0,0,1,7.724,44a1.507,1.507,0,0,1-.9,2.187,1.537,1.537,0,0,1-2.2-.906,3.669,3.669,0,0,1-.258-1.077Z" fill="#c59d58"/>
      <path d="M4,37.108l-.026-.24c-.052-.452-.212-.646-.592-.6s-.519.261-.465.7l.029.264Zm-1.469-.064c-.106-.911.073-1.363.7-1.436a.694.694,0,0,1,.8.478c.007-.3.15-.392.465-.519a2.032,2.032,0,0,0,.643-.291.4.4,0,0,0,.1-.349V34.9l.277-.031.109.955a9.731,9.731,0,0,1-1.081.437c-.2.1-.268.268-.235.555l.03.25.724-.083c.287-.033.4-.114.372-.384l-.007-.065.273-.031c.018.25.052.5.078.744s.059.5.095.749L5.6,38.03l-.007-.064c-.034-.263-.161-.318-.452-.284l-1.818.209c-.289.034-.4.116-.369.38v.064l-.276.031Z" fill="#c59d58"/>
      <path d="M2.967,26.853,3.839,27l-.046.294-.142-.022c-.3-.049-.39.111-.457.493l-.106.637.986.166.031-.181c.059-.341.011-.439-.34-.506l.049-.277,1.147.194-.051.277c-.341-.041-.419.024-.473.346l-.031.2,1.094.186.1-.578c.085-.517.036-.641-.511-.746l.046-.291.991.168L5.69,29.954l-.273-.047.01-.06c.046-.279-.077-.354-.353-.4l-1.81-.3c-.281-.049-.415,0-.458.263l-.01.062-.263-.046Z" fill="#c59d58"/>
      <path d="M6.711,19.286l-.178.362a.8.8,0,0,0-.091-.049c-.357-.173-.6-.069-.8.323-.162.34-.09.635.163.756.2.1.37.037.591-.165l.527-.485a.9.9,0,0,1,1.059-.248c.548.264.671.827.3,1.59a5.1,5.1,0,0,1-.624.984l-.816-.393.167-.346c.026.013.046.029.064.038.375.18.667.042.881-.4.168-.354.106-.622-.175-.759-.206-.1-.356-.047-.568.137l-.5.439c-.419.362-.739.488-1.12.307-.517-.248-.65-.811-.3-1.554A4.943,4.943,0,0,1,5.9,18.9Z" fill="#c59d58"/>
      <path d="M9.825,13.079l.584-.663c.073-.083.291-.34.661-.759l.725.643-.23.258-.06-.054c-.31-.276-.449-.246-.7.046l-.153.171,1.593,1.415c.217.193.354.224.534.024l.072-.083.207.186c-.183.193-.362.392-.535.588s-.356.4-.524.607l-.209-.184.073-.083c.178-.2.131-.333-.087-.526l-1.6-1.415-.188.211c-.233.264-.241.416.021.651l.1.085-.217.248L9.166,13.8c.361-.406.584-.643.656-.721" fill="#c59d58"/>
      <path d="M23.04,4.035l2.006,2.1L24.411,4.3c-.091-.273-.189-.367-.449-.281l-.059.02-.088-.261c.214-.068.426-.132.638-.2s.432-.15.648-.228l.088.263-.059.02c-.255.085-.281.222-.186.5l.8,2.393-.844.284-2-2.092.623,1.825c.093.274.191.372.45.287l.057-.021.091.263c-.217.062-.431.132-.646.2s-.428.145-.641.229l-.09-.263.062-.021c.251-.085.282-.228.193-.5l-.588-1.74c-.088-.272-.2-.364-.452-.279l-.057.02-.088-.263Z" fill="#c59d58"/>
      <path d="M31.709,2.343c.245-.015.5-.031.746-.051l.02.277h-.07c-.268.015-.328.14-.313.428l.095,1.83c.015.29.09.411.356.4h.067l.021.276c-.251,0-.5.016-.749.028s-.5.028-.752.049L31.115,5.3h.062c.269-.015.328-.142.313-.431L31.4,3.042c-.016-.287-.093-.4-.356-.39h-.064l-.016-.277c.253-.007.5-.015.754-.026" fill="#c59d58"/>
      <path d="M41.041,4.224l-.4-.085a.191.191,0,0,1,.012-.047c.085-.4-.067-.62-.5-.712-.615-.134-1.077.227-1.25,1.033s.113,1.343.718,1.472c.444.1.661-.06.761-.527l.4.083-.191.883a3.856,3.856,0,0,1-1.149-.072,1.5,1.5,0,0,1-1.26-2A1.547,1.547,0,0,1,40.2,2.981,3.75,3.75,0,0,1,41.23,3.4Z" fill="#c59d58"/>
      <path d="M47.643,5.781c.212.119.439.238.658.356l-.137.243-.059-.034c-.23-.131-.349-.059-.494.191l-.333.594,1.165.656.334-.592c.142-.251.142-.39-.091-.521l-.055-.033.135-.243c.215.127.434.256.653.38s.434.24.656.357l-.136.242-.055-.031c-.235-.131-.353-.059-.491.191l-.9,1.6c-.142.25-.145.4.09.526l.054.031-.135.242c-.212-.132-.434-.255-.65-.377s-.436-.245-.661-.359l.137-.243.06.034c.23.131.353.055.5-.2l.372-.667L47.1,7.468l-.375.668c-.14.251-.145.393.087.526l.064.031-.14.242c-.211-.13-.433-.255-.645-.375s-.437-.246-.663-.361l.137-.242.054.031c.233.129.352.054.5-.2l.9-1.6c.142-.251.142-.39-.093-.521l-.055-.031.14-.243c.214.129.431.257.65.382" fill="#c59d58"/>
      <path d="M54.2,12.554c-.607.57-.713,1.1-.341,1.5s.906.33,1.515-.245.723-1.093.344-1.5-.906-.326-1.518.246m1.688,1.807a1.5,1.5,0,0,1-2.12.19,1.539,1.539,0,0,1-.211-.216,1.681,1.681,0,1,1,2.559-.179,1.5,1.5,0,0,1-.228.2" fill="#c59d58"/>
      <path d="M60.837,18.979c.114.233.238.465.361.69l-.248.129-.065-.129c-.118-.238-.258-.245-.514-.114l-1.909.963.207.4c.23.459.351.537.84.3l.136.269-.9.452-1.126-2.226.248-.124.028.057c.122.238.264.242.522.111l1.634-.827c.259-.129.335-.245.214-.483l-.028-.057.246-.124c.116.24.233.481.352.715" fill="#c59d58"/>
      <path d="M63.049,28.632l-.078-.4a.672.672,0,0,0,.1-.016c.392-.075.529-.307.444-.733-.072-.369-.3-.565-.578-.511-.225.044-.322.193-.379.485l-.134.7a.9.9,0,0,1-.7.832c-.6.116-1.028-.264-1.193-1.1a5.152,5.152,0,0,1-.085-1.156l.886-.176.075.375a.478.478,0,0,1-.075.008c-.4.08-.561.369-.47.847.078.385.292.563.594.5.222-.044.315-.171.374-.445l.142-.653c.116-.54.3-.832.708-.914.566-.111,1.009.263,1.165,1.069a4.771,4.771,0,0,1,.068,1.1Z" fill="#c59d58"/>
      <path d="M62.7,35.245c-.832-.08-1.3.193-1.35.734s.352.9,1.188.974,1.3-.179,1.35-.734-.354-.9-1.188-.974m-.238,2.461a1.616,1.616,0,1,1,1.843-1.755,1.541,1.541,0,0,1-1.843,1.756" fill="#c59d58"/>
      <path d="M62.105,44.918l-2.9.116,1.8.738c.266.113.4.1.5-.15l.028-.059.255.109c-.091.2-.181.406-.268.612s-.175.423-.256.638l-.256-.109.023-.057c.1-.246.016-.356-.246-.467l-2.329-.979.349-.821,2.889-.119-1.781-.736c-.266-.114-.408-.1-.512.147l-.024.059-.256-.109c.1-.2.186-.411.271-.619s.176-.415.256-.632l.256.108-.024.059c-.1.246-.018.362.248.473l1.689.712c.268.111.408.09.511-.157l.026-.055.251.106Z" fill="#c59d58"/>
      <path d="M55.258,51.861a.757.757,0,1,1,.09,1.071h0a.757.757,0,0,1-.085-1.067" fill="#c59d58"/>
      <path d="M11.488,51.966a.758.758,0,1,1-1.078-.082l.007-.006a.757.757,0,0,1,1.07.087h0" fill="#c59d58"/>
      <path d="M60.162,33.313a26.851,26.851,0,1,0-32.691,26.2,6.654,6.654,0,0,1-1.5-1.578,25.7,25.7,0,1,1,14.5.057c-.45.442-.845,1.023-1.3,1.523a26.893,26.893,0,0,0,21-26.2" fill="#c59d58"/>
      <path d="M1.154,33.31A32.159,32.159,0,1,1,33.312,65.473,32.158,32.158,0,0,1,1.154,33.31M0,33.313A33.313,33.313,0,1,0,33.31,0,33.313,33.313,0,0,0,0,33.313" fill="#c59d58"/>
    </g>
  </g>
</svg>
