<svg xmlns="http://www.w3.org/2000/svg" viewBox="0 0 397.249 84.336">
  <g>
    <path d="M372.02.7V43.788h25.229V38.23h-19V24.835h17.8V19.278h-17.8V6.258h18.44V.7H372.02M59.982.7,48.155,30.394,36.082.7h-5.9L18.173,30.394,6.221.7H0L17.533,44.169H18.74L33.1,8.915,47.337,44.169h1.206L66.14.7H59.983m74.552,43.114h6.228V.729h-6.228ZM339.51,26.344,334.8,23.5a23.082,23.082,0,0,1-6.173-5.252,9.586,9.586,0,0,1-2.095-6.11,10.569,10.569,0,0,1,3.551-8.265,13.508,13.508,0,0,1,9.306-3.14,16.7,16.7,0,0,1,9.957,3.03v7q-4.684-4.479-10.08-4.48a8.355,8.355,0,0,0-4.992,1.4,4.274,4.274,0,0,0-1.955,3.606,4.973,4.973,0,0,0,1.275,3.488,19.452,19.452,0,0,0,4.794,3.684l4.916,2.788c5.286,3.138,7.749,7.135,7.749,11.985a11.076,11.076,0,0,1-3.528,8.46,12.422,12.422,0,0,1-9.033,3.24,19.244,19.244,0,0,1-11.694-3.966V33.131c3.35,4.22,7.226,6.239,11.63,6.239a7.287,7.287,0,0,0,4.855-1.523,5.1,5.1,0,0,0,2-4.04c0-2.624-1.96-5.11-5.764-7.463M102,25.809,95.013,10.2,88.528,25.809ZM92.89.729h4.36l19.431,43.34h-6.35L104.556,31.3H86.066l-5.415,12.77H74.275L92.89.73Zm65.47,0h36.318V6.211h-15.04V43.816h-6.225V6.211H158.36V.729m63.727,5.217h-1.861v13.6h2.357q4.718,0,6.469-.8a6.061,6.061,0,0,0,2.73-2.423,6.993,6.993,0,0,0,.975-3.685,6.567,6.567,0,0,0-1.085-3.687,5.812,5.812,0,0,0-3.055-2.327,22.164,22.164,0,0,0-6.53-.679ZM213.9,43.79V.7h10.982q6.576,0,10.44,3.238a10.84,10.84,0,0,1,3.86,8.758,11.194,11.194,0,0,1-1.89,6.509,10.981,10.981,0,0,1-5.316,4.1,19.223,19.223,0,0,1,4.063,3.7,76.4,76.4,0,0,1,5.517,8.173c1.51,2.447,2.785,4.286,3.694,5.52l2.3,3.086h-7.464s-1.994-3.118-2.18-3.366l-3.128-4.845-2.314-3.362a35.023,35.023,0,0,0-3.523-4.282,12.68,12.68,0,0,0-2.764-2.206,10.438,10.438,0,0,0-4.455-.694H220.1V43.79ZM285.3,5.86a16.862,16.862,0,0,0-12.224,4.626A15.711,15.711,0,0,0,268.286,22.3a15.432,15.432,0,0,0,4.8,11.6,17.9,17.9,0,0,0,24.124-.094,15.722,15.722,0,0,0,4.849-11.747,15.366,15.366,0,0,0-4.849-11.519A16.521,16.521,0,0,0,285.3,5.86ZM285.049,0a23.368,23.368,0,0,1,16.72,6.323,20.908,20.908,0,0,1,6.68,15.85,20.579,20.579,0,0,1-6.74,15.775q-6.741,6.244-17,6.244a22.671,22.671,0,0,1-16.32-6.244,20.769,20.769,0,0,1-6.523-15.65,21.221,21.221,0,0,1,6.57-15.975Q275.006,0,285.049,0ZM129.838,68.42h-2.615v5.4h2.765c1.866,0,3.154-.83,3.154-2.743q0-2.655-3.3-2.657Zm-5.113,15.086V66.221h5.547a5.7,5.7,0,0,1,3.965,1.335,4.588,4.588,0,0,1,1.478,3.581,4.806,4.806,0,0,1-.738,2.7,4.367,4.367,0,0,1-2.095,1.66,9.731,9.731,0,0,1-3.777.525h-1.882v7.487Zm29.326-7.24-2.8-6.25-2.6,6.25ZM150.4,66.221h1.746l7.782,17.36h-2.544l-2.312-5.114h-7.407L145.5,83.581h-2.554Zm44.395,0h14.569v2.2h-6.033V83.506h-2.5V68.42H194.8v-2.2m40.434,0h2.36v17.26h-2.138L223.759,70.186V83.479h-2.336V66.221h2.012l11.794,13.407V66.221m17.025,0h9.839v2.2h-7.355v5.262h7.107V75.9h-7.107v5.361h7.592v2.2H252.254V66.222m-76.6,2.1h-.745V73.77h.943a7.028,7.028,0,0,0,2.591-.321A2.591,2.591,0,0,0,179.93,71a2.47,2.47,0,0,0-1.66-2.408,8.913,8.913,0,0,0-2.615-.272Zm-3.282,15.16V66.221h4.4a6.292,6.292,0,0,1,4.181,1.3,4.338,4.338,0,0,1,1.547,3.508,4.474,4.474,0,0,1-.758,2.607,4.4,4.4,0,0,1-2.129,1.643,7.669,7.669,0,0,1,1.627,1.483,30.84,30.84,0,0,1,2.212,3.274q.694,1.135,1.48,2.212l.919,1.234h-2.99s-.8-1.248-.872-1.347l-1.255-1.941-.927-1.348a13.87,13.87,0,0,0-1.412-1.713,5.025,5.025,0,0,0-1.1-.884,4.187,4.187,0,0,0-1.786-.279h-.647V83.48h-2.485Z" fill="#5c8018" fill-rule="evenodd"/>
    <path d="M278.493,68.979h-.745v5.448h.944a7.069,7.069,0,0,0,2.592-.32,2.594,2.594,0,0,0,1.485-2.449,2.466,2.466,0,0,0-1.66-2.407A8.916,8.916,0,0,0,278.493,68.979Zm-3.282,15.16V66.879h4.4a6.3,6.3,0,0,1,4.18,1.3,4.339,4.339,0,0,1,1.548,3.509,4.489,4.489,0,0,1-.758,2.607,4.405,4.405,0,0,1-2.13,1.643,7.672,7.672,0,0,1,1.628,1.483,30.764,30.764,0,0,1,2.211,3.274c.6.98,1.114,1.717,1.479,2.212l.92,1.234H285.7s-.8-1.248-.873-1.347l-1.254-1.941-.927-1.348a14.076,14.076,0,0,0-1.411-1.714,4.991,4.991,0,0,0-1.107-.883,4.158,4.158,0,0,0-1.784-.279H277.7v7.512h-2.486ZM305.1,76.908l-1.889-1.142a8.6,8.6,0,0,1-2.528-2.123,4,4,0,0,1-.752-2.4,4.23,4.23,0,0,1,1.423-3.31,5.326,5.326,0,0,1,3.7-1.273,7.013,7.013,0,0,1,3.988,1.214v2.8A5.77,5.77,0,0,0,305,68.88a3.358,3.358,0,0,0-2,.56,1.7,1.7,0,0,0-.782,1.434,2.2,2.2,0,0,0,.576,1.452,7.252,7.252,0,0,0,1.854,1.421l1.9,1.116q3.174,1.888,3.175,4.8a4.383,4.383,0,0,1-1.4,3.37,5.12,5.12,0,0,1-3.633,1.3A7.666,7.666,0,0,1,300,82.764v-3.14a5.854,5.854,0,0,0,4.659,2.538,2.941,2.941,0,0,0,1.945-.646,2.024,2.024,0,0,0,.776-1.62q0-1.575-2.286-2.988M96.406,80.6c-1.6,1.815-5.177,2.371-6.022.537-1-2.166.877-3.582,2.386-4.475C92.77,76.657,95.56,79.677,96.406,80.6ZM93.5,69.153A1.918,1.918,0,0,1,95.6,70.608a2.63,2.63,0,0,1-.971,2.271,8.219,8.219,0,0,1-1.3.992,6.429,6.429,0,0,1-1.312-1.577,3.125,3.125,0,0,1-.468-1.523A1.8,1.8,0,0,1,93.5,69.153Zm5.826,11.093a14.658,14.658,0,0,0,2.175-4.78l-2.145,0a15.992,15.992,0,0,1-1.451,3.252L94.77,75.316c1.545-.893,3.1-2.534,3.053-4.445a3.6,3.6,0,0,0-1.284-2.746,4.606,4.606,0,0,0-3.128-1.077,4.345,4.345,0,0,0-3.1,1.1,3.45,3.45,0,0,0-1.13,2.867c.1,1.38.8,2.45,2.128,3.967a16.37,16.37,0,0,0-1.637,1.088c-1.471,1.211-2.424,2.542-2.071,4.728.232,1.438,1.384,3.282,4.292,3.5a7.72,7.72,0,0,0,6-2.194l1.942,2.03h3.136l-3.647-3.893Z" fill="#5c8018" fill-rule="evenodd"/>
  </g>
</svg>
