<svg xmlns="http://www.w3.org/2000/svg" viewBox="0 0 1243.959 334.046">
  <g>
    <path d="M310.259,329h-76.6l-56.3-117.4c-30.7,16.7-48.3,55.4-79.5,81a183.874,183.874,0,0,1-57.6,32.5c-10.5,3.5-28.3,8.1-35,8.8-2.8.3-4.8.2-5.2-.9-.3-.8.5-1.4,3.4-2.8,3.4-1.6,17.5-7.5,26.3-13.6,11-7.7,17.3-16,17.8-22.4-3-10.7-24.6-34.3-2.5-77.8,7.9-15.6,14.8-26.8,19.7-38.1,5.6-13,9.6-31.2,11-44.8.1-.8.2-.8.7-.3,10.7,10.9,52.3,53.7,46.3,96.3,13.8-5.3,37.8-21.5,48.9-30.1,11.7-9.1,19.3-18.6,31.7-18.8,11.1-.2,12,5.1,20.9,6.3a13.845,13.845,0,0,0,7.1-1c.7-.3.5-1.1-.5-1.3-12-2.8-14.9-12.6-30.5-12.6-14,0-25.1,12.8-33.1,18.1l-39.3-82c-16.7-34.2-11.7-59.1,24.4-108.1Z" fill="#d8b464"/>
    <g>
      <path d="M1243.959,235,1207.5,191.786c19.184-4.335,30.885-15.308,30.885-34.409,0-21.54-18.368-32.377-41.633-32.377h-72.789V235h19.32V193.411h43.265L1219.877,235Zm-100.68-92.931h54.013c13.334,0,21.225,6.231,21.225,16.663,0,10.7-8.3,17.61-21.225,17.61h-54.013Z" fill="#d8b464"/>
      <path d="M468.823,125,411.959,235h21.85l12.079-24.52h64.735L522.7,235h22.257L488.1,125ZM454.3,193.411l23.886-48.362,23.885,48.362Z" fill="#d8b464"/>
      <path d="M646.493,140.366c18.233,0,33.2,6.784,40.819,18.859l15.647-10.447C692.074,133.582,672.753,123,646.629,123c-42.315,0-66.67,27.542-66.67,58.068,0,30.39,24.355,57.932,66.67,57.932,26.26,0,45.445-10.582,56.33-25.778L687.312,202.64c-7.62,11.939-22.586,18.858-40.819,18.858-28.437,0-46.805-15.873-46.805-40.566s18.368-40.566,46.805-40.566" fill="#d8b464"/>
      <path d="M821.493,140.366c18.1,0,33.2,6.784,40.819,18.859l15.647-10.447C867.074,133.582,847.753,123,821.629,123c-42.315,0-66.67,27.542-66.67,58.068,0,30.39,24.355,57.932,66.67,57.932,26.124,0,45.445-10.582,56.33-25.778l-15.647-10.447c-7.62,11.94-22.586,18.859-40.819,18.859-28.437,0-46.805-15.874-46.805-40.566s18.368-40.7,46.805-40.7" fill="#d8b464"/>
      <path d="M996.459,123c-42.207,0-66.5,27.542-66.5,58.068,0,30.39,24.293,57.932,66.5,57.932s66.5-27.542,66.5-57.932c0-30.526-24.157-58.068-66.5-58.068m0,98.77c-28.364,0-46.686-16.01-46.686-40.838S968.1,140.1,996.459,140.1s46.687,16.009,46.687,40.837c.134,24.828-18.187,40.838-46.687,40.838" fill="#d8b464"/>
    </g>
  </g>
</svg>
