<svg xmlns="http://www.w3.org/2000/svg" viewBox="0 0 585.6 125.3">
  <g>
    <path d="M204,50.1c0-12.4-8.7-21.1-22-21.1H152.4V96.4h11.8V71.2h11.7l15,25.2h13.6L188,69.9C196.1,68.5,204,62.1,204,50.1ZM164.2,60.8V39.4h16.2c6.7,0,11.5,4.2,11.5,10.7s-4.8,10.7-11.5,10.7Z" fill="#ca0928"/>
    <path d="M219.6,96.3h46.1V85.9H231.4V67.2h30.2V56.8H231.4V39.4h34.3V28.9H219.6Z" fill="#ca0928"/>
    <path d="M307.6,28.9H282.5V96.3h25.1c21,0,35.3-13.8,35.3-33.6S328.6,28.9,307.6,28.9Zm0,57H294.4V39.4h13.2c15.1,0,23.1,10.3,23.1,23.3C330.7,75.4,322.2,85.9,307.6,85.9Z" fill="#ca0928"/>
    <path d="M409.6,50.1c0-12.4-8.7-21.1-22-21.1H358V96.4h11.8V71.2h11.7l15,25.2h13.6L393.6,69.9C401.7,68.5,409.6,62.1,409.6,50.1ZM369.8,60.8V39.4H386c6.7,0,11.5,4.2,11.5,10.7S392.7,60.8,386,60.8Z" fill="#ca0928"/>
    <path d="M572.4,28.9l-13.1,52-13.9-52H536l-13.9,52-13.2-52H495.7L515,96.3h12.6l13-49.7,13.2,49.7h12.6l19.2-67.4Z" fill="#ca0928"/>
    <path d="M454.9,27.8a34.9,34.9,0,1,0,34.9,34.9h0a34.868,34.868,0,0,0-34.836-34.9Zm0,57a22.15,22.15,0,1,1,.1,0Z" fill="#ca0928"/>
    <path d="M62.6,40.5a20.208,20.208,0,1,0-.184,0Zm0-30.7a10.392,10.392,0,1,1-.016,0Z" fill="#ca0928"/>
    <path d="M62.6,67.3A62.684,62.684,0,0,0,4.9,29H0v4.9A62.548,62.548,0,0,0,57.5,96.2a54.012,54.012,0,0,1-6.8,21.7,4.842,4.842,0,0,0,1.689,6.636l.111.064a5.5,5.5,0,0,0,2.4.7,4.91,4.91,0,0,0,4.2-2.4,62.212,62.212,0,0,0,8.2-26.5A62.7,62.7,0,0,0,125.2,34V29h-4.9A62.578,62.578,0,0,0,62.6,67.3ZM10,39.1A52.758,52.758,0,0,1,57.4,86.4,52.849,52.849,0,0,1,10,39.1ZM67.7,86.4A52.949,52.949,0,0,1,115.1,39,52.767,52.767,0,0,1,67.7,86.4Z" fill="#ca0928"/>
  </g>
</svg>
