<svg xmlns="http://www.w3.org/2000/svg" viewBox="0 0 665.96 127.817">
  <path id="path840" d="M188.717,6.34c-1.757,3.514-1.757,6.912-1.757,10.426V60.694s23.545-30.574,28.934-37.837c4.1-5.388,9.137-13,9.137-16.517h76.846c-5.272,3.514-11.129,9.84-15.932,15.7-4.217,5.154-28.114,34.323-28.114,34.323s35.494,54,40.063,60.914a67.118,67.118,0,0,0,8.668,10.426H218.12c0-3.514-3.4-10.66-7.146-16.283S186.96,74.986,186.96,74.986v42.288c0,3.514,0,6.912,1.757,10.426H115.034c1.757-3.514,1.757-6.912,1.757-10.426V16.766c0-3.514,0-6.912-1.757-10.426Zm272.825,0H319.331c1.757,3.514,1.757,6.912,1.757,10.426V117.274c0,3.514,0,6.912-1.757,10.426H461.542V94.08c-3.514,1.757-6.911,1.757-10.426,1.757h-59.86V79.906h57.517V54.251H391.256V38.2h59.86c3.515,0,6.912,0,10.426,1.64ZM658.576,117.274a29.327,29.327,0,0,0,5.74,10.426h-77.08c.352-3.514-.937-6.912-2.343-10.426,0,0-1.171-2.811-2.811-6.911l-.7-1.757h-44.4l-.7,1.874s-1.289,3.4-2.46,6.911-2.46,6.912-1.991,10.426h-60.8a30.712,30.712,0,0,0,5.5-10.426L512.968,16.886c1.288-3.514,2.577-6.911,2.108-10.426H617.809c-.937,3.515.937,6.912,2.226,10.426,3.046,7.614,35.963,93.6,38.54,100.391m-86.92-34.323L560.879,54.837a62.15,62.15,0,0,1-2.343-7.966,46.933,46.933,0,0,1-2.108,7.966c-.352,1.172-4.92,13.472-10.192,28.114ZM78.369,16.766c0-3.514,0-6.912,1.757-10.426H0c1.757,3.514,1.757,6.912,1.757,10.426V117.274c0,3.514,0,6.912-1.757,10.426H80.126c-1.757-3.514-1.757-6.912-1.757-10.426Zm555.607-.82a16,16,0,0,0,31.98.82v-.82A15.6,15.6,0,0,0,650.694.016l-.085,0h-.586A15.284,15.284,0,0,0,634.1,14.632c0,.086-.007.173-.009.259a1.141,1.141,0,0,0-.117,1.055m28.7,0a12.773,12.773,0,1,1-25.537.7v-.82A12.309,12.309,0,0,1,648.967,3.057h.939a12.552,12.552,0,0,1,12.769,12.3v.586m-4.92,9.6h-3.163l-3.749-6.794h-4.1v6.794h-2.811V6.34h7.146a6.125,6.125,0,0,1,5.974,6.209,6.42,6.42,0,0,1-3.4,5.622Zm-7.146-9.6a3.238,3.238,0,0,0,3.5-2.949c.006-.071.01-.143.011-.214a3.31,3.31,0,0,0-3.1-3.51l-.066,0h-4.217v6.794h3.866" fill="#0058a3"/>
</svg>
