<svg xmlns="http://www.w3.org/2000/svg" viewBox="0 0 730 303.72">
  <g id="logo-barnet-colindale-offices-TEXT">
    <g id="COLINDALE-OFFICES">
      <path d="M62.08,303.72c-4.28,0-8.15-.93-11.61-2.79-3.46-1.86-6.18-4.44-8.16-7.74-1.98-3.3-2.97-7.03-2.97-11.19s.99-7.89,2.97-11.19c1.98-3.3,4.7-5.88,8.16-7.74,3.46-1.86,7.35-2.79,11.67-2.79,3.64,0,6.93,.64,9.87,1.92,2.94,1.28,5.41,3.12,7.41,5.52l-6.24,5.76c-2.84-3.28-6.36-4.92-10.56-4.92-2.6,0-4.92,.57-6.96,1.71-2.04,1.14-3.63,2.73-4.77,4.77-1.14,2.04-1.71,4.36-1.71,6.96s.57,4.92,1.71,6.96c1.14,2.04,2.73,3.63,4.77,4.77,2.04,1.14,4.36,1.71,6.96,1.71,4.2,0,7.72-1.66,10.56-4.98l6.24,5.76c-2,2.44-4.48,4.3-7.44,5.58s-6.26,1.92-9.9,1.92Z" fill="#01b1af"/>
      <path d="M62.08,303.72c-4.28,0-8.15-.93-11.61-2.79-3.46-1.86-6.18-4.44-8.16-7.74-1.98-3.3-2.97-7.03-2.97-11.19s.99-7.89,2.97-11.19c1.98-3.3,4.7-5.88,8.16-7.74,3.46-1.86,7.35-2.79,11.67-2.79,3.64,0,6.93,.64,9.87,1.92,2.94,1.28,5.41,3.12,7.41,5.52l-6.24,5.76c-2.84-3.28-6.36-4.92-10.56-4.92-2.6,0-4.92,.57-6.96,1.71-2.04,1.14-3.63,2.73-4.77,4.77-1.14,2.04-1.71,4.36-1.71,6.96s.57,4.92,1.71,6.96c1.14,2.04,2.73,3.63,4.77,4.77,2.04,1.14,4.36,1.71,6.96,1.71,4.2,0,7.72-1.66,10.56-4.98l6.24,5.76c-2,2.44-4.48,4.3-7.44,5.58s-6.26,1.92-9.9,1.92Z" fill="#01b1af"/>
      <path d="M105.4,303.72c-4.36,0-8.29-.94-11.79-2.82-3.5-1.88-6.24-4.47-8.22-7.77-1.98-3.3-2.97-7.01-2.97-11.13s.99-7.83,2.97-11.13,4.72-5.89,8.22-7.77c3.5-1.88,7.43-2.82,11.79-2.82s8.28,.94,11.76,2.82c3.48,1.88,6.22,4.47,8.22,7.77s3,7.01,3,11.13-1,7.83-3,11.13c-2,3.3-4.74,5.89-8.22,7.77-3.48,1.88-7.4,2.82-11.76,2.82Zm0-8.28c2.48,0,4.72-.57,6.72-1.71s3.57-2.73,4.71-4.77c1.14-2.04,1.71-4.36,1.71-6.96s-.57-4.92-1.71-6.96c-1.14-2.04-2.71-3.63-4.71-4.77-2-1.14-4.24-1.71-6.72-1.71s-4.72,.57-6.72,1.71c-2,1.14-3.57,2.73-4.71,4.77-1.14,2.04-1.71,4.36-1.71,6.96s.57,4.92,1.71,6.96c1.14,2.04,2.71,3.63,4.71,4.77s4.24,1.71,6.72,1.71Z" fill="#01b1af"/>
      <path d="M105.4,303.72c-4.36,0-8.29-.94-11.79-2.82-3.5-1.88-6.24-4.47-8.22-7.77-1.98-3.3-2.97-7.01-2.97-11.13s.99-7.83,2.97-11.13,4.72-5.89,8.22-7.77c3.5-1.88,7.43-2.82,11.79-2.82s8.28,.94,11.76,2.82c3.48,1.88,6.22,4.47,8.22,7.77s3,7.01,3,11.13-1,7.83-3,11.13c-2,3.3-4.74,5.89-8.22,7.77-3.48,1.88-7.4,2.82-11.76,2.82Zm0-8.28c2.48,0,4.72-.57,6.72-1.71s3.57-2.73,4.71-4.77c1.14-2.04,1.71-4.36,1.71-6.96s-.57-4.92-1.71-6.96c-1.14-2.04-2.71-3.63-4.71-4.77-2-1.14-4.24-1.71-6.72-1.71s-4.72,.57-6.72,1.71c-2,1.14-3.57,2.73-4.71,4.77-1.14,2.04-1.71,4.36-1.71,6.96s.57,4.92,1.71,6.96c1.14,2.04,2.71,3.63,4.71,4.77s4.24,1.71,6.72,1.71Z" fill="#01b1af"/>
      <polygon points="135.7 261 145.42 261 145.42 295.08 166.48 295.08 166.48 303 135.7 303 135.7 261" fill="#01b1af"/>
      <polygon points="135.7 261 145.42 261 145.42 295.08 166.48 295.08 166.48 303 135.7 303 135.7 261" fill="#01b1af"/>
      <polygon points="171.94 261 181.66 261 181.66 303 171.94 303 171.94 261" fill="#01b1af"/>
      <polygon points="171.94 261 181.66 261 181.66 303 171.94 303 171.94 261" fill="#01b1af"/>
      <polygon points="230.14 261 230.14 303 222.16 303 201.22 277.5 201.22 303 191.62 303 191.62 261 199.66 261 220.54 286.5 220.54 261 230.14 261" fill="#01b1af"/>
      <polygon points="230.14 261 230.14 303 222.16 303 201.22 277.5 201.22 303 191.62 303 191.62 261 199.66 261 220.54 286.5 220.54 261 230.14 261" fill="#01b1af"/>
      <path d="M240.1,261h19.08c4.56,0,8.59,.87,12.09,2.61,3.5,1.74,6.22,4.19,8.16,7.35,1.94,3.16,2.91,6.84,2.91,11.04s-.97,7.88-2.91,11.04c-1.94,3.16-4.66,5.61-8.16,7.35-3.5,1.74-7.53,2.61-12.09,2.61h-19.08v-42Zm18.6,34.02c4.2,0,7.55-1.17,10.05-3.51s3.75-5.51,3.75-9.51-1.25-7.17-3.75-9.51-5.85-3.51-10.05-3.51h-8.88v26.04h8.88Z" fill="#01b1af"/>
      <path d="M240.1,261h19.08c4.56,0,8.59,.87,12.09,2.61,3.5,1.74,6.22,4.19,8.16,7.35,1.94,3.16,2.91,6.84,2.91,11.04s-.97,7.88-2.91,11.04c-1.94,3.16-4.66,5.61-8.16,7.35-3.5,1.74-7.53,2.61-12.09,2.61h-19.08v-42Zm18.6,34.02c4.2,0,7.55-1.17,10.05-3.51s3.75-5.51,3.75-9.51-1.25-7.17-3.75-9.51-5.85-3.51-10.05-3.51h-8.88v26.04h8.88Z" fill="#01b1af"/>
      <path d="M316.72,294h-19.5l-3.72,9h-9.96l18.72-42h9.6l18.78,42h-10.2l-3.72-9Zm-3.06-7.38l-6.66-16.08-6.66,16.08h13.32Z" fill="#01b1af"/>
      <path d="M316.72,294h-19.5l-3.72,9h-9.96l18.72-42h9.6l18.78,42h-10.2l-3.72-9Zm-3.06-7.38l-6.66-16.08-6.66,16.08h13.32Z" fill="#01b1af"/>
      <polygon points="335.02 261 344.74 261 344.74 295.08 365.8 295.08 365.8 303 335.02 303 335.02 261" fill="#01b1af"/>
      <polygon points="335.02 261 344.74 261 344.74 295.08 365.8 295.08 365.8 303 335.02 303 335.02 261" fill="#01b1af"/>
      <polygon points="403.78 295.2 403.78 303 371.26 303 371.26 261 403 261 403 268.8 380.92 268.8 380.92 277.92 400.42 277.92 400.42 285.48 380.92 285.48 380.92 295.2 403.78 295.2" fill="#01b1af"/>
      <polygon points="403.78 295.2 403.78 303 371.26 303 371.26 261 403 261 403 268.8 380.92 268.8 380.92 277.92 400.42 277.92 400.42 285.48 380.92 285.48 380.92 295.2 403.78 295.2" fill="#01b1af"/>
      <path d="M448.84,303.72c-4.36,0-8.29-.94-11.79-2.82-3.5-1.88-6.24-4.47-8.22-7.77-1.98-3.3-2.97-7.01-2.97-11.13s.99-7.83,2.97-11.13c1.98-3.3,4.72-5.89,8.22-7.77,3.5-1.88,7.43-2.82,11.79-2.82s8.28,.94,11.76,2.82c3.48,1.88,6.22,4.47,8.22,7.77s3,7.01,3,11.13-1,7.83-3,11.13c-2,3.3-4.74,5.89-8.22,7.77-3.48,1.88-7.4,2.82-11.76,2.82Zm0-8.28c2.48,0,4.72-.57,6.72-1.71s3.57-2.73,4.71-4.77c1.14-2.04,1.71-4.36,1.71-6.96s-.57-4.92-1.71-6.96c-1.14-2.04-2.71-3.63-4.71-4.77-2-1.14-4.24-1.71-6.72-1.71s-4.72,.57-6.72,1.71c-2,1.14-3.57,2.73-4.71,4.77-1.14,2.04-1.71,4.36-1.71,6.96s.57,4.92,1.71,6.96c1.14,2.04,2.71,3.63,4.71,4.77s4.24,1.71,6.72,1.71Z" fill="#01b1af"/>
      <path d="M448.84,303.72c-4.36,0-8.29-.94-11.79-2.82-3.5-1.88-6.24-4.47-8.22-7.77-1.98-3.3-2.97-7.01-2.97-11.13s.99-7.83,2.97-11.13c1.98-3.3,4.72-5.89,8.22-7.77,3.5-1.88,7.43-2.82,11.79-2.82s8.28,.94,11.76,2.82c3.48,1.88,6.22,4.47,8.22,7.77s3,7.01,3,11.13-1,7.83-3,11.13c-2,3.3-4.74,5.89-8.22,7.77-3.48,1.88-7.4,2.82-11.76,2.82Zm0-8.28c2.48,0,4.72-.57,6.72-1.71s3.57-2.73,4.71-4.77c1.14-2.04,1.71-4.36,1.71-6.96s-.57-4.92-1.71-6.96c-1.14-2.04-2.71-3.63-4.71-4.77-2-1.14-4.24-1.71-6.72-1.71s-4.72,.57-6.72,1.71c-2,1.14-3.57,2.73-4.71,4.77-1.14,2.04-1.71,4.36-1.71,6.96s.57,4.92,1.71,6.96c1.14,2.04,2.71,3.63,4.71,4.77s4.24,1.71,6.72,1.71Z" fill="#01b1af"/>
      <polygon points="488.86 268.8 488.86 279.9 508.3 279.9 508.3 287.7 488.86 287.7 488.86 303 479.14 303 479.14 261 510.88 261 510.88 268.8 488.86 268.8" fill="#01b1af"/>
      <polygon points="488.86 268.8 488.86 279.9 508.3 279.9 508.3 287.7 488.86 287.7 488.86 303 479.14 303 479.14 261 510.88 261 510.88 268.8 488.86 268.8" fill="#01b1af"/>
      <polygon points="527.2 268.8 527.2 279.9 546.64 279.9 546.64 287.7 527.2 287.7 527.2 303 517.48 303 517.48 261 549.22 261 549.22 268.8 527.2 268.8" fill="#01b1af"/>
      <polygon points="527.2 268.8 527.2 279.9 546.64 279.9 546.64 287.7 527.2 287.7 527.2 303 517.48 303 517.48 261 549.22 261 549.22 268.8 527.2 268.8" fill="#01b1af"/>
      <polygon points="555.82 261 565.54 261 565.54 303 555.82 303 555.82 261" fill="#01b1af"/>
      <polygon points="555.82 261 565.54 261 565.54 303 555.82 303 555.82 261" fill="#01b1af"/>
      <path d="M595.6,303.72c-4.28,0-8.15-.93-11.61-2.79-3.46-1.86-6.18-4.44-8.16-7.74s-2.97-7.03-2.97-11.19,.99-7.89,2.97-11.19c1.98-3.3,4.7-5.88,8.16-7.74,3.46-1.86,7.35-2.79,11.67-2.79,3.64,0,6.93,.64,9.87,1.92,2.94,1.28,5.41,3.12,7.41,5.52l-6.24,5.76c-2.84-3.28-6.36-4.92-10.56-4.92-2.6,0-4.92,.57-6.96,1.71-2.04,1.14-3.63,2.73-4.77,4.77-1.14,2.04-1.71,4.36-1.71,6.96s.57,4.92,1.71,6.96c1.14,2.04,2.73,3.63,4.77,4.77,2.04,1.14,4.36,1.71,6.96,1.71,4.2,0,7.72-1.66,10.56-4.98l6.24,5.76c-2,2.44-4.48,4.3-7.44,5.58-2.96,1.28-6.26,1.92-9.9,1.92Z" fill="#01b1af"/>
      <path d="M595.6,303.72c-4.28,0-8.15-.93-11.61-2.79-3.46-1.86-6.18-4.44-8.16-7.74s-2.97-7.03-2.97-11.19,.99-7.89,2.97-11.19c1.98-3.3,4.7-5.88,8.16-7.74,3.46-1.86,7.35-2.79,11.67-2.79,3.64,0,6.93,.64,9.87,1.92,2.94,1.28,5.41,3.12,7.41,5.52l-6.24,5.76c-2.84-3.28-6.36-4.92-10.56-4.92-2.6,0-4.92,.57-6.96,1.71-2.04,1.14-3.63,2.73-4.77,4.77-1.14,2.04-1.71,4.36-1.71,6.96s.57,4.92,1.71,6.96c1.14,2.04,2.73,3.63,4.77,4.77,2.04,1.14,4.36,1.71,6.96,1.71,4.2,0,7.72-1.66,10.56-4.98l6.24,5.76c-2,2.44-4.48,4.3-7.44,5.58-2.96,1.28-6.26,1.92-9.9,1.92Z" fill="#01b1af"/>
      <polygon points="652 295.2 652 303 619.48 303 619.48 261 651.22 261 651.22 268.8 629.14 268.8 629.14 277.92 648.64 277.92 648.64 285.48 629.14 285.48 629.14 295.2 652 295.2" fill="#01b1af"/>
      <polygon points="652 295.2 652 303 619.48 303 619.48 261 651.22 261 651.22 268.8 629.14 268.8 629.14 277.92 648.64 277.92 648.64 285.48 629.14 285.48 629.14 295.2 652 295.2" fill="#01b1af"/>
      <path d="M673.54,303.72c-3.32,0-6.53-.45-9.63-1.35-3.1-.9-5.59-2.07-7.47-3.51l3.3-7.32c1.8,1.32,3.94,2.38,6.42,3.18,2.48,.8,4.96,1.2,7.44,1.2,2.76,0,4.8-.41,6.12-1.23s1.98-1.91,1.98-3.27c0-1-.39-1.83-1.17-2.49-.78-.66-1.78-1.19-3-1.59-1.22-.4-2.87-.84-4.95-1.32-3.2-.76-5.82-1.52-7.86-2.28-2.04-.76-3.79-1.98-5.25-3.66-1.46-1.68-2.19-3.92-2.19-6.72,0-2.44,.66-4.65,1.98-6.63,1.32-1.98,3.31-3.55,5.97-4.71,2.66-1.16,5.91-1.74,9.75-1.74,2.68,0,5.3,.32,7.86,.96,2.56,.64,4.8,1.56,6.72,2.76l-3,7.38c-3.88-2.2-7.76-3.3-11.64-3.3-2.72,0-4.73,.44-6.03,1.32s-1.95,2.04-1.95,3.48,.75,2.51,2.25,3.21c1.5,.7,3.79,1.39,6.87,2.07,3.2,.76,5.82,1.52,7.86,2.28,2.04,.76,3.79,1.96,5.25,3.6,1.46,1.64,2.19,3.86,2.19,6.66,0,2.4-.67,4.59-2.01,6.57-1.34,1.98-3.35,3.55-6.03,4.71s-5.94,1.74-9.78,1.74Z" fill="#01b1af"/>
      <path d="M673.54,303.72c-3.32,0-6.53-.45-9.63-1.35-3.1-.9-5.59-2.07-7.47-3.51l3.3-7.32c1.8,1.32,3.94,2.38,6.42,3.18,2.48,.8,4.96,1.2,7.44,1.2,2.76,0,4.8-.41,6.12-1.23s1.98-1.91,1.98-3.27c0-1-.39-1.83-1.17-2.49-.78-.66-1.78-1.19-3-1.59-1.22-.4-2.87-.84-4.95-1.32-3.2-.76-5.82-1.52-7.86-2.28-2.04-.76-3.79-1.98-5.25-3.66-1.46-1.68-2.19-3.92-2.19-6.72,0-2.44,.66-4.65,1.98-6.63,1.32-1.98,3.31-3.55,5.97-4.71,2.66-1.16,5.91-1.74,9.75-1.74,2.68,0,5.3,.32,7.86,.96,2.56,.64,4.8,1.56,6.72,2.76l-3,7.38c-3.88-2.2-7.76-3.3-11.64-3.3-2.72,0-4.73,.44-6.03,1.32s-1.95,2.04-1.95,3.48,.75,2.51,2.25,3.21c1.5,.7,3.79,1.39,6.87,2.07,3.2,.76,5.82,1.52,7.86,2.28,2.04,.76,3.79,1.96,5.25,3.6,1.46,1.64,2.19,3.86,2.19,6.66,0,2.4-.67,4.59-2.01,6.57-1.34,1.98-3.35,3.55-6.03,4.71s-5.94,1.74-9.78,1.74Z" fill="#01b1af"/>
    </g>
    <g id="LONDON_BOROUGH">
      <path d="M580.45,162.48c8.19-4.49,18.59-3.79,26.92-.03-.04,2.71-.06,5.42-.06,8.13-6.19-2.83-13.51-4.7-20.1-2.2-6.9,2.74-8.47,13.47-2.43,17.84,3.95,3.06,9.35,2.81,13.95,1.64-.03-1.41-.04-2.81-.06-4.21-1.67,0-3.34,0-4.99,0-.01-2.13,0-4.25,.01-6.38,4.81-.02,9.62-.03,14.44,.01-.07,5.28,.58,10.65-.62,15.85-6.81,3.58-14.71,4.52-22.17,2.64-7.47-1.99-13.86-8.77-13.87-16.74-.47-6.79,3.03-13.24,8.98-16.54h0Z" fill="#01b1af"/>
      <path d="M123.37,160.73c6.01-1.64,12.79-1.49,18.35,1.55,6.27,3.4,10.47,10.62,9.67,17.8-1.09,8.19-7.26,14.77-15.36,16.39-3.31,.48-6.68,.51-10,.1-8.88-1.19-16.37-9.51-15.87-18.6-.08-7.89,5.79-14.99,13.21-17.24m1.95,7.89c-6.06,2.76-7.61,11.53-3.55,16.58,4.03,5.22,12.66,5.55,17.22,.86,3.26-3.12,3.4-8.24,2.07-12.27-2.52-5.89-10.23-7.94-15.74-5.17h0Z" fill="#01b1af"/>
      <path d="M159.4,160.31c2.75,0,5.5,0,8.25,.03,6.33,7.19,12.53,14.49,18.85,21.69,.11-7.22,.04-14.45,.06-21.67,3.03-.04,6.06-.05,9.1-.04,.02,12.06,.02,24.12,0,36.18-3.11-.34-7.25,1.28-9.28-1.91-5.99-7-12.06-13.93-17.97-20.98-.16,7.61-.06,15.23-.09,22.85-2.98,.04-5.96,.05-8.93,.06,.02-12.07,0-24.14,.01-36.21Z" fill="#01b1af"/>
      <path d="M204.75,160.62c5.43-.11,10.87-.09,16.3-.09,5.4-.12,11.02,1.66,14.87,5.57,5.16,5.43,5.99,14.11,2.97,20.78-2.97,6.31-10.15,9.23-16.76,9.55-5.8,.19-11.6,.09-17.39,0,0-11.94,0-23.88,0-35.81m9.63,6.7c.01,7.41,.01,14.82,0,22.23,3.89-.14,8.13,.65,11.68-1.37,7.02-3.7,7.3-15.37,.52-19.46-3.7-2.15-8.15-1.22-12.2-1.4Z" fill="#01b1af"/>
      <path d="M260.39,160.72c5.66-1.67,11.71-1.33,17.15,.95,6.19,2.93,10.88,9.34,10.87,16.32,.32,7.83-5.32,15.06-12.52,17.7-8.41,2.58-18.97,1.39-24.75-5.88-3.87-4.58-4.73-11.04-3.28-16.74,1.93-5.9,6.6-10.51,12.53-12.35m4.13,7.11c-6.1,1.62-9.56,9.04-6.98,14.78,2.58,7.39,13.37,8.97,18.6,3.54,2.09-2.14,3.22-5.04,3.14-8.03s-1.37-5.82-3.57-7.85c-2.9-2.91-7.36-3.3-11.19-2.44Z" fill="#01b1af"/>
      <path d="M296.43,160.31c2.88,0,5.76,0,8.64,.08,6.1,7.02,11.78,14.46,18.35,21.06,.19-7.04,.05-14.07,.1-21.11,3.02-.02,6.05-.02,9.08-.02,.01,12.06,.01,24.12,0,36.18-2.5-.14-5.24,.45-7.6-.34-6.78-7.21-12.83-15.09-19.38-22.52-.2,7.62-.04,15.24-.12,22.86-3.02,0-6.05,0-9.07,0-.03-12.07-.03-24.14,0-36.2Z" fill="#01b1af"/>
      <path d="M358.56,160.33c5.82,.13,11.64,0,17.45,.28,4.91,.23,10.35,3.97,9.87,9.39,.17,2.88-2.05,4.94-3.8,6.91,3.73,1.45,7.16,4.75,6.71,9.07,.45,5.55-4.62,10.03-9.89,10.37-6.77,.37-13.56,.08-20.33,.13-.02-12.05,0-24.1-.01-36.15m8.95,6.92c-.01,2.5-.01,4.99,.01,7.49,2.56-.08,5.12-.19,7.69-.35,.5-1.66,1.92-3.44,.97-5.2-1.84-2.92-5.82-1.53-8.67-1.94m.01,14.14c.05,2.71,.1,5.42,.18,8.13,3.7,.08,7.53,.34,11-1.22,.03-1.86,.01-3.72-.03-5.57-3.49-1.69-7.4-1.38-11.15-1.34Z" fill="#01b1af"/>
      <path d="M408.55,160.75c4.41-1.27,9.06-1.4,13.53-.36,6.72,1.69,11.99,6.89,13.78,13.58,2.24,7.92-2.23,16.63-9.3,20.45-4.65,2.79-10.31,2.7-15.51,2.11-9.12-1.36-16.65-10.28-15.58-19.61,.39-7.43,6.06-14,13.08-16.17m1.83,7.84c-6.14,2.7-7.76,11.58-3.61,16.63,3.43,4.41,10.2,5.36,14.94,2.57,6.42-3.31,6.87-13.61,1.29-17.92-3.46-2.87-8.63-3.12-12.62-1.28Z" fill="#01b1af"/>
      <path d="M492.43,160.72c4.45-1.27,9.16-1.37,13.66-.28,7.04,1.77,12.46,7.4,13.97,14.51,1.17,6.33-1.12,12.8-6.02,16.97-7.94,6.93-21.02,6.9-28.93-.06-5.6-4.76-7.21-12.94-4.96-19.77,2.15-5.46,6.67-9.64,12.28-11.37m1.99,7.83c-7.76,3.32-7.9,15.82-.32,19.45,6.64,3.93,17.19-.71,16.63-9.05,1.27-8.61-9.15-14.24-16.31-10.4h0Z" fill="#01b1af"/>
      <path d="M528.21,160.32c3.03,0,6.07,.01,9.11,.07,.07,7.18-.12,14.37,.06,21.55,.02,5.56,6.77,8.73,11.59,6.99,2.99-.96,5.83-3.62,5.69-6.97,.19-7.19,0-14.38,.06-21.56,2.99-.07,5.99-.09,8.99-.1-.02,7.25,.08,14.5-.02,21.75,.15,5.05-2.57,10.27-7.23,12.48-4.4,2.44-9.6,2.23-14.46,1.98-5.18-.33-10.4-3.25-12.56-8.11-1.37-2.58-1.24-5.58-1.28-8.4,.04-6.56,.02-13.12,.05-19.68Z" fill="#01b1af"/>
      <path d="M617.24,160.33c3.07,0,6.14,0,9.21,0,0,4.76,.01,9.52,0,14.29,5.76,.04,11.52,.01,17.28,.04,.01-4.76,.02-9.51,0-14.26,3.01-.08,6.04-.1,9.06-.11,.91,6.9-.41,13.83,.16,20.75,.47,5.15-.2,10.31-.14,15.47-3.03-.01-6.05-.02-9.06-.07,0-4.76-.02-9.52,.02-14.28-5.78-.01-11.56-.05-17.33,.03,.04,4.76,.02,9.52,.03,14.28-3.08,.03-6.15,.03-9.22,.03-.02-12.06-.02-24.12,0-36.18Z" fill="#01b1af"/>
      <path d="M77.58,160.34c3.05-.02,6.09-.02,9.14-.02,.02,9.73,.02,19.46,0,29.19,6.11,.06,12.22,.03,18.33,.03,.13,2.3,.22,4.61,.29,6.91-9.26,.12-18.51,.04-27.76,.05,0-12.06,0-24.11,0-36.16Z" fill="#01b1af"/>
      <path d="M443.77,160.41c6.04-.08,12.08-.23,18.12,0,6.41,.12,11.91,7.12,9.7,13.35-.64,2.64-2.97,4.22-5.07,5.65,4.64,4.73,6.45,11.26,9.33,17.06-3.37,.05-6.73,.05-10.08,.05-2.19-4.22-3.52-8.97-6.59-12.69-1.29-1.98-3.81-1.53-5.82-1.8-.01,4.82,0,9.64-.01,14.46-3.2,.03-6.39,.03-9.57-.02-.03-12.02-.03-24.04,0-36.05m9.71,6.87c-.01,2.58-.02,5.15-.02,7.73,2.56,.17,5.33,.57,7.68-.77,1.93-.95,1.92-3.64,1.09-5.33-2.14-2.56-5.87-1.29-8.75-1.63h0Z" fill="#01b1af"/>
    </g>
    <g id="BARNET">
      <path d="M0,0H105.36c0,46.03,0,92.06-.01,138.08-35.11,.27-70.23,.06-105.35,.1V0M25.51,24.35c.01,30.33-.05,60.67,.03,91,10.5,0,21,0,31.5,.01,8.56-.23,17.76-2.11,24.05-8.35,8.07-7.61,8.9-21.39,1.99-30.01-4.19-5.41-10.71-8.24-17.18-9.85,4.09-2.09,8.4-4.42,10.79-8.53,5.3-8.52,3.46-20.63-4.01-27.29-5.51-5.14-13.29-6.9-20.62-6.97-8.85-.04-17.7,0-26.55-.01Z" fill="#01b1af"/>
      <path d="M117.32,0h121.18c.15,46.02,.04,92.04,.06,138.07-39.89,.27-79.78,.1-119.66,.09-2.41,.38-2.03-2.63-2.12-4.13,.06-39.32,.07-78.64,.03-117.97,.04-5.36-.31-10.75,.51-16.06m49.39,36.8c-9.78,22.92-19.55,45.84-29.32,68.75-1.5,3.14-2.72,6.41-3.66,9.76,4.15,.06,8.31,.05,12.47,.04,3.98-8.88,7.77-17.85,11.69-26.77,12.78-.09,25.57-.02,38.36-.03,4.19,8.91,8.07,17.96,12.37,26.82,4.18-.03,8.36-.01,12.54-.05-1.85-5.71-4.62-11.04-6.97-16.55-11.02-25.02-22.14-50-33.14-75.04-2.83-.03-5.66-.05-8.49-.1-2.2,4.27-3.96,8.76-5.85,13.17Z" fill="#01b1af"/>
      <path d="M250.63,0h107.09c.14,46.06,.15,92.12,.03,138.17-30.91,.06-61.83,0-92.74,.03-4.83,.02-9.66,.08-14.48-.27,.08-45.98-.11-91.95,.1-137.93m21.7,115.4c4.14-.06,8.28-.06,12.43-.05,.09-7.47-.05-14.93,.1-22.4,.15-5.83-.49-11.7,.33-17.5,4.74,.11,9.96-.49,14.04,2.46,6.46,4.51,10.72,11.37,15.06,17.8,4.09,6.35,8.35,12.59,12.34,19,5.13,.12,10.27,.12,15.41-.01-4.85-6.47-9.48-13.12-13.68-20.03-5.17-8.31-10.47-16.9-18.55-22.72,6.62-3.31,12.75-8.65,14.45-16.15,1.02-6.5,.94-13.65-2.65-19.4-4.6-7.82-13.85-11.71-22.61-12.1-8.91-.22-17.82,.15-26.73,.02-.02,30.36-.13,60.72,.06,91.08Z" fill="#01b1af"/>
      <path d="M369.65,0h131.81c-.28,45.96-.03,91.93-.12,137.9-6.11,.48-12.25,.27-18.37,.3-35.31,.01-70.62,.01-105.92,.01-2.51-.01-5.01-.14-7.5-.32,.11-45.96-.09-91.93,.1-137.89m22.99,24.4c.07,30.04-.11,60.08,.08,90.12,.2,.18,.59,.56,.79,.75,3.65,.24,7.31,.05,10.96,.07,.17-23.51-.13-47.01,.15-70.51,20.42,23.49,40.67,47.14,61.2,70.53,3.6-.01,7.21-.01,10.82,0,.12-30.35,.03-60.69,.04-91.04-4.08,.04-8.16,.05-12.24,.02-.05,23.52,.07,47.03-.07,70.55-18.28-20.82-36.4-41.8-54.63-62.67-2.32-2.59-4.4-5.43-7.04-7.71-3.35-.24-6.71-.27-10.06-.11h0Z" fill="#01b1af"/>
      <path d="M514.59,0h100.95c-.2,46.06,.03,92.12-.11,138.18-33.64-.04-67.29,.17-100.93-.11,.05-46.02-.14-92.05,.09-138.07m24.78,24.33c.02,30.34-.07,60.69,.04,91.03h52.23c.07-3.86,.08-7.73-.04-11.59-13.11,.07-26.22,0-39.32,.03-.02-9.48-.02-18.96,0-28.44,12.15,.06,24.29-.1,36.44,.08,.77-3.9,.77-7.92-.02-11.82-12.14,.22-24.28,.04-36.42,.1,.07-9.33-.23-18.66,.17-27.97,12.67,.13,25.33,.06,38,.04,.01-3.82,.02-7.65-.03-11.47-17.01,.06-34.03,.03-51.05,.01Z" fill="#01b1af"/>
      <path d="M628.79,0h101.21V138.42c-4.99-.42-10-.19-14.99-.22-27.67,0-55.34,0-83.02,0-1.26-.04-3.73-.06-3.21-2.05-.06-45.38-.06-90.76,0-136.15m11.93,24.46c.02,3.72,.02,7.44,0,11.17,10.54,.28,21.09,.03,31.64,.14,.03,26.32,.03,52.65,0,78.98,4.32,.05,8.64,.05,12.96,0,.06-26.34-.1-52.68,.08-79.02,10.47,.04,20.94,.02,31.41,.01-.01-3.8-.02-7.6-.03-11.41-25.35,.11-50.7-.15-76.05,.13h0Z" fill="#01b1af"/>
      <path d="M285.22,35.48c6.46,.25,13.33-.84,19.38,1.98,9.5,4.49,8.97,20.51-.56,24.7-5.71,2.6-12.23,2.14-18.34,1.96-1.47-1.26-.72-3.4-.94-5.07,.25-7.85-.42-15.74,.46-23.57Z" fill="#01b1af"/>
      <path d="M38.37,35.88c6.34,.05,12.75-.37,19.01,.93,4.16,.88,7.51,3.98,8.71,8.06,1.14,4.81,.43,10.46-3.21,14.08-2.59,2.57-6.21,3.63-9.76,3.95,.45,.09,1.35,.27,1.79,.36-5.46,.37-10.94,.37-16.41,.33-.22-9.24,0-18.48-.13-27.71Z" fill="#01b1af"/>
      <path d="M176.08,43.82c5.47,10.64,10.05,21.74,14.95,32.67-9.38,.09-18.76,.09-28.14,.01,4.18-10.98,8.76-21.8,13.19-32.68Z" fill="#01b1af"/>
      <path d="M38.29,103.55c.05-9.67-.07-19.35,.07-29.02,9.92,.57,20.71-1.76,29.82,3.29,6.61,3.64,8.16,13.16,3.84,19.11-3.36,4.72-9.44,6.49-14.99,6.6-6.24,.09-12.49-.01-18.74,.02Z" fill="#01b1af"/>
    </g>
  </g>
</svg>