<svg xmlns="http://www.w3.org/2000/svg" viewBox="0 0 730 197.099">
  <g>
    <path d="M0,0H105.36q0,69.045-.01,138.08c-35.11.27-70.23.06-105.35.1V0M25.51,24.35c.01,30.33-.05,60.67.03,91q15.75,0,31.5.01c8.56-.23,17.76-2.11,24.05-8.35,8.07-7.61,8.9-21.39,1.99-30.01-4.19-5.41-10.71-8.24-17.18-9.85,4.09-2.09,8.4-4.42,10.79-8.53,5.3-8.52,3.46-20.63-4.01-27.29-5.51-5.14-13.29-6.9-20.62-6.97C43.21,24.32,34.36,24.36,25.51,24.35Z" fill="#01b1af"/>
    <path d="M117.32,0H238.5c.15,46.02.04,92.04.06,138.07-39.89.27-79.78.1-119.66.09-2.41.38-2.03-2.63-2.12-4.13q.09-58.98.03-117.97c.04-5.36-.31-10.75.51-16.06m49.39,36.8q-14.67,34.38-29.32,68.75a60.99,60.99,0,0,0-3.66,9.76c4.15.06,8.31.05,12.47.04,3.98-8.88,7.77-17.85,11.69-26.77,12.78-.09,25.57-.02,38.36-.03,4.19,8.91,8.07,17.96,12.37,26.82,4.18-.03,8.36-.01,12.54-.05-1.85-5.71-4.62-11.04-6.97-16.55-11.02-25.02-22.14-50-33.14-75.04-2.83-.03-5.66-.05-8.49-.1C170.36,27.9,168.6,32.39,166.71,36.8Z" fill="#01b1af"/>
    <path d="M250.63,0H357.72q.21,69.09.03,138.17c-30.91.06-61.83.01-92.74.03-4.83.02-9.66.08-14.48-.27.08-45.98-.11-91.95.1-137.93m21.7,115.4c4.14-.06,8.28-.06,12.43-.05.09-7.47-.05-14.93.1-22.4.15-5.83-.49-11.7.33-17.5,4.74.11,9.96-.49,14.04,2.46,6.46,4.51,10.72,11.37,15.06,17.8,4.09,6.35,8.35,12.59,12.34,19q7.695.18,15.41-.01c-4.85-6.47-9.48-13.12-13.68-20.03-5.17-8.31-10.47-16.9-18.55-22.72,6.62-3.31,12.75-8.65,14.45-16.15,1.02-6.5.94-13.65-2.65-19.4-4.6-7.82-13.85-11.71-22.61-12.1-8.91-.22-17.82.15-26.73.02-.02,30.36-.13,60.72.06,91.08Z" fill="#01b1af"/>
    <path d="M369.65,0H501.46c-.28,45.96-.03,91.93-.12,137.9-6.11.48-12.25.27-18.37.3q-52.965.015-105.92.01c-2.51-.01-5.01-.14-7.5-.32.11-45.96-.09-91.93.1-137.89m22.99,24.4c.07,30.04-.11,60.08.08,90.12.2.18.59.56.79.75,3.65.24,7.31.05,10.96.07.17-23.51-.13-47.01.15-70.51,20.42,23.49,40.67,47.14,61.2,70.53q5.4-.015,10.82,0c.12-30.35.03-60.69.04-91.04q-6.12.06-12.24.02c-.05,23.52.07,47.03-.07,70.55-18.28-20.82-36.4-41.8-54.63-62.67-2.32-2.59-4.4-5.43-7.04-7.71a84.415,84.415,0,0,0-10.06-.11Z" fill="#01b1af"/>
    <path d="M514.59,0H615.54c-.2,46.06.03,92.12-.11,138.18-33.64-.04-67.29.17-100.93-.11.05-46.02-.14-92.05.09-138.07m24.78,24.33c.02,30.34-.07,60.69.04,91.03h52.23c.07-3.86.08-7.73-.04-11.59-13.11.07-26.22,0-39.32.03q-.03-14.22,0-28.44c12.15.06,24.29-.1,36.44.08a30.146,30.146,0,0,0-.02-11.82c-12.14.22-24.28.04-36.42.1.07-9.33-.23-18.66.17-27.97,12.67.13,25.33.06,38,.04.01-3.82.02-7.65-.03-11.47C573.41,24.38,556.39,24.35,539.37,24.33Z" fill="#01b1af"/>
    <path d="M628.79,0H730V138.42c-4.99-.42-10-.19-14.99-.22q-41.5-.015-83.02,0c-1.26-.04-3.73-.06-3.21-2.05q-.09-68.07.01-136.15m11.93,24.46q.03,5.58-.01,11.17c10.54.28,21.09.03,31.64.14q.045,39.48,0,78.98,6.48.075,12.96,0c.06-26.34-.1-52.68.08-79.02,10.47.04,20.94.02,31.41.01q-.015-5.7-.03-11.41c-25.35.11-50.7-.15-76.05.13Z" fill="#01b1af"/>
    <path d="M285.22,35.48c6.46.25,13.33-.84,19.38,1.98,9.5,4.49,8.97,20.51-.56,24.7-5.71,2.6-12.23,2.14-18.34,1.96-1.47-1.26-.72-3.4-.94-5.07C285.01,51.2,284.34,43.31,285.22,35.48Z" fill="#01b1af"/>
    <path d="M38.37,35.88c6.34.05,12.75-.37,19.01.93a11.591,11.591,0,0,1,8.71,8.06c1.14,4.81.43,10.46-3.21,14.08-2.59,2.57-6.21,3.63-9.76,3.95.45.09,1.35.27,1.79.36-5.46.37-10.94.37-16.41.33C38.28,54.35,38.49,45.11,38.37,35.88Z" fill="#01b1af"/>
    <path d="M176.08,43.82c5.47,10.64,10.05,21.74,14.95,32.67q-14.07.135-28.14.01C167.07,65.52,171.65,54.7,176.08,43.82Z" fill="#01b1af"/>
    <path d="M38.29,103.55c.05-9.67-.07-19.35.07-29.02,9.92.57,20.71-1.76,29.82,3.29,6.61,3.64,8.16,13.16,3.84,19.11-3.36,4.72-9.44,6.49-14.99,6.6C50.79,103.62,44.54,103.52,38.29,103.55Z" fill="#01b1af"/>
    <path d="M580.45,162.48c8.19-4.49,18.59-3.79,26.92-.03q-.06,4.065-.06,8.13c-6.19-2.83-13.51-4.7-20.1-2.2-6.9,2.74-8.47,13.47-2.43,17.84,3.95,3.06,9.35,2.81,13.95,1.64-.03-1.41-.04-2.81-.06-4.21-1.67,0-3.34-.01-4.99-.01-.01-2.13,0-4.25.01-6.38,4.81-.02,9.62-.03,14.44.01-.07,5.28.58,10.65-.62,15.85a31.2,31.2,0,0,1-22.17,2.64c-7.47-1.99-13.86-8.77-13.87-16.74a17.53,17.53,0,0,1,8.98-16.54Z" fill="#01b1af"/>
    <path d="M123.37,160.73c6.01-1.64,12.79-1.49,18.35,1.55,6.27,3.4,10.47,10.62,9.67,17.8a19.307,19.307,0,0,1-15.36,16.39,37.622,37.622,0,0,1-10,.1c-8.88-1.19-16.37-9.51-15.87-18.6-.08-7.89,5.79-14.99,13.21-17.24m1.95,7.89c-6.06,2.76-7.61,11.53-3.55,16.58,4.03,5.22,12.66,5.55,17.22.86,3.26-3.12,3.4-8.24,2.07-12.27-2.52-5.89-10.23-7.94-15.74-5.17Z" fill="#01b1af"/>
    <path d="M159.4,160.31c2.75.01,5.5.01,8.25.03,6.33,7.19,12.53,14.49,18.85,21.69.11-7.22.04-14.45.06-21.67q4.545-.06,9.1-.04.03,18.09,0,36.18c-3.11-.34-7.25,1.28-9.28-1.91-5.99-7-12.06-13.93-17.97-20.98-.16,7.61-.06,15.23-.09,22.85-2.98.04-5.96.05-8.93.06C159.41,184.45,159.39,172.38,159.4,160.31Z" fill="#01b1af"/>
    <path d="M204.75,160.62c5.43-.11,10.87-.09,16.3-.09,5.4-.12,11.02,1.66,14.87,5.57,5.16,5.43,5.99,14.11,2.97,20.78-2.97,6.31-10.15,9.23-16.76,9.55-5.8.19-11.6.09-17.39,0q0-17.91.01-35.81m9.63,6.7q.015,11.115,0,22.23c3.89-.14,8.13.65,11.68-1.37,7.02-3.7,7.3-15.37.52-19.46C222.88,166.57,218.43,167.5,214.38,167.32Z" fill="#01b1af"/>
    <path d="M260.39,160.72a25.588,25.588,0,0,1,17.15.95c6.19,2.93,10.88,9.34,10.87,16.32.32,7.83-5.32,15.06-12.52,17.7-8.41,2.58-18.97,1.39-24.75-5.88-3.87-4.58-4.73-11.04-3.28-16.74a19.173,19.173,0,0,1,12.53-12.35m4.13,7.11c-6.1,1.62-9.56,9.04-6.98,14.78,2.58,7.39,13.37,8.97,18.6,3.54a11.084,11.084,0,0,0-.43-15.88c-2.9-2.91-7.36-3.3-11.19-2.44Z" fill="#01b1af"/>
    <path d="M296.43,160.31c2.88,0,5.76.01,8.64.08,6.1,7.02,11.78,14.46,18.35,21.06.19-7.04.05-14.07.1-21.11,3.02-.02,6.05-.02,9.08-.02q.015,18.09,0,36.18c-2.5-.14-5.24.45-7.6-.34-6.78-7.21-12.83-15.09-19.38-22.52-.2,7.62-.04,15.24-.12,22.86-3.02.01-6.05.01-9.07.01Q296.385,178.405,296.43,160.31Z" fill="#01b1af"/>
    <path d="M358.56,160.33c5.82.13,11.64,0,17.45.28,4.91.23,10.35,3.97,9.87,9.39.17,2.88-2.05,4.94-3.8,6.91,3.73,1.45,7.16,4.75,6.71,9.07.45,5.55-4.62,10.03-9.89,10.37-6.77.37-13.56.08-20.33.13-.02-12.05,0-24.1-.01-36.15m8.95,6.92c-.01,2.5-.01,4.99.01,7.49,2.56-.08,5.12-.19,7.69-.35.5-1.66,1.92-3.44.97-5.2-1.84-2.92-5.82-1.53-8.67-1.94m.01,14.14c.05,2.71.1,5.42.18,8.13,3.7.08,7.53.34,11-1.22.03-1.86.01-3.72-.03-5.57C375.18,181.04,371.27,181.35,367.52,181.39Z" fill="#01b1af"/>
    <path d="M408.55,160.75a26.858,26.858,0,0,1,13.53-.36,19.1,19.1,0,0,1,13.78,13.58c2.24,7.92-2.23,16.63-9.3,20.45-4.65,2.79-10.31,2.7-15.51,2.11-9.12-1.36-16.65-10.28-15.58-19.61.39-7.43,6.06-14,13.08-16.17m1.83,7.84c-6.14,2.7-7.76,11.58-3.61,16.63,3.43,4.41,10.2,5.36,14.94,2.57,6.42-3.31,6.87-13.61,1.29-17.92-3.46-2.87-8.63-3.12-12.62-1.28Z" fill="#01b1af"/>
    <path d="M492.43,160.72a26.8,26.8,0,0,1,13.66-.28,19.033,19.033,0,0,1,13.97,14.51,17.992,17.992,0,0,1-6.02,16.97c-7.94,6.93-21.02,6.9-28.93-.06-5.6-4.76-7.21-12.94-4.96-19.77a19.3,19.3,0,0,1,12.28-11.37m1.99,7.83c-7.76,3.32-7.9,15.82-.32,19.45,6.64,3.93,17.19-.71,16.63-9.05,1.27-8.61-9.15-14.24-16.31-10.4Z" fill="#01b1af"/>
    <path d="M528.21,160.32q4.545-.015,9.11.07c.07,7.18-.12,14.37.06,21.55.02,5.56,6.77,8.73,11.59,6.99,2.99-.96,5.83-3.62,5.69-6.97.19-7.19,0-14.38.06-21.56,2.99-.07,5.99-.09,8.99-.1-.02,7.25.08,14.5-.02,21.75.15,5.05-2.57,10.27-7.23,12.48-4.4,2.44-9.6,2.23-14.46,1.98-5.18-.33-10.4-3.25-12.56-8.11-1.37-2.58-1.24-5.58-1.28-8.4C528.2,173.44,528.18,166.88,528.21,160.32Z" fill="#01b1af"/>
    <path d="M617.24,160.33q4.6-.015,9.21.01c0,4.76.01,9.52,0,14.29,5.76.04,11.52.01,17.28.04.01-4.76.02-9.51-.01-14.26,3.01-.08,6.04-.1,9.06-.11.91,6.9-.41,13.83.16,20.75.47,5.15-.2,10.31-.14,15.47-3.03-.01-6.05-.02-9.06-.07,0-4.76-.02-9.52.02-14.28-5.78-.01-11.56-.05-17.33.03.04,4.76.02,9.52.03,14.28-3.08.03-6.15.03-9.22.03Q617.21,178.42,617.24,160.33Z" fill="#01b1af"/>
    <path d="M77.58,160.34c3.05-.02,6.09-.02,9.14-.02q.03,14.6,0,29.19c6.11.06,12.22.03,18.33.03.13,2.3.22,4.61.29,6.91-9.26.12-18.51.04-27.76.05Q77.565,178.41,77.58,160.34Z" fill="#01b1af"/>
    <path d="M443.77,160.41c6.04-.08,12.08-.23,18.12-.01,6.41.12,11.91,7.12,9.7,13.35-.64,2.64-2.97,4.22-5.07,5.65,4.64,4.73,6.45,11.26,9.33,17.06-3.37.05-6.73.05-10.08.05-2.19-4.22-3.52-8.97-6.59-12.69-1.29-1.98-3.81-1.53-5.82-1.8-.01,4.82,0,9.64-.01,14.46-3.2.03-6.39.03-9.57-.02q-.045-18.03-.01-36.05m9.71,6.87c-.01,2.58-.02,5.15-.02,7.73,2.56.17,5.33.57,7.68-.77,1.93-.95,1.92-3.64,1.09-5.33-2.14-2.56-5.87-1.29-8.75-1.63Z" fill="#01b1af"/>
  </g>
</svg>
