<svg xmlns="http://www.w3.org/2000/svg" viewBox="0 0 759.605 296.48">
  <g>
    <polygon points="130.92 134.614 130.92 11.622 74.366 134.614 68.129 134.614 11.569 11.622 11.569 134.614 5.672 134.614 5.672 2.778 14.003 2.778 71.425 127.672 128.669 2.778 136.823 2.778 136.823 134.614 130.92 134.614" fill="#231f20"/>
    <path d="M214.355,8.671,180.011,86.9h68.694ZM269.7,134.612,251.139,92.456H177.582l-18.559,42.156H152.78L211.232,2.251h6.592l58.47,132.361Z" fill="#231f20"/>
    <path d="M347.58,8.5H296.4V66.959h50.312c21.161,0,33.65-9.708,33.65-29.664,0-19.6-10.578-28.8-32.778-28.8m37.464,126.116L338.909,72.685H296.4v61.929H290.5V2.778h56.382c25.673,0,39.547,11.273,39.547,34.517,0,21.684-13.524,35.045-40.6,35.39l46.672,61.929Z" fill="#231f20"/>
    <polygon points="507.868 134.614 446.628 59.675 415.925 88.122 415.925 134.614 410.022 134.614 410.022 2.606 415.925 2.606 415.925 80.666 500.054 2.606 508.223 2.778 450.969 55.682 515.49 134.614 507.868 134.614" fill="#231f20"/>
    <path d="M567.187,137.388c-34,0-51.347-16.83-51.7-53.776h5.9c.527,31.049,12.667,48.051,46.149,48.051,24.974,0,41.454-11.62,41.454-29.492,0-45.962-89.332-16.822-89.332-68C519.663,13.014,535.616,0,565.447,0c29.664,0,43.72,15.272,47.012,41.641h-5.893c-3.119-24.814-16.835-35.916-40.932-35.916-28.466,0-39.911,11.792-39.911,28.272,0,45.284,89.17,15.79,89.17,68.357,0,21.5-20.644,35.034-47.706,35.034" fill="#231f20"/>
    <path d="M698.327,5.547c-14.918,0-24.461,10.061-24.461,21.86,0,7.117,5.916,17.348,17.352,31.578,16.135-9.028,31.226-17.694,31.226-32.27,0-11.627-9.026-21.168-24.117-21.168m-8.671,60.031c-15.958,9.183-30.7,19.074-30.7,35.9,0,18.914,17.338,30.187,34.518,30.187,15.09,0,28.447-7.986,37.123-19.781C713.6,93.148,699.89,78.057,689.656,65.578m61.412,69.034c-5.9-6.595-11.46-12.662-16.83-18.559-9.716,12.661-24.284,21.335-40.936,21.335-20.116,0-40.242-13.016-40.242-35.907,0-19.254,16.475-30.016,33.477-39.729-12.143-15.091-18.563-26.026-18.563-34C667.974,11.454,681.157,0,698.165,0c19.411,0,30.176,11.97,30.176,26.363,0,17.179-16.824,26.72-33.822,36.433,9.888,11.965,22.9,26.541,39.188,44.411a48.928,48.928,0,0,0,6.783-23.595H746.2a56.687,56.687,0,0,1-8.667,27.755c6.593,7.284,13.707,14.923,21.156,23.245Z" fill="#98c21f"/>
    <path d="M51.347,296.48c-34.01,0-51-16.834-51.347-53.781H5.888c.531,31.054,12.326,48.051,45.8,48.051,24.984,0,41.11-11.617,41.11-29.491,0-45.972-88.638-16.825-88.638-68,0-21.157,15.608-34.168,45.44-34.168,29.664,0,43.366,15.273,46.667,41.641h-5.9c-3.128-24.821-16.48-35.921-40.587-35.921-28.457,0-39.547,11.795-39.547,28.275,0,45.282,88.47,15.79,88.47,68.354,0,21.5-20.3,35.039-47.361,35.039" fill="#231f20"/>
    <path d="M163.057,167.591h-42.5v59.328h41.631c21.329,0,35.044-10.4,35.044-30.019,0-19.593-11.967-29.309-34.176-29.309m-2.607,65.044H120.558V293.7h-5.9V161.866h47.706c25.673,0,40.937,11.79,40.937,35.034,0,21.866-15.264,35.735-42.849,35.735" fill="#231f20"/>
    <polygon points="216.655 293.701 216.655 161.861 300.439 161.861 300.439 167.591 222.557 167.591 222.557 223.613 295.587 223.613 295.587 229.343 222.557 229.343 222.557 287.981 301.13 287.981 301.13 293.701 216.655 293.701" fill="#231f20"/>
    <polygon points="409.198 293.701 321.428 169.67 321.428 293.701 315.535 293.701 315.535 161.861 322.649 161.861 410.425 285.888 410.425 161.861 416.317 161.861 416.317 293.701 409.198 293.701" fill="#231f20"/>
    <path d="M489.869,296.48c-35.222,0-57.766-27.584-57.766-67.654,0-35.04,17-69.734,60.018-69.734,28.456,0,48.237,16.988,52.391,44.4h-6.247c-4.335-24.461-22.028-38.68-46.144-38.68-45.1,0-54.116,41.809-54.116,64.014,0,31.043,15.953,61.924,51.864,61.924,31.921,0,48.913-21.155,51.17-50.651h6.242c-2.419,30.7-20.643,56.381-57.412,56.381" fill="#231f20"/>
    <polygon points="562.372 293.701 562.372 161.861 646.156 161.861 646.156 167.591 568.274 167.591 568.274 223.613 641.304 223.613 641.304 229.343 568.274 229.343 568.274 287.981 646.847 287.981 646.847 293.701 562.372 293.701" fill="#231f20"/>
    <path d="M714.687,167.591H667.845v56.032h45.97c21.162,0,33.646-8.154,33.646-28.107,0-19.6-10.583-27.925-32.774-27.925M752.151,293.7,704.1,229.343H667.845V293.7h-5.9V161.861h52.037c25.684,0,39.562,10.415,39.562,33.655,0,21.86-13.878,33.827-41.464,33.827h-1.044L759.605,293.7Z" fill="#231f20"/>
  </g>
</svg>
