<svg xmlns="http://www.w3.org/2000/svg" viewBox="0 0 312.92 191">
  <g id="logo-leonardo-nyx-hotels-6">
    <g id="hotels">
      <path d="M88.01,158c1.19,0,2.38,0,3.58,.01,.05,4.76,.01,9.53,.03,14.29,2.59,0,5.18,0,7.76,.02,.01-4.77,0-9.54,0-14.31,1.2-.01,2.4-.02,3.6-.02,.01,10.66,.03,21.33,0,32-1.2-.02-2.4-.03-3.6-.03,0-4.82,.01-9.64,0-14.46-2.59,0-5.18,0-7.76,.02-.02,4.82,0,9.63-.02,14.45-1.2,0-2.4,0-3.58,0-.02-10.66-.02-21.33,0-31.99h0Z"/>
      <path d="M118.12,158.68c2.71-1.14,6.08-.86,8.4,.99,1.89,1.62,2.49,4.22,2.47,6.61-.01,5.76,.04,11.51-.03,17.27,.02,3-1.64,6.22-4.69,7.11-2.68,.58-5.92,.6-7.99-1.44-1.87-1.75-2.29-4.41-2.28-6.83,.03-5.56-.04-11.13,.03-16.69,.03-2.8,1.25-5.97,4.08-7.02m1.34,3.18c-1.46,.94-1.93,2.77-1.83,4.4,.08,6.05-.1,12.11,.09,18.15,.11,3.01,3.9,4.14,6.15,2.63,1.77-1.44,1.4-3.99,1.48-6-.16-5.54,.26-11.12-.22-16.64-.21-2.67-3.55-3.79-5.68-2.53h0Z"/>
      <path d="M140,158.02c5.33-.02,10.66,.01,16-.02,0,1.1-.01,2.21-.01,3.32h-6.06c-.02,9.55,0,19.11-.01,28.67-1.24,0-2.48,0-3.72,.01-.03-9.55,0-19.1-.02-28.65-2.04-.04-4.09-.03-6.14-.05-.02-1.1-.03-2.2-.04-3.29h0Z"/>
      <path d="M166.03,158h12.96c0,1.1-.01,2.2-.02,3.31-3.18,.03-6.36-.04-9.53,.07-.02,3.58,0,7.17,0,10.76,2.59,.05,5.19,.04,7.78,.02,0,1.04,0,2.09,.02,3.15-2.56,.11-5.12,.07-7.69,.08-.24,3.72-.08,7.46-.12,11.19,3.19,.11,6.38,.03,9.57,.09,0,1.09,0,2.19,.01,3.29-4.31,.07-8.63,0-12.94,.05-.12-10.67-.03-21.33-.04-32h0Z"/>
      <path d="M191.01,158.02c1.22-.01,2.45-.02,3.67-.01,0,9.54,.01,19.08,0,28.62,3.1,.05,6.21,0,9.32,.05,0,1.1,0,2.2,0,3.3-4.33,.05-8.65,.01-12.97,.03-.05-10.66-.01-21.32-.01-31.98h0Z"/>
      <path d="M212.13,161.23c1.79-3.56,6.79-4.01,9.93-2.16,2.55,1.6,2.87,4.89,2.95,7.64-1.08,0-2.15,0-3.22-.01-.19-1.74-.09-3.88-1.69-5-1.54-.65-3.79-.69-4.79,.9-1.33,2.4-.72,5.49,1.06,7.48,2.06,2.33,4.89,3.87,6.77,6.39,2.11,2.71,2.34,6.57,1.14,9.71-1.94,4.8-9.66,5.13-12.16,.7-1.1-2.01-1.12-4.36-1.09-6.59,1.08-.01,2.17-.01,3.26,0,.13,2.05-.31,4.76,1.74,6.02,1.55,.73,3.88,.61,4.82-1.05,1.21-2.21,.79-5.13-.8-7.04-1.97-2.4-4.74-3.97-6.71-6.38-2.49-2.86-2.76-7.23-1.2-10.61h0Z"/>
    </g>
    <g id="nyx">
      <path d="M.02,.1c4.11-.06,8.22-.05,12.33-.02,14.27,39.89,28.21,79.91,42.67,119.73,.32-39.91,0-79.83,.16-119.74,2.87-.01,5.74-.01,8.62,0-.02,47.58,.02,95.15-.02,142.72-3.52,0-7.03,.03-10.54-.02C38.46,100.74,23.87,58.64,8.92,16.67c-.43,42.04-.02,84.08-.2,126.12-2.91,0-5.81,0-8.71,.02C.01,95.23-.02,47.66,.01,.09h0Z"/>
      <path d="M113.88,.09c3.25-.04,6.5-.03,9.75-.03,9.14,24.85,18.03,49.8,27.25,74.62C160.43,49.96,168.99,24.85,178.34,.04c3,.02,6.01,0,9.02,.06-9.43,26.49-19.32,52.81-28.93,79.24-1.28,3.89-3.48,7.66-3.18,11.89,.08,17.17-.05,34.35,.06,51.52-3.12,.07-6.24,.06-9.35,.13-.19-17.56-.04-35.11-.08-52.67,.02-1.28-.19-2.52-.6-3.71C134.86,57.68,124.22,28.94,113.88,.09h0Z"/>
      <path d="M238.3,.1c3.04-.02,6.09-.19,9.13,.06,1.29,.48,1.39,2.11,2.05,3.16,8.37,19.31,16.84,38.58,25.34,57.84,9.4-20.07,17.82-40.61,27.14-60.71,2.86-.83,5.94-.24,8.9-.35-8.46,20.2-17.46,40.16-26.14,60.26-1.16,2.92-2.79,5.68-3.52,8.74,10.47,24.61,21.35,49.06,31.72,73.71-3.31,.02-6.62,0-9.92,0-9.62-22.02-19.18-44.07-28.82-66.08-10.05,21.84-19.29,44.06-28.99,66.07-3.02,.01-6.04,.02-9.06,0,10.17-24.38,21.02-48.47,31.47-72.73,.88-1.41-.31-2.89-.73-4.21-9.53-21.92-19.28-43.74-28.57-65.76h0Z"/>
    </g>
  </g>
</svg>