<svg xmlns="http://www.w3.org/2000/svg" viewBox="0 0 1101.61 442.226">
  <g>
    <g>
      <path d="M374.81.2a72.2,72.2,0,0,1,40.7,8.97,73,73,0,0,1,8.38,122.17,72.22,72.22,0,0,1-52,14.28c-28.68-3-54.14-24.7-61.8-52.47a72.975,72.975,0,0,1,6.57-56.08C328.34,16.136,350.86,1.756,374.81.2Z" fill="#cc2229"/>
      <path d="M272.38,279q61.875-63,123.86-125.88,55.635,55.17,111.14,110.48c17.68-17.79,35.71-35.21,53.4-52.98-.02,17.15.28,34.3.27,51.46q-90.375,90.09-180.78,180.15c-8.47-8.38-16.89-16.81-25.36-25.18,10.12-9.5,20.27-18.97,30.32-28.55q-42.42-43.545-84.95-86.96c-9.25,8.99-18.52,17.98-27.87,26.87C272.37,311.936,272.41,295.466,272.38,279Z" fill="#cc2229"/>
    </g>
    <g>
      <path d="M829.81,116.116q73.92-.06,147.81-.02c12.92-.1,25.85.2,38.78-.16.11,14.56.01,29.12.05,43.69-9.69-.03-19.38-.01-29.06-.01q0,72.51,0,145.02c37.86-20.86,75.86-41.47,113.73-62.3.14,37.18.23,74.36.49,111.54q-136.395.075-272.79.03c.04-15.05,0-30.1.02-45.15,10.11.01,20.22-.01,30.34.01q.15-74.58.22-149.16H830.06C830,145.106,829.95,130.616,829.81,116.116Z" fill="#1e71b8"/>
      <path d="M.84,162.346c.1-14.57.19-29.14.18-43.71q93.21-.015,186.42-.01.03,21.855.01,43.71c-9.65.03-19.29-.02-28.94.03.24,48.28,0,96.56.12,144.84q56.835-31.11,113.69-62.18.03,16.98.06,33.97c.03,16.47-.01,32.94.03,49.41.05,9.4.04,18.79.04,28.18q-136.23,0-272.45,0,.015-22.47,0-44.93c10.06-.02,20.12.01,30.17-.01q.03-74.655.15-149.31Q15.575,162.366.84,162.346Z" fill="#1e71b8"/>
      <path d="M528.05,119.166q97.275.015,194.55.01c18.34-.02,36.88,4.49,52.53,14.22,15.61,9.58,27.83,24.17,35.51,40.72,9.27,19.88,12.63,42.07,12.48,63.87-.4,20.14-4.01,40.5-12.82,58.74a98.051,98.051,0,0,1-32.54,38.49c-16.4,11.36-36.38,17.03-56.25,17.18q-96.42.06-192.84.03.015-20.865,0-41.73,16.26.015,32.53,0c-.08-16.21-.1-32.41-.15-48.62.01-17.16-.29-34.31-.27-51.46-.02-16.86-.12-33.71-.1-50.56-10.88-.2-21.76-.04-32.63-.1q.015-20.4,0-40.79m154.32,160.37c10.92-.09,22.4-3.57,29.86-11.91,8.49-9.29,11.18-22.36,11.27-34.61.21-12.66-2.6-26.1-11.11-35.87-7.23-8.53-18.54-12.72-29.54-12.78C682.69,216.1,682.38,247.816,682.37,279.536Z" fill="#1e71b8"/>
    </g>
  </g>
</svg>
