<svg xmlns="http://www.w3.org/2000/svg" viewBox="0 0 204.1 19.1">
  <g fill="#215C4E">
    <path d="M0.8,18.2c-0.3-1.7-0.6-3.4-0.8-5.1L0.3,13c0.5,1.2,1.3,2.2,2.2,3.1c1,1,2.1,1.8,3.3,2.5v0.3C4.2,19.1,2.4,18.8,0.8,18.2z   M7.1,18.7c1.4-0.7,2.3-2,2.4-3.6c0-0.5-0.2-1-0.5-1.5c-1-1-2.1-1.8-3.4-2.3C4.3,10.7,3,9.9,1.9,8.9c-1.9-1.9-2-5.1,0-7  C2,1.8,2.1,1.7,2.2,1.6c1-0.8,2.2-1.2,3.4-1.4v0.3C4.3,1.2,3.5,2.6,3.5,4.1c0,0.9,0.3,1.8,1,2.4c1,0.9,2.2,1.6,3.5,2.1  c2.3,1.2,4.6,2.4,4.6,5.1c0,1.4-0.6,2.7-1.6,3.6c-1.1,0.9-2.4,1.4-3.8,1.5L7.1,18.7z M9.8,3C9,2,8,1.2,7,0.5V0.2  c1.6,0,3.2,0.3,4.7,0.8c0.2,1.1,0.3,3.2,0.5,4.9L11.9,6C11.3,4.9,10.6,3.9,9.8,3L9.8,3z"></path>
    <path d="M33.8,18.4c0.5-0.2,0.9-0.5,1.3-0.8c1.4-1.3,2.6-2.8,3.4-4.5l0.3,0.1c-0.1,0.3-0.1,0.7-0.1,1c-0.1,1.2,0.3,2.5,1.1,3.4  c0.4,0.3,0.8,0.6,1.3,0.8v0.3c-1.1,0-2.9-0.1-4.1-0.1c-1.2,0-2.8,0.1-3,0.1L33.8,18.4z M46,18.4c1-0.2,1.8-0.8,2.1-1.8  c-0.1-0.7-0.2-1.5-0.5-2.1c-0.3-0.8-0.8-1.8-1.1-2.7c-1,0-2,0-3.3,0s-3.3,0-4.3,0l0.3-0.6c1,0.1,2.9,0.1,3.9,0.1s2.1,0,3-0.1  c-1-2.3-2-4.5-3.7-7.8c0.5-1.3,1-2.6,1.3-3.4h0.4c0.8,1.9,1.6,3.8,2.5,5.6c1.6,3.6,3.7,8.1,4.8,10c0.6,1.3,1.7,2.2,3,2.8v0.3  c-0.5,0-2.6-0.1-4.1-0.1c-1,0-2.9,0.1-4.3,0.1L46,18.4z"></path>
    <path d="M114.5,18.4c0.6-0.1,1.2-0.4,1.8-0.8c0.6-0.6,1-1.3,1.1-2.2c0.2-2.1,0.3-4.1,0.3-6.2c0-3.9,0-6.1-0.8-7.1  c-0.6-0.8-1.5-1.3-2.5-1.4V0.4c1,0,3,0.1,4.5,0.1c1.4,0,3.3-0.1,4.4-0.1v0.3c-1.2,0.2-2.1,1-2.4,2.1c-0.3,2.1-0.4,4.2-0.3,6.3  c0,5,0.1,6.8,0.8,7.9c0.4,0.7,1.1,1.2,1.9,1.4v0.3c-1.1,0-2.9-0.1-4.2-0.1c-1.5,0-3.7,0.1-4.6,0.1L114.5,18.4z"></path>
    <path d="M150.3,4.3c-0.8-0.9-1.7-1.7-2.6-2.5c-0.6-0.5-1.4-0.9-2.2-1.1V0.4c0.8,0,1.9,0.1,2.8,0.1s1.5-0.1,2-0.1  c0.2,0,0.4,0,0.6,0.1c3.7,4.5,8.7,10,11.8,13.4l1,1c0,1.4,0.1,2.9,0.1,4.1l-0.5,0.1C159.2,14.2,154.1,8.4,150.3,4.3z M146.2,18.4  c0.6-0.2,1.2-0.7,1.6-1.2c0.9-1.2,1.5-2.6,1.7-4.1h0.4c0.1,1.5,0.7,2.9,1.7,4c0.6,0.6,1.4,1,2.2,1.2v0.3c-0.5,0-2.8-0.1-4.2-0.1  c-1.2,0-2.8,0.1-3.4,0.1L146.2,18.4z M161.9,2.8c-0.6-1-1.6-1.8-2.7-2.1V0.4c0.9,0,2.8,0.1,4,0.1s3-0.1,3.7-0.1v0.3  c-0.8,0.3-1.5,0.8-2,1.4c-0.8,1.1-1.3,2.5-1.5,3.8H163C162.9,4.9,162.5,3.8,161.9,2.8L161.9,2.8z"></path>
    <path d="M76.4,18.4c1.3-0.2,2.4-1.2,2.7-2.5c0.3-2.2,0.4-4.3,0.4-6.5c0-2,0-3.9-0.2-5.2c0-1-0.4-2-1.1-2.7c-0.7-0.4-1.4-0.7-2.2-0.8  V0.4c0.9,0.1,3.1,0.1,4.2,0.1c0.6,0,1.9,0,2.7-0.1v0.3c-0.4,1.1-0.5,3.8-0.5,6.9v4.3c0,1.3,0.1,2.7,0.3,4c0.1,1.2,1,2.2,2.1,2.5v0.3  c-1.2-0.1-2.9-0.1-4-0.1c-1.4,0-4.2,0.1-4.4,0.1V18.4z M86.2,18.4c1.9-0.7,3.1-2.6,3.1-4.6c0.1-1.1-0.3-2.1-1.1-2.9  c-1.1-1-2.5-1.5-3.9-1.4h-0.4V9h1.5c2.8,0,4.6,0.4,5.8,1.2c1,0.7,1.6,1.9,1.6,3.1c0,1.6-0.7,3-1.9,4c-1.3,1-2.9,1.5-4.5,1.5  L86.2,18.4z M87.8,8.2c0.4-0.8,0.7-1.8,0.7-2.7c-0.1-2.4-1.8-4.4-4.2-4.8V0.4h0.2c2.2,0,4.2,0.2,5.6,1.3c1,0.6,1.5,1.7,1.6,2.8  c0,1.8-1.4,3.2-3.7,3.9L87.8,8.2z"></path>
    <path d="M114.5,18.4c0.6-0.1,1.2-0.4,1.8-0.8c0.6-0.6,1-1.3,1.1-2.2c0.2-2.1,0.3-4.1,0.3-6.2c0-3.9,0-6.1-0.8-7.1  c-0.6-0.8-1.5-1.3-2.5-1.4V0.4c1,0,3,0.1,4.5,0.1c1.4,0,3.3-0.1,4.4-0.1v0.3c-1.2,0.2-2.1,1-2.4,2.1c-0.3,2.1-0.4,4.2-0.3,6.3  c0,5,0.1,6.8,0.8,7.9c0.4,0.7,1.1,1.2,1.9,1.4v0.3c-1.1,0-2.9-0.1-4.2-0.1c-1.5,0-3.7,0.1-4.6,0.1L114.5,18.4z"></path>
    <path d="M188.5,18.4c0.8-0.2,1.6-0.6,2.2-1.2c0.6-0.9,0.9-2,0.8-3.1c0.1-0.7,0.1-2.1,0.1-3.1V9.7c0-1.9,0-3.6-0.1-4.8  c0-0.9-0.2-1.8-0.6-2.6c-0.3-0.5-0.8-0.8-1.3-1.1c-0.5-0.2-1-0.3-1.5-0.4V0.5c0.9,0.1,3.8,0.1,4.5,0.1c0.8,0,1.7,0,2.5,0v0.3  c-0.4,1-0.5,3.3-0.5,7.8v1.5c0,1.6,0,3.3,0.1,4.9c0,1.1,0.4,2.1,1.1,2.9c0.3,0.3,0.7,0.5,1.1,0.5v0.3c-1.6,0-2.9,0-4,0  c-1.5,0-3.4,0-4.4,0.1L188.5,18.4z M199.8,10.6c-0.5-0.5-1.2-0.8-1.9-0.9c-0.7-0.1-1.4-0.1-2.1-0.1V9.1c0.8,0,1.5,0,2.3-0.1  c0.6-0.1,1.1-0.3,1.5-0.6c0.5-0.4,1-1,1.2-1.6l0.3,0.1C201,7.6,201,8.7,201,9.5c0,0.9,0,1.8,0,2.4h-0.3  C200.5,11.4,200.2,11,199.8,10.6L199.8,10.6z M200.4,2.6c-1.2-0.9-2.6-1.6-4.1-1.9V0.4c1.7,0,2.9-0.1,3.8-0.1c1,0,1.9,0,2.5,0.1  c0.3,1.6,0.2,2.5,0.5,4.9l-0.3,0.1C202.2,4.4,201.4,3.4,200.4,2.6L200.4,2.6z M198.3,18.7v-0.3c1.1-0.4,2.2-1,3.1-1.8  c1-0.8,1.8-1.8,2.4-2.9l0.3,0.1c-0.3,1.8-0.5,3.6-0.8,4.9c-0.4,0-1.4,0.1-1.9,0.1C200.3,18.8,199.3,18.8,198.3,18.7z"></path>
  </g>
</svg>