<svg xmlns="http://www.w3.org/2000/svg" viewBox="0 0 108.695 45.66">
  <g>
    <path d="M8.916.713A.706.706,0,0,1,9.106.19.7.7,0,0,1,9.628,0h.832a.706.706,0,0,1,.523.19.71.71,0,0,1,.19.523v10.22a5.762,5.762,0,0,1-.417,2.224,4.92,4.92,0,0,1-1.165,1.722A5.415,5.415,0,0,1,7.82,16a6.005,6.005,0,0,1-2.234.4A6.013,6.013,0,0,1,3.352,16a5.436,5.436,0,0,1-1.771-1.117A4.974,4.974,0,0,1,.416,13.157,5.821,5.821,0,0,1,0,10.933V.713A.706.706,0,0,1,.19.19.7.7,0,0,1,.712,0h.833a.708.708,0,0,1,.523.19.7.7,0,0,1,.193.523v10.22a3.419,3.419,0,0,0,.855,2.377,3.159,3.159,0,0,0,2.472.951A3.155,3.155,0,0,0,8.06,13.31a3.423,3.423,0,0,0,.856-2.377ZM25.2,16.162a.78.78,0,0,1-.535-.177,2.324,2.324,0,0,1-.416-.535L18.209,4.872c-.079-.127-.162-.174-.249-.143a.224.224,0,0,0-.131.238V15.449a.657.657,0,0,1-.714.712h-.831a.657.657,0,0,1-.713-.712V.713a.706.706,0,0,1,.19-.523A.7.7,0,0,1,16.284,0h.926a1.221,1.221,0,0,1,.595.13,1.17,1.17,0,0,1,.428.463l5.775,10.055a.219.219,0,0,0,.226.119c.086-.015.131-.087.131-.214V.713a.7.7,0,0,1,.19-.523A.7.7,0,0,1,25.078,0h.832a.7.7,0,0,1,.522.19.706.706,0,0,1,.191.523V15.45a.659.659,0,0,1-.713.712Zm6.654,0a.656.656,0,0,1-.712-.712V.713A.709.709,0,0,1,31.329.19.706.706,0,0,1,31.852,0h.832a.708.708,0,0,1,.524.19A.709.709,0,0,1,33.4.713V15.45a.656.656,0,0,1-.713.712Zm10.1,0a.657.657,0,0,1-.713-.712V2.377A.209.209,0,0,0,41,2.14H37.438a.7.7,0,0,1-.523-.191.7.7,0,0,1-.19-.523V.713a.7.7,0,0,1,.19-.523A.7.7,0,0,1,37.438,0H47.3a.708.708,0,0,1,.524.19.709.709,0,0,1,.189.523v.712a.708.708,0,0,1-.189.523.709.709,0,0,1-.524.191H43.737a.209.209,0,0,0-.238.237V15.449a.657.657,0,0,1-.713.712h-.832Zm9.886,0a.657.657,0,0,1-.713-.712V.713a.706.706,0,0,1,.19-.523A.7.7,0,0,1,51.84,0h7.844a.708.708,0,0,1,.523.19A.713.713,0,0,1,60.4.713v.712a.712.712,0,0,1-.189.523.71.71,0,0,1-.523.191h-6.06a.21.21,0,0,0-.239.237V6.654a.21.21,0,0,0,.239.238h5.583a.659.659,0,0,1,.714.712v.714a.659.659,0,0,1-.714.712H53.624a.211.211,0,0,0-.239.238v4.515a.211.211,0,0,0,.239.239h6.535a.657.657,0,0,1,.712.712v.714a.659.659,0,0,1-.712.712H51.84ZM.739,33.724a.637.637,0,0,1,.511-.214.832.832,0,0,1,.487.214c.126.111.269.233.428.368a3.2,3.2,0,0,0,1.26.641,3.6,3.6,0,0,0,.927.106,2.789,2.789,0,0,0,1.877-.629,2,2,0,0,0,.737-1.58,2.289,2.289,0,0,0-.654-1.712,8.033,8.033,0,0,0-2.08-1.331,13.314,13.314,0,0,1-1.628-.9,6.22,6.22,0,0,1-1.248-1.07,4.192,4.192,0,0,1-.8-1.343,5.013,5.013,0,0,1-.272-1.725A4.125,4.125,0,0,1,.6,22.98a3.952,3.952,0,0,1,.9-1.344A4.571,4.571,0,0,1,2.938,20.7a4.8,4.8,0,0,1,1.889-.356,4.793,4.793,0,0,1,2.318.523,6.627,6.627,0,0,1,1.533,1.094.622.622,0,0,1,0,1l-.546.571a.72.72,0,0,1-.452.25.731.731,0,0,1-.5-.25,5.853,5.853,0,0,0-.951-.665,2.711,2.711,0,0,0-1.4-.379,2.535,2.535,0,0,0-.963.177,2.593,2.593,0,0,0-.76.464,2.077,2.077,0,0,0-.5.653,1.762,1.762,0,0,0-.178.772,2.592,2.592,0,0,0,.154.929,2.327,2.327,0,0,0,.475.748,3.818,3.818,0,0,0,.833.652,9.294,9.294,0,0,0,1.248.619,13.7,13.7,0,0,1,1.735.9,5.937,5.937,0,0,1,1.284,1.057,4.065,4.065,0,0,1,.8,1.332,5.022,5.022,0,0,1,.273,1.724,3.936,3.936,0,0,1-.381,1.71A4.459,4.459,0,0,1,7.8,35.639a5.354,5.354,0,0,1-1.557.975,4.917,4.917,0,0,1-1.89.368,5.461,5.461,0,0,1-2.531-.487,5.863,5.863,0,0,1-1.6-1.248A.731.731,0,0,1,0,34.771a.642.642,0,0,1,.214-.523Zm16.567,3.019a.656.656,0,0,1-.713-.712V22.956a.211.211,0,0,0-.237-.238H12.79a.657.657,0,0,1-.713-.712v-.713a.659.659,0,0,1,.713-.713h9.864a.657.657,0,0,1,.713.713v.713a.656.656,0,0,1-.713.712H19.089a.21.21,0,0,0-.237.238V36.029a.7.7,0,0,1-.19.523.713.713,0,0,1-.523.189h-.833Zm18.182-15.45a.659.659,0,0,1,.713-.713h.833a.657.657,0,0,1,.713.713v10.22a5.759,5.759,0,0,1-.417,2.222,4.931,4.931,0,0,1-1.165,1.725,5.4,5.4,0,0,1-1.771,1.116,6.364,6.364,0,0,1-4.468,0,5.45,5.45,0,0,1-1.771-1.116,4.913,4.913,0,0,1-1.165-1.725,5.79,5.79,0,0,1-.417-2.222V21.293a.659.659,0,0,1,.714-.713h.832a.657.657,0,0,1,.713.713v10.22a3.418,3.418,0,0,0,.855,2.377,3.149,3.149,0,0,0,2.472.95,3.149,3.149,0,0,0,2.472-.95,3.422,3.422,0,0,0,.854-2.377V21.293Zm7.37,15.45a.657.657,0,0,1-.714-.712V21.293a.66.66,0,0,1,.714-.713h4.159a6.277,6.277,0,0,1,2.389.441,5.507,5.507,0,0,1,1.842,1.2,5.3,5.3,0,0,1,1.176,1.808,6.056,6.056,0,0,1,.416,2.258v4.753a6.063,6.063,0,0,1-.416,2.258A5.3,5.3,0,0,1,51.248,35.1a5.512,5.512,0,0,1-1.842,1.2,6.33,6.33,0,0,1-2.389.438Zm7.724-10.458a4.059,4.059,0,0,0-.262-1.5,3.19,3.19,0,0,0-.736-1.13,3.135,3.135,0,0,0-1.13-.7,4.21,4.21,0,0,0-1.438-.238H44.639a.211.211,0,0,0-.237.238V34.365a.21.21,0,0,0,.237.238h2.377a4.176,4.176,0,0,0,1.438-.238,3.222,3.222,0,0,0,1.13-.689,3.072,3.072,0,0,0,.736-1.116,4.124,4.124,0,0,0,.262-1.521Zm7.033,10.458a.655.655,0,0,1-.712-.712V21.293a.656.656,0,0,1,.712-.713h7.842a.656.656,0,0,1,.714.713v.713a.655.655,0,0,1-.714.712H59.4a.212.212,0,0,0-.24.238v4.279a.21.21,0,0,0,.24.236h5.584a.66.66,0,0,1,.712.713V28.9a.657.657,0,0,1-.712.711H59.4a.212.212,0,0,0-.24.238v4.516a.211.211,0,0,0,.24.238h6.535a.652.652,0,0,1,.711.712v.713a.707.707,0,0,1-.188.523.723.723,0,0,1-.523.189h-8.32Zm22.7,0a.79.79,0,0,1-.535-.179,2.36,2.36,0,0,1-.414-.534L73.326,25.453c-.078-.127-.162-.174-.25-.143a.224.224,0,0,0-.131.238V36.029a.7.7,0,0,1-.189.523.713.713,0,0,1-.523.189H71.4a.655.655,0,0,1-.714-.712V21.293a.656.656,0,0,1,.714-.713h.926a1.22,1.22,0,0,1,.594.132,1.177,1.177,0,0,1,.428.463L79.128,31.23a.212.212,0,0,0,.225.118c.088-.014.131-.087.131-.215V21.294a.659.659,0,0,1,.712-.713h.832a.659.659,0,0,1,.712.713V36.031a.7.7,0,0,1-.191.523.712.712,0,0,1-.521.189Zm9.985,0a.655.655,0,0,1-.712-.712V22.956a.21.21,0,0,0-.236-.238H85.783a.657.657,0,0,1-.714-.712v-.713a.659.659,0,0,1,.714-.713h9.863a.656.656,0,0,1,.712.713v.713a.655.655,0,0,1-.712.712H92.08a.21.21,0,0,0-.236.238V36.029a.655.655,0,0,1-.712.712H90.3Zm9.7-3.019a.638.638,0,0,1,.512-.214.824.824,0,0,1,.486.214c.127.111.271.233.43.368a2.933,2.933,0,0,0,.545.368,3.218,3.218,0,0,0,.715.273,3.6,3.6,0,0,0,.926.106,2.8,2.8,0,0,0,1.879-.629,1.993,1.993,0,0,0,.734-1.58,2.292,2.292,0,0,0-.652-1.712,8.051,8.051,0,0,0-2.078-1.331,13.351,13.351,0,0,1-1.631-.9,6.281,6.281,0,0,1-1.248-1.07,4.218,4.218,0,0,1-.8-1.343,5.012,5.012,0,0,1-.273-1.725,4.144,4.144,0,0,1,.309-1.567,3.944,3.944,0,0,1,.9-1.344A4.571,4.571,0,0,1,102.2,20.7a5.3,5.3,0,0,1,4.207.167,6.611,6.611,0,0,1,1.531,1.094.621.621,0,0,1,0,1l-.545.57a.577.577,0,0,1-.951,0,5.91,5.91,0,0,0-.949-.665,2.721,2.721,0,0,0-1.4-.379,2.542,2.542,0,0,0-.965.177,2.614,2.614,0,0,0-.76.464,2.125,2.125,0,0,0-.5.653,1.762,1.762,0,0,0-.178.772,2.548,2.548,0,0,0,.156.929,2.287,2.287,0,0,0,.473.748,3.987,3.987,0,0,0,.832.652,9.72,9.72,0,0,0,1.248.619,13.413,13.413,0,0,1,1.734.9,5.944,5.944,0,0,1,1.285,1.057,4.156,4.156,0,0,1,.8,1.332,5.022,5.022,0,0,1,.273,1.724,3.936,3.936,0,0,1-.381,1.71,4.45,4.45,0,0,1-1.047,1.416,5.3,5.3,0,0,1-1.557.975,4.912,4.912,0,0,1-1.889.368,5.476,5.476,0,0,1-2.533-.487,5.854,5.854,0,0,1-1.6-1.248.725.725,0,0,1-.215-.476.637.637,0,0,1,.215-.523l.522-.523Z" fill="#fff"/>
    <path d="M3.4,43.42H107.981a.7.7,0,0,0,.523-.189.71.71,0,0,0,.191-.524v-.833a.663.663,0,0,0-.714-.714H.717a.7.7,0,0,0-.523.193.7.7,0,0,0-.19.521v.833a.708.708,0,0,0,.19.524.705.705,0,0,0,.523.189H4.05" fill="#ffdc00"/>
    <path d="M52.516,43.414a.7.7,0,0,1,.52.188.708.708,0,0,1,.19.523v.826a.653.653,0,0,0,.708.709h.83a.654.654,0,0,0,.711-.709v-.826a.71.71,0,0,1,.186-.523.7.7,0,0,1,.521-.188" fill="#ffdc00"/>
  </g>
</svg>
