<svg xmlns="http://www.w3.org/2000/svg" viewBox="0 0 111 52">
  <g>
    <path d="M74.424,30.555c3.563,0,6.132,2.521,6.132,7.054,0,4.589-2.9,6.969-6.409,6.969a4.875,4.875,0,0,1-4.365-2.125H69.7c-.028,2.436-.083,4.391.027,8.131l2.293-.057c.138,0,.194.17.194.566,0,.369-.083.567-.194.567H63.9c-.138,0-.193-.17-.193-.567s.083-.566.193-.566l2.238.057c.107-1.868.136-4.536.138-7.2v-.25c0-3.145-.055-7.082-.138-11.162l-2.486.057c-.139,0-.194-.2-.194-.538,0-.4.083-.567.194-.567h5.8c.166,0,.221.085.221.227l-.055,1.813.055.028A5.443,5.443,0,0,1,74.424,30.555ZM28.7,25.257c.111,0,.221.17.221.567s-.11.566-.221.566l-1.961-.056L21.631,44.153a.237.237,0,0,1-.221.2H19.227a.237.237,0,0,1-.248-.2l-4.945-14.76L9.31,44.181c-.028.113-.083.2-.221.2H6.906a.242.242,0,0,1-.248-.2L1.879,26.39l-1.658.057c-.11,0-.221-.2-.221-.567s.111-.566.221-.566H8.205c.11,0,.221.17.221.566s-.111.567-.221.567L6.243,26.39,9.448,40.13l4.5-14.618a.233.233,0,0,1,.221-.17h2.376a.224.224,0,0,1,.248.2l4.863,14.732,3.619-13.938-2.128.056c-.11,0-.221-.2-.221-.566s.111-.567.221-.567Zm6.05,5.864c-.055,2.352-.083,4.476-.083,6.4s.028,3.569.083,5.581l1.989-.057c.138,0,.194.17.194.567,0,.368-.083.538-.194.538H28.924c-.138,0-.193-.2-.193-.538,0-.4.083-.567.193-.567l2.238.057c.083-2.012.11-3.655.11-5.5s-.027-3.8-.11-5.638l-2.238.057c-.138,0-.193-.2-.193-.538,0-.4.083-.567.193-.567h5.608C34.67,30.9,34.753,30.98,34.753,31.121Zm23.427-.595c2.32,0,3.784,1.105,3.784,4.193v1.435c0,2.577.008,4.865.055,6.951l1.989-.057c.138,0,.193.17.193.567,0,.368-.083.538-.193.538H56.5c-.139,0-.194-.2-.194-.538,0-.4.083-.567.194-.567l1.906.057c.055-2.465.083-4.93.083-7.933,0-2.238-.47-2.861-1.658-2.861-1.8,0-3.785,1.785-3.785,5.213v1.7c0,1.572.012,1.964.055,3.881l1.547-.057c.138,0,.193.17.193.567,0,.368-.083.538-.193.538H47.6c-.138,0-.193-.2-.193-.538,0-.4.083-.567.193-.567l1.906.057c.055-2.465.083-4.93.083-7.933,0-2.294-.525-2.861-1.63-2.861-1.768,0-3.812,1.785-3.812,5.213,0,2.379.027,3.654.055,5.581l1.575-.057c.138,0,.193.17.193.567,0,.368-.083.538-.193.538h-7.4c-.138,0-.193-.2-.193-.538,0-.4.083-.567.193-.567l2.238.057c.055-1.757.11-3.712.11-5.808,0-1.841-.055-3.569-.11-5.326l-2.238.057c-.138,0-.193-.2-.193-.538,0-.4.083-.567.193-.567h5.58c.166,0,.221.085.221.227-.055.708-.082,1.756-.11,2.606l.055.028a5.684,5.684,0,0,1,5.194-3.229c2.2,0,3.415.961,3.716,3.1l0,.023.02-.037A5.637,5.637,0,0,1,58.18,30.526Zm15.332,1.36c-2.1,0-3.84,1.955-3.84,5.694,0,3.882,1.74,5.61,3.84,5.61,1.961,0,3.149-1.672,3.149-5.61C76.661,33.614,75.473,31.886,73.512,31.886Zm29.559-.963c.139,0,.194.2.194.567s-.083.538-.194.538l-1.906-.057c1.022,2.861,2.155,5.751,3.481,8.811l3.232-8.811-1.464.057c-.138,0-.193-.2-.193-.538,0-.4.083-.567.193-.567h4.393c.138,0,.193.2.193.567s-.083.538-.193.538l-1.437-.057-6.354,15.78c-.829,2.068-1.8,4.249-4.641,4.249-1.768,0-3.039-.992-3.039-2.55a1.83,1.83,0,0,1,1.906-1.983,1.792,1.792,0,0,1,1.879,1.927,1.846,1.846,0,0,1-.332,1.048.261.261,0,0,0,.028.283.459.459,0,0,0,.332.142c.856,0,1.657-.538,2.6-2.946l1.05-2.692c-1.409-3.654-4.006-10-5.5-13.258l-1.52.057c-.138,0-.193-.2-.193-.538,0-.4.083-.567.193-.567Zm-13.785-.4c4.061,0,6.05,2.55,6.05,6.318,0,.17-.083.226-.221.226H85.971v.4c0,3.853,1.658,5.921,3.923,5.921a4.958,4.958,0,0,0,4.42-2.691c.111-.2.967.368.884.566a6.248,6.248,0,0,1-5.884,3.286c-4.641,0-7.21-2.464-7.21-7.054C82.1,32.991,84.756,30.526,89.286,30.526ZM88.927,31.6c-1.685,0-2.68,1.416-2.9,4.419l5.332-.141C91.5,33.133,90.557,31.6,88.927,31.6Z" fill="#3b1953"/>
    <path d="M38.576,8.782c.111,0,.193.169.193.562,0,.364-.055.561-.193.561h0l-1.9-.056c1.019,2.834,2.148,5.7,3.47,8.726h0l3.221-8.7-1.459.056c-.11,0-.193-.2-.193-.561s.055-.562.193-.562h4.351c.11,0,.192.169.192.562,0,.364-.055.561-.192.561h0l-1.432-.056L38.494,25.505c-.826,2.049-1.79,4.209-4.626,4.209-3.359,0-3.194-2.721-3.167-2.721a2.162,2.162,0,1,1,3.718,1.515.331.331,0,0,0,.247.084c.854,0,1.68-.533,2.589-2.918h0L38.3,22.98c-1.4-3.619-3.993-9.905-5.479-13.131h0L31.307,9.9c-.11,0-.193-.2-.193-.561s.055-.562.193-.562h7.269ZM24.2,8.418c3.69,0,5.755,1.01,5.755,4.208,0,2.442-.138,3.9-.138,6.707,0,1.206.5,2.02,2.093,1.627.193-.084.523.926.33,1.038a6.412,6.412,0,0,1-2.34.365,3.268,3.268,0,0,1-3.387-2.441,5.624,5.624,0,0,1-4.681,2.413c-2.23,0-3.992-1.123-3.992-3.423,0-2.666,2.12-4.49,6.58-4.49.744,0,1.3.028,2.01.056h0V12.009c0-1.852-1.018-2.581-2.7-2.581a4.21,4.21,0,0,0-1.459.2c-.138.056-.248.169-.11.337a1.858,1.858,0,0,1,.33,1.122,1.794,1.794,0,0,1-1.927,1.768,1.775,1.775,0,0,1-1.955-1.8C18.614,9.231,20.789,8.418,24.2,8.418ZM51.793,0c.138,0,.22.056.22.224-.055,3.62-.082,7.324-.082,11.589,0,2.132.027,7.3.055,9.063h0l1.982-.056c.111,0,.221.2.221.561s-.083.533-.193.533H46.148c-.082,0-.192-.168-.192-.533,0-.393.082-.561.192-.561h0l2.231.056c.055-2.694.082-5.388.082-8.7s.028-7.015-.082-11.14h0l-2.231.056c-.082,0-.192-.168-.192-.561,0-.337.082-.533.192-.533h5.645ZM17.4,3.171c.3,0,.358.28.358.477h0V8.867c0,.112-.358.168-.551.168s-.468-.056-.523-.168h0L15.034,4.321l-4.1-.056c-.11,2.666-.137,5.359-.137,8.249,0,2.918.027,5.64.137,8.334h0l3.139-.056c.083,0,.193.168.193.561,0,.365-.083.533-.193.533H3.69c-.11,0-.193-.168-.193-.533,0-.393.055-.561.193-.561h0l3.111.056c.11-2.666.138-5.388.138-8.306,0-2.89-.055-5.583-.138-8.277h0l-4.075.056L1.046,8.867c-.027.112-.33.168-.523.168C.3,9.035,0,8.979,0,8.867H0V3.648c0-.225.055-.477.358-.477H17.4Zm7.269,12.4c-2.23,0-3.359.954-3.359,2.862,0,1.6.743,2.1,1.927,2.1A3.326,3.326,0,0,0,26.378,17.2h0V15.713A12.692,12.692,0,0,0,24.671,15.573ZM61.788,8.418c4.186,0,7.214,2.469,7.214,6.93,0,4.518-3.028,6.959-7.214,6.959-4.268,0-7.269-2.441-7.269-6.959C54.519,10.887,57.52,8.418,61.788,8.418Zm0,1.038c-2.01,0-3.414,1.824-3.414,5.892,0,4.125,1.432,5.893,3.414,5.893,1.955,0,3.332-1.74,3.36-5.893C65.148,11.28,63.743,9.456,61.788,9.456Zm18.7-1.038c-1.652,0-3.386.813-4.57,3.4l-.055-.028L76,9.035c0-.168-.082-.225-.22-.225H70.214c-.138,0-.193.2-.193.562s.083.561.193.561l2.23-.056c.083,1.824.11,3.507.11,5.331,0,2.02-.027,3.844-.11,5.668l-2.23-.056c-.138,0-.193.168-.193.561,0,.365.083.533.193.533h8.095c.138,0,.193-.168.193-.533,0-.393-.083-.561-.193-.561l-2.285.056c-.028-1.964-.055-3.311-.055-5.079,0-3,1.79-5.443,3-5.808.193-.084.248.056.193.224a2.394,2.394,0,0,0-.055.534,1.887,1.887,0,1,0,3.772-.057A2.235,2.235,0,0,0,80.484,8.418Z" fill="#c61a41"/>
  </g>
</svg>
