<svg xmlns="http://www.w3.org/2000/svg" viewBox="0 0 680.8 207.6">
  <g>
    <path d="M222.3,44.1c0-6.2,3.2-8.1,8.1-8.1h18.4c10.1,0,22.2,2.3,22.2,15.7A13.019,13.019,0,0,1,262.5,64v.2c6.4,1.7,10.6,6.2,10.6,14.6,0,12.7-10.4,17.9-22.3,17.9H230.5c-4.9,0-8.1-1.9-8.1-8.1V44.1Zm13.8,16.8h11.4c6.5,0,9.6-2.6,9.6-7.4,0-5.8-4.9-7.4-10-7.4h-11Zm0,25.2h11.6c5.4,0,11.5-1.1,11.5-8.1,0-7.3-6.4-8.3-13.1-8.3h-9.9V86.1Zm48.4-51.5a6.4,6.4,0,1,1-6.4,6.4A6.38,6.38,0,0,1,284.5,34.6Zm-6.1,23.1c0-3.3,1.3-6.2,6.2-6.2,4.8,0,6.2,2.9,6.2,6.2v34c0,3.3-1.4,6.2-6.2,6.2s-6.2-2.9-6.2-6.2Zm18.3-.5c0-3.7,2.4-5.7,5.6-5.7a5.325,5.325,0,0,1,5.6,5.7V62h.2c1.4-5.1,4.2-10.4,10.2-10.4,3.9,0,6.7,2.5,6.7,6,0,4.6-3,6.2-6.1,6.2h-2.2c-5,0-7.7,3.5-7.7,13.7V91.8c0,3.3-1.3,6.2-6.2,6.2-4.8,0-6.2-2.9-6.2-6.2V57.2Zm31,.5c0-3.7,2.2-6.2,5.8-6.2s5.8,2.4,5.8,6.2v1.6h.2a17.343,17.343,0,0,1,14.8-7.8,12.22,12.22,0,0,1,11.8,7.8c3.5-4.8,7.8-7.8,14.5-7.8,8.5,0,15.3,3.9,15.3,14.9V91.6c0,3.3-1.4,6.2-6.2,6.2s-6.2-2.9-6.2-6.2V69.5c0-4.4-1.9-7.9-6.7-7.9-4.7,0-8.9,3.8-8.9,9.5V91.6c0,3.3-1.3,6.2-6.2,6.2-4.8,0-6.2-2.9-6.2-6.2V69.5c0-4.4-1.9-7.9-6.7-7.9-4.7,0-8.9,3.8-8.9,9.5V91.6c0,3.3-1.3,6.2-6.2,6.2-4.8,0-6.2-2.9-6.2-6.2V57.7Zm79.8-23.1a6.4,6.4,0,1,1-6.4,6.4A6.318,6.318,0,0,1,407.5,34.6Zm-6.2,23.1c0-3.3,1.3-6.2,6.2-6.2,4.8,0,6.2,2.9,6.2,6.2v34c0,3.3-1.3,6.2-6.2,6.2-4.8,0-6.2-2.9-6.2-6.2Zm19.4,0c0-3.7,1.7-6.2,5.6-6.2s5.6,2.4,5.6,6.2v1.6h.2c3.5-4.6,7.9-7.8,14.9-7.8,7.4,0,15.5,3.7,15.5,16.2V91.6c0,3.3-1.3,6.2-6.2,6.2-4.8,0-6.2-2.9-6.2-6.2V70.1c0-5-2.4-8.5-7.8-8.5a9.565,9.565,0,0,0-9.4,9.7V91.6c0,3.3-1.3,6.2-6.2,6.2-4.8,0-6.2-2.9-6.2-6.2V57.7Zm89.8,35.4c0,14.8-9.1,21.7-21.9,21.7-9.4,0-18.5-4.2-18.5-10.2a5.143,5.143,0,0,1,5.1-5.2c5.1,0,6.2,6.3,13.1,6.3,7.5,0,10.5-3.8,10.5-13.5V89.7h-.2a15.183,15.183,0,0,1-11.9,5.9c-13,0-19.7-8.4-19.7-20.6,0-15.9,8.9-23.4,19.3-23.4,6,0,10.7,2.8,13,7.3h.2V57.4c0-3.8,1.9-5.8,5.6-5.8,3.8,0,5.6,2,5.6,5.8V93.1ZM489,86.4c5.5,0,9.7-3.6,9.7-12.4,0-8.9-3.4-12.9-9.1-12.9-7.9,0-10.4,5.8-10.4,13.4C479.3,80.2,482.1,86.4,489,86.4Zm27.9-45.3c0-4,2.4-6.2,6.2-6.2,3.7,0,6.2,2.1,6.2,6.2V58h.2c2.4-3.2,6.7-6.5,13.7-6.5,7.4,0,15.5,3.7,15.5,16.2V91.6c0,3.3-1.3,6.2-6.2,6.2-4.8,0-6.2-2.9-6.2-6.2V70.1c0-5-2.4-8.5-7.8-8.5a9.565,9.565,0,0,0-9.4,9.7V91.6c0,3.3-1.3,6.2-6.2,6.2-4.8,0-6.2-2.9-6.2-6.2V41.1Zm89,43.7c0,5.1,1.3,6.3,1.3,8.3,0,2.8-2.6,4.7-5.6,4.7-5.3,0-7.1-3.4-7.2-7.2-4.8,5.3-10.4,7.2-16.9,7.2-7,0-13.9-4.8-13.9-12.6,0-10.2,7.8-13.1,17.2-14.2l7.5-.8c3-.3,5.3-1,5.3-4.6,0-3.5-3.6-5.1-7.8-5.1-9.1,0-9.4,6.7-14.2,6.7a4.888,4.888,0,0,1-5.2-4.7c0-4.9,6.9-11.1,19.6-11.1,11.8,0,20,3.8,20,12.6V84.8Zm-12.3-8.9c-1.3,1.3-3.9,1.7-5.3,1.9l-4.5.7c-5.1.8-7.9,2.4-7.9,6.1,0,2.8,2.6,5.1,6.8,5.1,6.7,0,10.9-4.4,10.9-8.9Zm19-18.2c0-3.7,2.2-6.2,5.8-6.2s5.8,2.4,5.8,6.2v1.6h.2a17.343,17.343,0,0,1,14.8-7.8A12.22,12.22,0,0,1,651,59.3c3.5-4.8,7.8-7.8,14.5-7.8,8.5,0,15.3,3.9,15.3,14.9V91.6c0,3.3-1.3,6.2-6.2,6.2-4.8,0-6.1-2.9-6.1-6.2V69.5c0-4.4-1.9-7.9-6.7-7.9-4.7,0-8.9,3.8-8.9,9.5V91.6c0,3.3-1.3,6.2-6.2,6.2-4.8,0-6.2-2.9-6.2-6.2V69.5c0-4.4-1.9-7.9-6.7-7.9-4.7,0-8.9,3.8-8.9,9.5V91.6c0,3.3-1.3,6.2-6.1,6.2s-6.2-2.9-6.2-6.2V57.7Z" fill="#0e2d6d"/>
    <path d="M235.9,112.7c1.2-3.1,3.4-4.2,6.7-4.2h3.3c3.1,0,5.9.8,7.4,5.1L270,160a18.713,18.713,0,0,1,1.3,5.3,6.283,6.283,0,0,1-6.5,6.1c-3,0-5.2-1.1-6.2-3.8l-3.5-10.1H232.9l-3.6,10.1c-.9,2.7-2.9,3.8-6.2,3.8-3.8,0-6.4-2.4-6.4-6.1A18.713,18.713,0,0,1,218,160l17.9-47.3Zm8.3,10.8H244l-8.2,24.4H252Zm36.3-15.3a6.4,6.4,0,1,1-6.4,6.4A6.318,6.318,0,0,1,280.5,108.2Zm-6.2,23.1c0-3.3,1.3-6.2,6.1-6.2s6.2,2.9,6.2,6.2v34c0,3.3-1.3,6.2-6.2,6.2-4.8,0-6.1-2.9-6.1-6.2Zm18.4-.5c0-3.7,2.4-5.7,5.6-5.7a5.325,5.325,0,0,1,5.6,5.7v4.7h.2c1.4-5.1,4.2-10.4,10.2-10.4,3.9,0,6.7,2.5,6.7,6,0,4.6-3,6.2-6.1,6.2h-2.2c-5,0-7.7,3.5-7.7,13.7v14.3c0,3.3-1.3,6.2-6.2,6.2-4.8,0-6.2-2.9-6.2-6.2V130.8Zm31,.1c0-3.8,1.8-5.8,5.6-5.8,3.6,0,5.6,2,5.6,5.8v1.9h.2c2-5.2,7-7.8,13-7.8,10.3,0,19.3,7.5,19.3,23.4,0,11.8-6,22.8-19,22.8-5.6,0-9.9-2.3-12.1-6.2H336v16.4c0,4-2.4,6.1-6.2,6.1-3.7,0-6.2-2.1-6.2-6.1V130.9Zm21.4,3.8c-7.2,0-9.9,6.4-9.9,13.4,0,6.3,2.4,13.7,9.9,13.7,7.8,0,9.8-7.9,9.8-13.7C354.9,140.9,351.7,134.9,345.1,134.7Zm48.3-9.6c14.8,0,22.8,10.1,22.8,23.1,0,12.3-6,23.2-22.8,23.2s-22.8-10.9-22.8-23.2C370.6,135.2,378.6,125.1,393.4,125.1Zm0,37.2c7.3,0,10.4-6.6,10.4-14.1,0-8-3.3-14-10.4-14-7.2,0-10.4,6-10.4,14C383,155.7,386.1,162.3,393.4,162.3Zm26.5-31.5c0-3.7,2.4-5.7,5.6-5.7a5.325,5.325,0,0,1,5.6,5.7v4.7h.2c1.4-5.1,4.2-10.4,10.2-10.4,3.9,0,6.7,2.5,6.7,6,0,4.6-3,6.2-6.1,6.2h-2.2c-5,0-7.7,3.5-7.7,13.7v14.3c0,3.3-1.3,6.2-6.2,6.2-4.8,0-6.2-2.9-6.2-6.2V130.8Zm36.9,3.5h-2.1c-3.5,0-4.9-1.3-4.9-4s1.4-4,4.9-4h2.1v-7.5c0-4,2.4-6.2,6.2-6.2,3.7,0,6.2,2.1,6.2,6.2v7.5h3.7c3.6,0,5.6,1.1,5.6,4s-1.9,4-5.6,4h-3.7v24.6c0,1.9,1,2.9,3.2,2.9h1.8c2.7,0,4.3,1.5,4.3,4.1,0,3.5-3,5.5-8.9,5.5-8.9,0-12.6-3.7-12.6-11V134.3Z" fill="#0099d8"/>
    <path d="M98.3,189.7a89,89,0,1,1,89-89A89.068,89.068,0,0,1,98.3,189.7Zm0-158.3a69.2,69.2,0,1,0,69.2,69.2A69.287,69.287,0,0,0,98.3,31.4Z" fill="#0e2d6d"/>
    <path d="M158.3,93A77.264,77.264,0,0,0,87.2,16.1a73.7,73.7,0,0,0,27.2,142.2,81.437,81.437,0,0,0,8.7-.5A77.612,77.612,0,0,0,158.3,93Z" fill="none"/>
    <path d="M162.2,93A81.142,81.142,0,0,1,132,156.1,73.676,73.676,0,0,0,114.3,10.9a71.877,71.877,0,0,0-18.6,2.4A81.155,81.155,0,0,1,162.2,93ZM29.8,84.6A84.668,84.668,0,0,1,61.9,18.3,77.115,77.115,0,0,0,99.8,167.8,84.474,84.474,0,0,1,29.8,84.6Z" fill="none"/>
    <path d="M114.4,158.3a81.437,81.437,0,0,0,8.7-.5A77.225,77.225,0,0,1,99.8,168,84.808,84.808,0,0,1,30.9,98.4a72.467,72.467,0,0,0-4.3,24.7A73.89,73.89,0,1,0,40.9,79.6c-.1,1.7-.2,3.4-.2,5.1A73.747,73.747,0,0,0,114.4,158.3Z" fill="none"/>
    <path d="M99.8,167.9a77.225,77.225,0,0,0,23.3-10.2,84.573,84.573,0,0,1-8.7.5A73.768,73.768,0,0,1,40.7,84.5c0-1.7.1-3.4.2-5.1a72.172,72.172,0,0,0-10,18.8,84.8,84.8,0,0,0,68.9,69.7Z" fill="#94d8e9"/>
    <path d="M100.3,38.4A84.552,84.552,0,0,0,45.4,58.7,80.932,80.932,0,0,0,30.3,75.6,83.773,83.773,0,0,0,15.8,123a84.6,84.6,0,1,0,84.5-84.6Zm0,158.3A73.833,73.833,0,0,1,26.6,123,73.562,73.562,0,0,1,40.9,79.5a73.669,73.669,0,1,1,59.4,117.2Z" fill="#0099d8"/>
    <path d="M114.4,0A84.437,84.437,0,0,0,69.8,12.7a86.793,86.793,0,0,0-7.9,5.6A84.659,84.659,0,0,0,30.3,75.6,86.979,86.979,0,0,1,45.4,58.7,74.11,74.11,0,0,1,87.1,16.1a80.651,80.651,0,0,1,8.7-2.9,75.838,75.838,0,0,1,18.6-2.4A73.676,73.676,0,0,1,132.1,156a81.4,81.4,0,0,1-22.6,12.9c1.6.1,3.2.2,4.9.2A84.55,84.55,0,1,0,114.4,0Z" fill="#94d8e9"/>
    <path d="M95.8,13.3a68.268,68.268,0,0,0-8.7,2.9,76.791,76.791,0,1,1-25.2,2.1,86.793,86.793,0,0,1,7.9-5.6A81.1,81.1,0,1,0,109.5,169a84.369,84.369,0,0,0,22.6-12.9A81.014,81.014,0,0,0,95.8,13.3Z" fill="#a4c0e5"/>
  </g>
</svg>
