<svg xmlns="http://www.w3.org/2000/svg" viewBox="0 0 1274.89 226.78">
  <g>
    <path d="M30.69,127.21a39.5,39.5,0,0,1,13.98,2.23,27.178,27.178,0,0,1,9.73,6.05,24.223,24.223,0,0,1,5.69,9.01,31.975,31.975,0,0,1,1.87,10.95,29.722,29.722,0,0,1-1.95,10.81,22.381,22.381,0,0,1-6.05,8.72,30.066,30.066,0,0,1-10.37,5.83,45.4,45.4,0,0,1-14.77,2.16H14.12v42.51H0V127.21ZM14.12,170.29H30.11q7.92,0,12.61-4.03t4.68-11.38a19.126,19.126,0,0,0-.79-5.4,12.429,12.429,0,0,0-2.74-4.83,13.781,13.781,0,0,0-5.19-3.46,21.511,21.511,0,0,0-8-1.3H14.11v30.4Zm177.72,55.19H177.43l-13.11-28.96H122.53l-12.39,28.96H95.73l42.22-98.84h9.94l43.95,98.84Zm-63.83-41.64h30.55l-15.85-35.59Zm137.56-56.63q14.985,0,23.63,7.35t8.65,20.17a25.286,25.286,0,0,1-4.25,14.77,26.166,26.166,0,0,1-12.18,9.29,44.6,44.6,0,0,1,11.45,11.24q4.83,6.78,10.45,15.99,1.59,2.595,2.88,4.61c.87,1.35,1.8,2.74,2.81,4.18s2.11,3,3.31,4.68,2.67,3.67,4.39,5.98H299.85L286.88,205.3a139.935,139.935,0,0,0-8.57-11.96,47.619,47.619,0,0,0-6.63-6.84,14.911,14.911,0,0,0-5.55-3.02,22.037,22.037,0,0,0-5.33-.65h-5.91v42.65H240.77V127.21ZM254.9,170.15h9.08a27.392,27.392,0,0,0,9.37-1.37,16.221,16.221,0,0,0,5.98-3.6,12.081,12.081,0,0,0,3.1-5.11,20.327,20.327,0,0,0,.87-5.91q-.15-6.915-4.54-10.88t-14.77-3.96h-9.08v30.83Z"/>
    <path d="M432.28,139.89h-34v85.59H384.16V139.89h-34V127.21h82.13v12.68ZM577.2,225.48H565.1l-65.7-75.64v75.64H486.14V127.21h11.24l66.57,76.08V127.21h13.26v98.27Zm121.04-85.59H656.6v29.68h40.2v12.68H656.6V212.8h42.94v12.68H642.48V127.21h55.76Z" fill-rule="evenodd"/>
    <path d="M786.67,127.21q14.985,0,23.63,7.35t8.65,20.17a25.286,25.286,0,0,1-4.25,14.77,26.188,26.188,0,0,1-12.17,9.29,44.764,44.764,0,0,1,11.45,11.24q4.83,6.78,10.45,15.99,1.59,2.595,2.88,4.61t2.81,4.18q1.515,2.16,3.31,4.68c1.2,1.68,2.67,3.67,4.39,5.98H820.96L807.99,205.3a137.553,137.553,0,0,0-8.58-11.96,47.619,47.619,0,0,0-6.63-6.84,14.955,14.955,0,0,0-5.54-3.02,22.037,22.037,0,0,0-5.33-.65H776v42.65H761.88V127.21Zm-10.66,42.94h9.08a27.392,27.392,0,0,0,9.37-1.37,16.221,16.221,0,0,0,5.98-3.6,12.081,12.081,0,0,0,3.1-5.11,20.318,20.318,0,0,0,.86-5.91q-.135-6.915-4.54-10.88t-14.77-3.96h-9.08v30.83Z"/>
    <path d="M934.54,148.82q-6.345-6.045-12.18-8.14a32.489,32.489,0,0,0-10.88-2.09q-6.915,0-11.24,3.24a10.068,10.068,0,0,0-4.32,8.43,11.258,11.258,0,0,0,3.17,8.07,41.2,41.2,0,0,0,7.85,6.27q4.68,2.955,10.23,5.91a58.447,58.447,0,0,1,10.23,6.91,35.749,35.749,0,0,1,7.85,9.44,26.082,26.082,0,0,1,3.17,13.26,26.922,26.922,0,0,1-2.09,10.66,25.18,25.18,0,0,1-5.76,8.43,26.808,26.808,0,0,1-8.72,5.55,29.3,29.3,0,0,1-10.95,2.02,43.5,43.5,0,0,1-27.52-9.07V199.83a41.155,41.155,0,0,0,12.03,10.59,28.008,28.008,0,0,0,13.9,3.67,19.757,19.757,0,0,0,7.06-1.15,16.007,16.007,0,0,0,5.04-2.95,11.3,11.3,0,0,0,2.95-4.03,10.921,10.921,0,0,0,.94-4.25,13.486,13.486,0,0,0-3.17-8.86,38.717,38.717,0,0,0-7.86-7.06c-3.13-2.16-6.53-4.3-10.23-6.41a74.222,74.222,0,0,1-10.23-6.99,38.015,38.015,0,0,1-7.86-8.65,20.679,20.679,0,0,1-3.17-11.6,26.384,26.384,0,0,1,2.16-10.88,23.465,23.465,0,0,1,6.05-8.21,27.811,27.811,0,0,1,9.37-5.26,37.64,37.64,0,0,1,12.25-1.87,38.834,38.834,0,0,1,21.9,6.91v15.99Zm141.79,76.66h-14.11V182.69h-55.04v42.79H993.06V127.21h14.12V170h55.04V127.21h14.12v98.27Zm75.57,0h-14.12V127.21h14.12Z" fill-rule="evenodd"/>
    <path d="M1243.62,127.21a39.5,39.5,0,0,1,13.98,2.23,27.178,27.178,0,0,1,9.73,6.05,24.1,24.1,0,0,1,5.69,9.01,31.975,31.975,0,0,1,1.87,10.95,29.929,29.929,0,0,1-1.94,10.81,22.381,22.381,0,0,1-6.05,8.72,30.023,30.023,0,0,1-10.38,5.83,45.4,45.4,0,0,1-14.77,2.16h-14.7v42.51h-14.12V127.21Zm-16.57,43.08h15.99q7.92,0,12.61-4.03t4.68-11.38a19.126,19.126,0,0,0-.79-5.4,12.429,12.429,0,0,0-2.74-4.83,13.74,13.74,0,0,0-5.18-3.46,21.511,21.511,0,0,0-8-1.3h-16.57v30.4Z"/>
    <g>
      <path d="M299.1.79h7.97V48.43c0,5.35-.3,11.33-4.14,15.48a12.764,12.764,0,0,1-6.92,3.79c-.14-.11-7.39-7.4-7.39-7.4,2.15-.02,4.41.14,6.45-.7a5.192,5.192,0,0,0,3.03-2.92c.74-1.39,1.01-4.6,1.01-9.17V.79Z" fill-rule="evenodd"/>
      <path d="M372.28,0q12.9,0,21.49,8.17a27.121,27.121,0,0,1,8.58,20.49,26.691,26.691,0,0,1-8.66,20.39q-8.67,8.07-21.85,8.07-12.585,0-20.97-8.07a26.9,26.9,0,0,1-8.38-20.23q0-12.48,8.44-20.65T372.28,0Zm.31,7.58q-9.555,0-15.71,5.98a20.389,20.389,0,0,0-6.15,15.27,20.037,20.037,0,0,0,6.17,14.99,22.909,22.909,0,0,0,31-.12,20.376,20.376,0,0,0,6.23-15.19,19.938,19.938,0,0,0-6.23-14.89,21.122,21.122,0,0,0-15.31-6.04Z"/>
      <path d="M478.22.79h7.97V56.47h-7.97V32.24H445.65V56.47h-7.97V.79h7.97V25.04h32.57Zm93.99,0h7.57V56.47h-6.86L534.01,13.59V56.47h-7.49V.79h6.46l39.23,43.25Z" fill-rule="evenodd"/>
      <path d="M649.15.79V56.48h34.13V49.29H657.15V.79Zm71.74,0V56.48h35.93V49.29H728.89V31.98h26.38V24.8H728.89V7.97h27.2V.79Zm146.54,0-15.2,38.38L836.72.79h-7.59L813.71,39.17,798.35.79h-8l22.53,56.18h1.55L832.89,11.4l18.29,45.57h1.55L875.34.79Zm42.25,0h8V56.48h-8Zm61.76,32.38-6.06-3.68a29.646,29.646,0,0,1-7.93-6.79,12.45,12.45,0,0,1-2.69-7.9,13.708,13.708,0,0,1,4.56-10.68c3.04-2.74,7.1-4.06,11.96-4.06a21.369,21.369,0,0,1,12.79,3.92v9.05q-6.015-5.79-12.95-5.79a10.692,10.692,0,0,0-6.42,1.81,5.542,5.542,0,0,0-2.51,4.66,6.476,6.476,0,0,0,1.64,4.51,24.83,24.83,0,0,0,6.16,4.76l6.32,3.6c6.79,4.06,9.95,9.22,9.95,15.49A14.348,14.348,0,0,1,981.73,53a15.907,15.907,0,0,1-11.61,4.19,24.7,24.7,0,0,1-15.03-5.13V41.94c4.3,5.45,9.29,8.06,14.95,8.06a9.322,9.322,0,0,0,6.24-1.97,6.6,6.6,0,0,0,2.56-5.22c.01-3.38-2.51-6.6-7.4-9.64Z" fill-rule="evenodd"/>
    </g>
  </g>
</svg>
