<svg xmlns="http://www.w3.org/2000/svg" viewBox="0 0 612.9 500">
  <g>
    <path d="M464.3,329H387.7L331.4,211.6c-30.7,16.7-48.3,55.4-79.5,81a183.879,183.879,0,0,1-57.6,32.5c-10.5,3.5-28.3,8.1-35,8.8-2.8.3-4.8.2-5.2-.9-.3-.8.5-1.4,3.4-2.8,3.4-1.6,17.5-7.5,26.3-13.6,11-7.7,17.3-16,17.8-22.4-3-10.7-24.6-34.3-2.5-77.8,7.9-15.6,14.8-26.8,19.7-38.1,5.6-13,9.6-31.2,11-44.8.1-.8.2-.8.7-.3,10.7,10.9,52.3,53.7,46.3,96.3,13.8-5.3,37.8-21.5,48.9-30.1,11.7-9.1,19.3-18.6,31.7-18.8,11.1-.2,12,5.1,20.9,6.3a13.842,13.842,0,0,0,7.1-1c.7-.3.5-1.1-.5-1.3-12-2.8-14.9-12.6-30.5-12.6-14,0-25.1,12.8-33.1,18.1l-39.3-82C265.3,73.9,270.3,49,306.4,0Z" fill="#d8b464"/>
    <path d="M612.9,497.8l-26.8-31.9c14.1-3.2,22.7-11.3,22.7-25.4,0-15.9-13.5-23.9-30.6-23.9H524.7v81.2h14.2V467.1h31.8l24.5,30.7Zm-74-68.6h39.7c9.8,0,15.6,4.6,15.6,12.3,0,7.9-6.1,13-15.6,13H538.9Z" fill="#d8b464"/>
    <path d="M41.9,416.6,0,497.8H16.1L25,479.7H72.7l8.9,18.1H98L56.1,416.6ZM31.2,467.1l17.6-35.7,17.6,35.7Z" fill="#d8b464"/>
    <path d="M173.1,427.3c13.4,0,24.4,5,30,13.9l11.5-7.7c-8-11.2-22.2-19-41.4-19-31.1,0-49,20.3-49,42.8,0,22.4,17.9,42.7,49,42.7,19.3,0,33.4-7.8,41.4-19l-11.5-7.8c-5.6,8.8-16.6,13.9-30,13.9-20.9,0-34.4-11.7-34.4-29.9s13.5-29.9,34.4-29.9" fill="#d8b464"/>
    <path d="M302,427.3c13.3,0,24.4,5,30,13.9l11.5-7.7c-8-11.2-22.2-19-41.4-19-31.1,0-49,20.3-49,42.8,0,22.4,17.9,42.7,49,42.7,19.2,0,33.4-7.8,41.4-19L332,473.3c-5.6,8.8-16.6,13.9-30,13.9-20.9,0-34.4-11.7-34.4-29.9s13.5-30,34.4-30" fill="#d8b464"/>
    <path d="M430.9,414.5c-31.1,0-49,20.3-49,42.8,0,22.4,17.9,42.7,49,42.7s49-20.3,49-42.7c0-22.5-17.8-42.8-49-42.8m0,72.8c-20.9,0-34.4-11.8-34.4-30.1s13.5-30.1,34.4-30.1,34.4,11.8,34.4,30.1c.1,18.3-13.4,30.1-34.4,30.1" fill="#d8b464"/>
  </g>
</svg>
